<svg xmlns="http://www.w3.org/2000/svg" width="1197.04" height="83.555" viewBox="0 0 1197.04 83.555">
  <g id="グループ_70" data-name="グループ 70" transform="translate(4263.72 -6081)">
    <path id="パス_370" data-name="パス 370" d="M-577.84-10.48c0,4.56-2.72,5.84-6.96,5.84-5.44,0-8.24-1.92-8.24-4.88,0-2.72,3.04-4.88,8.64-4.88a42.452,42.452,0,0,1,6.48.56C-577.84-12.48-577.84-11.36-577.84-10.48Zm31.68,2a61.278,61.278,0,0,0-22.16-12c-.24-3.04-.4-6.24-.56-9.2,7.68-.24,13.84-.8,20.96-1.6v-9.36c-6.48.8-13.12,1.52-21.12,1.84l.08-8.24c7.6-.4,14-1.04,19.2-1.52l-.24-9.12a166,166,0,0,1-18.88,1.92l.08-3.12a52.96,52.96,0,0,1,.56-5.6h-10.8a31.71,31.71,0,0,1,.4,5.44v3.6h-3.92a104.872,104.872,0,0,1-17.2-1.52l.08,9.04a131.927,131.927,0,0,0,17.2,1.2h3.76v8.24h-3.76c-4.24,0-14.56-.56-19.12-1.44l-.08,9.36c5.28.64,14.4,1.04,19.04,1.04h4.08c.08,2.32.16,4.8.32,7.2a48.625,48.625,0,0,0-4.88-.24c-12.24,0-19.6,5.6-19.6,13.6,0,8.4,6.72,13.2,19.36,13.2,10.48,0,15.6-5.2,15.6-12,0-.8,0-1.76-.08-2.8A60.007,60.007,0,0,1-551.84.4Zm134.8-50.16A97.426,97.426,0,0,0-417.04-68l-6.64,2.72a69.814,69.814,0,0,1,5.6,9.44ZM-458.08-25.2A5.957,5.957,0,0,1-452-31.44a5.83,5.83,0,0,1,5.2,2.72c1.04,6.96-1.84,9.52-5.12,9.52A5.973,5.973,0,0,1-458.08-25.2Zm35.92-31.12a76.1,76.1,0,0,0-5.6-9.36l-6.56,2.72a83.047,83.047,0,0,1,5.2,9.04h-9.68c0-.96.08-1.76.08-2.4.08-1.28.32-5.52.56-6.8h-11.52c.32,1.36.56,4.32.8,6.88,0,.64.08,1.44.08,2.4-10.72.16-25.04.56-34.16.56l.24,9.6c9.76-.56,22.08-1.04,34.08-1.2l.08,5.28a20.762,20.762,0,0,0-3.2-.24c-8.64,0-15.84,5.84-15.84,14.88a13.982,13.982,0,0,0,13.68,14.48,17.105,17.105,0,0,0,3.6-.4c-4.32,4.72-11.36,7.36-19.36,9.04l8.48,8.48c19.28-5.44,25.36-18.48,25.36-28.88A19.536,19.536,0,0,0-438.8-33.2c0-3.44,0-7.76-.08-11.76,10.72,0,18.16.24,22.96.48l.08-9.44c-2.32-.08-6.88,0-11.84,0Zm74-6.16a59.443,59.443,0,0,1-.72,7.76c-.96,6.08-3.28,21.04-3.28,33.04A95.563,95.563,0,0,0-349.04,3.6l8.96-.64c-.08-1.12-.08-2.48-.08-3.28a15.64,15.64,0,0,1,.4-3.68,188.988,188.988,0,0,1,5.68-18.88l-4.88-3.92c-1.2,2.64-2.48,5.28-3.52,8.08a36.669,36.669,0,0,1-.32-5.12c0-7.92,2.56-25.36,3.76-30.64a66.579,66.579,0,0,1,1.92-7.04Zm40,49.2c0,4.64-1.68,7.2-6.56,7.2-4.16,0-7.36-1.44-7.36-4.64,0-2.96,3.04-4.8,7.52-4.8a24.7,24.7,0,0,1,6.4.88Zm25.04,3.2A50.288,50.288,0,0,0-298.4-20.32c-.32-5.36-.72-11.68-.88-19.36,4.32-.32,8.48-.8,12.32-1.36v-9.84c-3.76.8-7.92,1.36-12.24,1.84,0-3.52.16-6.48.24-8.24a50.6,50.6,0,0,1,.48-5.12h-11.36a44.829,44.829,0,0,1,.48,5.2c.08,1.68.08,4.88.16,8.8-1.84.08-3.76.08-5.6.08a131.367,131.367,0,0,1-13.84-.72v9.44c4.72.32,9.2.48,13.84.48,1.84,0,3.76,0,5.68-.08.08,5.6.32,11.36.56,16.24a35.59,35.59,0,0,0-5.2-.32c-10.8,0-17.6,5.52-17.6,13.6,0,8.32,6.88,12.96,17.76,12.96,10.72,0,15.04-5.44,15.52-12.96a80.794,80.794,0,0,1,9.6,7.92ZM-169.2-5.84h-8.64v-32.4h8.64Zm-46.16-32.4h8.16v32.4h-8.16Zm28.96,5.52h-12.24v-5.52h12.24Zm-12.24,20.96h12.24v5.92h-12.24Zm12.24-7.44h-12.24v-6.08h12.24Zm30.56-35.04V-63.2h-72v8.96h29.2c-.32,2.4-.8,4.88-1.28,7.2h-24.64v54h9.2V2.88h46.16V6.96h9.68v-54h-30.4c.64-2.32,1.44-4.72,2.16-7.2Zm119.2-9.28A70.262,70.262,0,0,1-42.4-50.48l7.04,2.72c2.24-3.36,5.12-8.24,7.76-12.88Zm9.76,25.68c-4.32-3.6-12.4-8.56-18.96-12.4a84.4,84.4,0,0,0,2-17.44h-9.2c-.64,15.84-1.92,24.96-18.56,30.16A23.316,23.316,0,0,1-66.32-30c8.64-2.96,13.84-6.96,17.12-12.24,6.08,3.84,12.64,8.4,16,11.6Zm-38,27.36c3.92-3.84,6.4-10.16,7.44-16.32l-8.32-1.68c-1.04,5.44-3.44,11.04-6.96,14.08Zm.08-52.56c-.88,4.96-3.04,10.32-6,13.2l7.44,3.2c3.44-3.6,5.52-9.52,6.32-14.8Zm-9.04-2.24H-97.36v7.2h23.52Zm2.88,10.72h-30.4v7.52h30.4ZM-73.6-43.44h-24v7.28h24Zm-24,18.08h24v-7.12h-24Zm16,11.44v9.2h-8.24v-9.2Zm8.08-7.52H-97.84V5.84h8V2.72h16.32Zm38.24,9.04a153.87,153.87,0,0,0,8.4-13.76l-9.36-2.88A86.492,86.492,0,0,1-42.56-15.2a17.236,17.236,0,0,1-1.52-6.72V-34h-9.68v12.08c0,5.36-4.08,15.84-19.36,21.2a39.877,39.877,0,0,1,5.2,7.76c11.04-4,17.44-12.64,19.04-17.6,1.44,4.96,7.2,13.84,17.28,17.6a75.171,75.171,0,0,1,5.44-8.08c-9.44-3.52-14.24-9.12-16.4-14ZM68.8-22.72V-31.2H86.56v8.48Zm-27.36,0V-31.2H58.8v8.48ZM58.8-48v8.08H41.44V-48Zm27.76,0v8.08H68.8V-48ZM68.8-57.12V-67.84h-10v10.72H31.92V-9.36h9.52V-13.6H58.8V6.88h10V-13.6H86.56v3.84h9.92V-57.12Zm100.24-6.24a49.742,49.742,0,0,1,1.04,10.72c0,6.8-.8,27.6-.8,38.24,0,13.52,8.4,19.2,21.36,19.2a41.23,41.23,0,0,0,34.4-18.08l-7.2-8.88C212.16-13.52,203.84-6,190.72-6c-6.08,0-10.88-2.56-10.88-10.56,0-9.84.56-27.6.96-36.08a81.306,81.306,0,0,1,1.04-10.56ZM324.08-47.84c-2.48,15.28-8.64,27.2-19.84,33.84a52.51,52.51,0,0,1,7.36,7.2c8.72-6.08,14.8-14.88,18.8-26.32,3.52,11.2,9.36,20.4,19.2,26.24a42.627,42.627,0,0,1,7.44-7.28C340.4-22.48,335.6-41.76,334.4-64.4h-22v8.96h13.92c.24,2.72.56,5.44.88,8.08Zm-19.84-6c-2.72-3.76-8.56-8.72-13.36-12.08l-7.04,5.76c4.72,3.52,10.4,8.8,12.88,12.64Zm-2,17.12H283.76V-28h9.2v16.88a113.491,113.491,0,0,1-10.88,7.36l4.64,9.92c4.32-3.36,7.84-6.48,11.36-9.6,5.2,6.24,11.76,8.48,21.6,8.88,9.52.4,25.6.24,35.2-.24a49.823,49.823,0,0,1,2.96-9.6c-10.64.8-28.64,1.04-38,.64-8.32-.32-14.32-2.48-17.6-7.84ZM428.88-15.28c-1.44,2-2.56,2.72-4.16,2.72s-2.96-1.52-2.96-3.76c0-4.96,4.8-10.32,13.6-11.68C433.12-23.12,430.88-18.24,428.88-15.28ZM484.4-21.6c-2.32-1.52-5.2-3.44-8.48-5.28a130.352,130.352,0,0,0,1.52-14.72l-10.4-1.2a51.377,51.377,0,0,1,.08,8.64c-.08.88-.16,1.76-.24,2.72a69.429,69.429,0,0,0-17.04-5.12c2.8-6.72,5.68-13.6,7.76-16.96a18.543,18.543,0,0,1,2.64-3.36l-6.32-4.96a19.635,19.635,0,0,1-5.36,1.2c-3.68.32-12.16.64-16.64.64a64.105,64.105,0,0,1-6.56-.32l.4,10.24c2-.32,4.8-.64,6.48-.72,3.6-.24,10.4-.48,13.52-.56-1.84,3.76-4.08,9.12-6.32,14.24-15.92.72-27.04,10.16-27.04,22.4,0,8,5.2,12.8,12.16,12.8,5.44,0,9.2-2.16,12.32-6.96,2.8-4.4,6.24-12.24,9.2-19.04a55.531,55.531,0,0,1,18.56,6.4c-2.64,7.2-8.16,14.8-20.16,19.92l8.48,6.88C463.52-.24,469.52-7.2,473.04-16.16c2.4,1.76,4.72,3.68,6.8,5.52Zm87.52,1.04h8.24l2.8-27.36.4-11.92H568.72l.32,11.92ZM576,.72c4.72,0,8.32-3.2,8.32-7.84,0-4.56-3.6-7.92-8.32-7.92s-8.32,3.36-8.32,7.92C567.68-2.48,571.28.72,576,.72Z" transform="translate(-3653 6155)" fill="none" stroke="#fff" stroke-width="4"/>
    <path id="パス_371" data-name="パス 371" d="M-577.84-10.48c0,4.56-2.72,5.84-6.96,5.84-5.44,0-8.24-1.92-8.24-4.88,0-2.72,3.04-4.88,8.64-4.88a42.452,42.452,0,0,1,6.48.56C-577.84-12.48-577.84-11.36-577.84-10.48Zm31.68,2a61.278,61.278,0,0,0-22.16-12c-.24-3.04-.4-6.24-.56-9.2,7.68-.24,13.84-.8,20.96-1.6v-9.36c-6.48.8-13.12,1.52-21.12,1.84l.08-8.24c7.6-.4,14-1.04,19.2-1.52l-.24-9.12a166,166,0,0,1-18.88,1.92l.08-3.12a52.96,52.96,0,0,1,.56-5.6h-10.8a31.71,31.71,0,0,1,.4,5.44v3.6h-3.92a104.872,104.872,0,0,1-17.2-1.52l.08,9.04a131.927,131.927,0,0,0,17.2,1.2h3.76v8.24h-3.76c-4.24,0-14.56-.56-19.12-1.44l-.08,9.36c5.28.64,14.4,1.04,19.04,1.04h4.08c.08,2.32.16,4.8.32,7.2a48.625,48.625,0,0,0-4.88-.24c-12.24,0-19.6,5.6-19.6,13.6,0,8.4,6.72,13.2,19.36,13.2,10.48,0,15.6-5.2,15.6-12,0-.8,0-1.76-.08-2.8A60.007,60.007,0,0,1-551.84.4Zm134.8-50.16A97.426,97.426,0,0,0-417.04-68l-6.64,2.72a69.814,69.814,0,0,1,5.6,9.44ZM-458.08-25.2A5.957,5.957,0,0,1-452-31.44a5.83,5.83,0,0,1,5.2,2.72c1.04,6.96-1.84,9.52-5.12,9.52A5.973,5.973,0,0,1-458.08-25.2Zm35.92-31.12a76.1,76.1,0,0,0-5.6-9.36l-6.56,2.72a83.047,83.047,0,0,1,5.2,9.04h-9.68c0-.96.08-1.76.08-2.4.08-1.28.32-5.52.56-6.8h-11.52c.32,1.36.56,4.32.8,6.88,0,.64.08,1.44.08,2.4-10.72.16-25.04.56-34.16.56l.24,9.6c9.76-.56,22.08-1.04,34.08-1.2l.08,5.28a20.762,20.762,0,0,0-3.2-.24c-8.64,0-15.84,5.84-15.84,14.88a13.982,13.982,0,0,0,13.68,14.48,17.105,17.105,0,0,0,3.6-.4c-4.32,4.72-11.36,7.36-19.36,9.04l8.48,8.48c19.28-5.44,25.36-18.48,25.36-28.88A19.536,19.536,0,0,0-438.8-33.2c0-3.44,0-7.76-.08-11.76,10.72,0,18.16.24,22.96.48l.08-9.44c-2.32-.08-6.88,0-11.84,0Zm74-6.16a59.443,59.443,0,0,1-.72,7.76c-.96,6.08-3.28,21.04-3.28,33.04A95.563,95.563,0,0,0-349.04,3.6l8.96-.64c-.08-1.12-.08-2.48-.08-3.28a15.64,15.64,0,0,1,.4-3.68,188.988,188.988,0,0,1,5.68-18.88l-4.88-3.92c-1.2,2.64-2.48,5.28-3.52,8.08a36.669,36.669,0,0,1-.32-5.12c0-7.92,2.56-25.36,3.76-30.64a66.579,66.579,0,0,1,1.92-7.04Zm40,49.2c0,4.64-1.68,7.2-6.56,7.2-4.16,0-7.36-1.44-7.36-4.64,0-2.96,3.04-4.8,7.52-4.8a24.7,24.7,0,0,1,6.4.88Zm25.04,3.2A50.288,50.288,0,0,0-298.4-20.32c-.32-5.36-.72-11.68-.88-19.36,4.32-.32,8.48-.8,12.32-1.36v-9.84c-3.76.8-7.92,1.36-12.24,1.84,0-3.52.16-6.48.24-8.24a50.6,50.6,0,0,1,.48-5.12h-11.36a44.829,44.829,0,0,1,.48,5.2c.08,1.68.08,4.88.16,8.8-1.84.08-3.76.08-5.6.08a131.367,131.367,0,0,1-13.84-.72v9.44c4.72.32,9.2.48,13.84.48,1.84,0,3.76,0,5.68-.08.08,5.6.32,11.36.56,16.24a35.59,35.59,0,0,0-5.2-.32c-10.8,0-17.6,5.52-17.6,13.6,0,8.32,6.88,12.96,17.76,12.96,10.72,0,15.04-5.44,15.52-12.96a80.794,80.794,0,0,1,9.6,7.92ZM-169.2-5.84h-8.64v-32.4h8.64Zm-46.16-32.4h8.16v32.4h-8.16Zm28.96,5.52h-12.24v-5.52h12.24Zm-12.24,20.96h12.24v5.92h-12.24Zm12.24-7.44h-12.24v-6.08h12.24Zm30.56-35.04V-63.2h-72v8.96h29.2c-.32,2.4-.8,4.88-1.28,7.2h-24.64v54h9.2V2.88h46.16V6.96h9.68v-54h-30.4c.64-2.32,1.44-4.72,2.16-7.2Zm119.2-9.28A70.262,70.262,0,0,1-42.4-50.48l7.04,2.72c2.24-3.36,5.12-8.24,7.76-12.88Zm9.76,25.68c-4.32-3.6-12.4-8.56-18.96-12.4a84.4,84.4,0,0,0,2-17.44h-9.2c-.64,15.84-1.92,24.96-18.56,30.16A23.316,23.316,0,0,1-66.32-30c8.64-2.96,13.84-6.96,17.12-12.24,6.08,3.84,12.64,8.4,16,11.6Zm-38,27.36c3.92-3.84,6.4-10.16,7.44-16.32l-8.32-1.68c-1.04,5.44-3.44,11.04-6.96,14.08Zm.08-52.56c-.88,4.96-3.04,10.32-6,13.2l7.44,3.2c3.44-3.6,5.52-9.52,6.32-14.8Zm-9.04-2.24H-97.36v7.2h23.52Zm2.88,10.72h-30.4v7.52h30.4ZM-73.6-43.44h-24v7.28h24Zm-24,18.08h24v-7.12h-24Zm16,11.44v9.2h-8.24v-9.2Zm8.08-7.52H-97.84V5.84h8V2.72h16.32Zm38.24,9.04a153.87,153.87,0,0,0,8.4-13.76l-9.36-2.88A86.492,86.492,0,0,1-42.56-15.2a17.236,17.236,0,0,1-1.52-6.72V-34h-9.68v12.08c0,5.36-4.08,15.84-19.36,21.2a39.877,39.877,0,0,1,5.2,7.76c11.04-4,17.44-12.64,19.04-17.6,1.44,4.96,7.2,13.84,17.28,17.6a75.171,75.171,0,0,1,5.44-8.08c-9.44-3.52-14.24-9.12-16.4-14ZM68.8-22.72V-31.2H86.56v8.48Zm-27.36,0V-31.2H58.8v8.48ZM58.8-48v8.08H41.44V-48Zm27.76,0v8.08H68.8V-48ZM68.8-57.12V-67.84h-10v10.72H31.92V-9.36h9.52V-13.6H58.8V6.88h10V-13.6H86.56v3.84h9.92V-57.12Zm100.24-6.24a49.742,49.742,0,0,1,1.04,10.72c0,6.8-.8,27.6-.8,38.24,0,13.52,8.4,19.2,21.36,19.2a41.23,41.23,0,0,0,34.4-18.08l-7.2-8.88C212.16-13.52,203.84-6,190.72-6c-6.08,0-10.88-2.56-10.88-10.56,0-9.84.56-27.6.96-36.08a81.306,81.306,0,0,1,1.04-10.56ZM324.08-47.84c-2.48,15.28-8.64,27.2-19.84,33.84a52.51,52.51,0,0,1,7.36,7.2c8.72-6.08,14.8-14.88,18.8-26.32,3.52,11.2,9.36,20.4,19.2,26.24a42.627,42.627,0,0,1,7.44-7.28C340.4-22.48,335.6-41.76,334.4-64.4h-22v8.96h13.92c.24,2.72.56,5.44.88,8.08Zm-19.84-6c-2.72-3.76-8.56-8.72-13.36-12.08l-7.04,5.76c4.72,3.52,10.4,8.8,12.88,12.64Zm-2,17.12H283.76V-28h9.2v16.88a113.491,113.491,0,0,1-10.88,7.36l4.64,9.92c4.32-3.36,7.84-6.48,11.36-9.6,5.2,6.24,11.76,8.48,21.6,8.88,9.52.4,25.6.24,35.2-.24a49.823,49.823,0,0,1,2.96-9.6c-10.64.8-28.64,1.04-38,.64-8.32-.32-14.32-2.48-17.6-7.84ZM428.88-15.28c-1.44,2-2.56,2.72-4.16,2.72s-2.96-1.52-2.96-3.76c0-4.96,4.8-10.32,13.6-11.68C433.12-23.12,430.88-18.24,428.88-15.28ZM484.4-21.6c-2.32-1.52-5.2-3.44-8.48-5.28a130.352,130.352,0,0,0,1.52-14.72l-10.4-1.2a51.377,51.377,0,0,1,.08,8.64c-.08.88-.16,1.76-.24,2.72a69.429,69.429,0,0,0-17.04-5.12c2.8-6.72,5.68-13.6,7.76-16.96a18.543,18.543,0,0,1,2.64-3.36l-6.32-4.96a19.635,19.635,0,0,1-5.36,1.2c-3.68.32-12.16.64-16.64.64a64.105,64.105,0,0,1-6.56-.32l.4,10.24c2-.32,4.8-.64,6.48-.72,3.6-.24,10.4-.48,13.52-.56-1.84,3.76-4.08,9.12-6.32,14.24-15.92.72-27.04,10.16-27.04,22.4,0,8,5.2,12.8,12.16,12.8,5.44,0,9.2-2.16,12.32-6.96,2.8-4.4,6.24-12.24,9.2-19.04a55.531,55.531,0,0,1,18.56,6.4c-2.64,7.2-8.16,14.8-20.16,19.92l8.48,6.88C463.52-.24,469.52-7.2,473.04-16.16c2.4,1.76,4.72,3.68,6.8,5.52Zm87.52,1.04h8.24l2.8-27.36.4-11.92H568.72l.32,11.92ZM576,.72c4.72,0,8.32-3.2,8.32-7.84,0-4.56-3.6-7.92-8.32-7.92s-8.32,3.36-8.32,7.92C567.68-2.48,571.28.72,576,.72Z" transform="translate(-3661 6149)"/>
  </g>
</svg>
