<svg id="レイヤー_1" data-name="レイヤー 1" xmlns="http://www.w3.org/2000/svg" xmlns:xlink="http://www.w3.org/1999/xlink" viewBox="0 0 682.61 593.66"><defs><style>.cls-1,.cls-9{fill:none;}.cls-2{fill:#fff;}.cls-3{clip-path:url(#clip-path);}.cls-4{fill:#595959;}.cls-5{fill:#cacaca;}.cls-6{fill:#dcdddd;}.cls-7{fill:#282828;}.cls-8{fill:#7d7d7d;}.cls-9{stroke:#000;stroke-miterlimit:10;stroke-width:6px;}</style><clipPath id="clip-path"><circle class="cls-1" cx="360.51" cy="308.84" r="272.07"/></clipPath></defs><rect class="cls-2" width="682.61" height="593.66"/><g class="cls-3"><g id="グループ_5" data-name="グループ 5"><g id="レイヤー_2" data-name="レイヤー 2"><g id="_1440" data-name=" 1440"><g id="story"><g id="_06" data-name=" 06"><g id="_7" data-name=" 7"><path id="パス_133" data-name="パス 133" class="cls-1" d="M297.59,531c-2.83,18-5.49,34.9-3.71,39.11.7,1.64,1.29,3.23,1.8,4.8.52-1,1-1.81,1.5-2.49,2.05-2.83,14.13-6.8,41.25-15.27l4.08-1.24c-4.58-9.95-9.84-20.07-14.87-29.78-5.5-10.62-10.91-21-15.06-30.55l-10.23,2.18C301,509.16,299.23,520.53,297.59,531Z"/><path id="パス_134" data-name="パス 134" class="cls-1" d="M364.19,502.77l.27.94.26.17c10.44,6.55,23.14,14.77,28,16.25V509.22a284.18,284.18,0,0,1-28.57-6.43Z"/><path id="パス_135" data-name="パス 135" class="cls-1" d="M377.39,299.26c-.56,1-1.2,2.1-1.9,3.27l1.73,1.07C377.28,302.27,377.28,300.81,377.39,299.26Z"/><path id="パス_138" data-name="パス 138" class="cls-1" d="M377.83,163.4a126.34,126.34,0,0,1,1.26-36.93h-2.72a1.6,1.6,0,0,1-1.57-1.29,28.72,28.72,0,0,1,.3-6l-.17.22h0l-.13.77a32,32,0,0,1-1.53,6.55,31.06,31.06,0,0,1-.65,3.16,5,5,0,0,1,0,.55,31.15,31.15,0,0,1-1.31,10.38c0,.65.15,1.31.2,2a35.32,35.32,0,0,1-14.92,29.39,61.07,61.07,0,0,1-10.28,30v1.09c1.13,25-14.4,47.43-35.62,59.12l30,18.65c3.55-5.91,7.73-13.33,11.43-19.94,10.69-19,21.82-38.61,28.36-44-1.13-4.36-1.33-8.73,2.92-11.22a19.76,19.76,0,0,1,9.56-2.75,3.07,3.07,0,0,0,4-2.88,18.69,18.69,0,0,1,3.48-5.38A42,42,0,0,1,377.83,163.4Z"/><path id="パス_141" data-name="パス 141" class="cls-1" d="M381.14,542.8a1.52,1.52,0,0,1-.43-1.16c0-2-3.93-5.35-9.6-9.1.83,4.36,1.61,9,2.35,13.35C376.5,544.76,379.11,543.71,381.14,542.8Z"/><path id="パス_142" data-name="パス 142" class="cls-4" d="M492.41,231.81c-.38-3.06-5.38-6.29-9.38-8.9a39.24,39.24,0,0,1-5.71-4.12,9,9,0,0,1-2.18-7.59A20.07,20.07,0,0,0,473,199.92c-3.53-6.87-18.67-9.84-25.76-10.62a38.32,38.32,0,0,0,.59,19.63,9.41,9.41,0,0,0,2.18,3l1.07-1.3a1.57,1.57,0,0,1,2.22,0,1.58,1.58,0,0,1,.22,1.92l-1.26,1.53c-.55.65-1.27,1.46-2.19,2.44-2.66,3.06-6.67,7.44-11.16,11.65-9.36,8.72-16.93,13.09-22.56,13.09a8.65,8.65,0,0,1-8.07-5.17c-2.62-5.55-1.13-14.7.77-21.82.31-1.16.64-2.18.94-3.34,1.25-4.14,2.42-7.11,2.56-7.43a1.61,1.61,0,0,1,2.07-1,1.62,1.62,0,0,1,1,2.07.42.42,0,0,0,0,.1s-.94,2.36-2,5.7a10.74,10.74,0,0,0,4.8-2A20.75,20.75,0,0,0,425,197.47a39.55,39.55,0,0,1-6.78.77h-.8A40.7,40.7,0,0,1,404,196.06c-1.88.18-3.25,3-4.36,5.26s-1.86,3.77-3.34,4.21a15.26,15.26,0,0,1-3.3.46,16.78,16.78,0,0,0-8.16,2.32c-2.18,1.28-2.38,3.55-1.68,6.7.22,1,.53,2,.9,3.16.17.61.37,1.22.59,1.83.32,1,.65,1.94.91,2.84,1.36,4.36,16.86,14.39,24.32,19.17l4,2.6c5.69,3.79,60,4.16,66.25,3.33a9.26,9.26,0,0,0,4.6-2.57,23.85,23.85,0,0,0,2.18-2.32c.18-.24.39-.46.57-.7s.61-.78.9-1.2.74-1.07,1.09-1.61a27.79,27.79,0,0,0,1.54-2.84l.48-1.13a12.7,12.7,0,0,0,.64-2,6.82,6.82,0,0,0,.24-1.74Z"/><path id="パス_143" data-name="パス 143" class="cls-4" d="M354.46,355.39h-.24a28.5,28.5,0,0,1,3.21,3.29,30.18,30.18,0,0,1,6.37,20.81l10.14.94a30.25,30.25,0,0,0-7.7-25.24Z"/><path id="パス_144" data-name="パス 144" class="cls-4" d="M479.59,327.9a328.32,328.32,0,0,1-12.48,31.44l20.07,12.43c-2-19.17-3.6-40.95-4.36-53.42C481.71,321.64,480.65,324.88,479.59,327.9Z"/><path id="パス_145" data-name="パス 145" class="cls-4" d="M487.79,250c-.34-.59-.69-1.16-1.09-1.79a12.26,12.26,0,0,1-6.06,3.17c-1.35.17-7.66.34-15.93.34-18.71,0-47.53-.82-52.55-4.19l-4-2.55c-12.13-7.76-24-15.79-25.65-21l-.89-2.77a3.41,3.41,0,0,0-.29-.83c-6.18,6.15-17.45,26-26.46,42.19-4.77,8.48-8.53,15.08-11.51,20.07-.64,1.06-1.27,2.07-1.84,3-.34.54-.67,1.06-1,1.54-3.23,5-5.34,7.44-6.89,7.81-6.24,1.46-36,9-51.85,13.42l2.46,1.42a1.7,1.7,0,0,1,.68.7h0a2.6,2.6,0,0,1,.11.63V329c5-.91,13.3-2.18,26-4,18.52-2.73,39.53-5.8,45.63-7.9a31.8,31.8,0,0,0,13.09-11.93c.35-.5.68-1,1-1.51.7-1,1.36-2,1.94-3a85.64,85.64,0,0,0,4.36-8.05,1.52,1.52,0,0,1,.57-.66c.77-18.69,1.93-43.89,1.93-44.23a1.62,1.62,0,1,1,3.23-.24,1.7,1.7,0,0,1,0,.39c0,.45-1.86,41.44-2.47,57.54l50.18,31.15c9.18-17,22.67-46.9,22.67-61.38a1.61,1.61,0,1,1,3.22,0c0,14.55-13.48,45.2-23.2,63.06-.61,1.14-1.2,2.18-1.77,3.21-.28.5-.58,1-.85,1.48a35.17,35.17,0,0,1-6.26,8.9c-2.32,1.48-15.16,2.4-42.76,3h-3.23l-8,.13a33.86,33.86,0,0,1,6.94,25.74h0l4.36.41,3.27.31c25,2.32,55.08,4.67,63.66.48,3.48-1.68,8.29-8.73,13.57-19.41l.74-1.51,1.59-3.38c4-8.72,8.16-19.11,12.18-30.78,2.07-6,3.95-11.91,5.63-17.6l.77-2.69c6.15-21.53,9.25-39.79,7.92-48.36A23.88,23.88,0,0,0,487.79,250Z"/><path id="パス_151" data-name="パス 151" class="cls-5" d="M406.19,511.49a85.7,85.7,0,0,1-10.1-1.37v29.7c0,1.33,2.32,3.93,10.12,3.93,8.29,0,9.88-3.45,10.12-4.15V510.33A80.29,80.29,0,0,1,406.19,511.49Z"/><path id="パス_152" data-name="パス 152" class="cls-5" d="M291.81,573.62a19.59,19.59,0,0,1-13.09,4.71H277.6a13.81,13.81,0,0,1-11.89-7.89,22.6,22.6,0,0,1-1.27,2c-5.32,7.57-16.16,10.69-25.72,13.46-8.72,2.53-17.08,4.93-18.43,10a7.63,7.63,0,0,0,1.07,6.8c4.82,6.65,20,7.66,20.11,7.66,2.62.22,6.76-2.32,11.17-5.06,6.41-3.95,13.68-8.42,20.5-7.35,7.79,1.26,13.63.28,17.12-2.84a8,8,0,0,0,1.27-1.33,10.75,10.75,0,0,0,1.46-2.52,15.33,15.33,0,0,0,1.05-4.37,25,25,0,0,0-.59-7.61A43,43,0,0,0,291.81,573.62Z"/><path id="パス_155" data-name="パス 155" class="cls-6" d="M379.7,123.24A60.22,60.22,0,0,1,388,100.49,50.37,50.37,0,0,1,449.66,86c12.52,6.39,19.42,19.17,20.57,37.65a9.15,9.15,0,0,1,3.36,2.29,12.14,12.14,0,0,1,3.19,8.4,8.44,8.44,0,0,1-.13,5.48l-.68,1.35L475,143a7.75,7.75,0,0,1-.39.94,34.79,34.79,0,0,1-2.59,4.95,41,41,0,0,1-3.91,6.69c-.33.59-.65,1.23-.94,1.81a6.26,6.26,0,0,0-.34,1.71c-.11.56-.31,1.24-.46,1.85,5.37-4.93,15.27-17,17.17-29,4.36-27.59-9.8-53.29-32.92-59.75-9.67-2.7-39.09-10.9-63.26,18.31a31.55,31.55,0,0,0-4.74,8.72c2.18,3.14.33,10-3.92,15.47a66.77,66.77,0,0,0-.9,8.57Z"/><path id="パス_156" data-name="パス 156" class="cls-6" d="M382.73,99.2a79.39,79.39,0,0,0-3.92,15.47C383.06,109.19,384.85,102.34,382.73,99.2Z"/><path id="パス_157" data-name="パス 157" class="cls-6" d="M393.93,111.7a1.6,1.6,0,0,1,1.46-1.46,1.64,1.64,0,0,1,1.7,1.16,53.65,53.65,0,0,0,4.36,11.91l17.28,2.88v-7.86a1.68,1.68,0,0,1,1.33-1.6,1.62,1.62,0,0,1,1.79,1,35.82,35.82,0,0,0,6.28,11.84,205.27,205.27,0,0,1,27.36,8.73c.63-4.15,2.75-12.74,9.22-14.16a8.6,8.6,0,0,1,2.18-.83h0c-1-14.79-6-28-18.78-34.46a43.34,43.34,0,0,0-19.63-4.67,48.55,48.55,0,0,0-37.87,18.21A56.37,56.37,0,0,0,383,123.26h9.83Z"/><path id="パス_158" data-name="パス 158" class="cls-6" d="M467.23,157.36c-.85,1.74-1.57,3.38-2,4.64a15.31,15.31,0,0,0,1.22-1.07c.15-.61.33-1.22.45-1.85Z"/><path id="パス_159" data-name="パス 159" class="cls-6" d="M389.3,101.45h0c10.91-14.77,36.56-25.77,59.62-14,13.59,6.92,18.74,20.73,19.63,35.86a8.79,8.79,0,0,1,1.6.35c-1.16-18.48-8-31.26-20.57-37.65a50.28,50.28,0,0,0-61.65,14.51,58.81,58.81,0,0,0-8.31,22.77h1.67A59.82,59.82,0,0,1,389.3,101.45Z"/><path id="パス_160" data-name="パス 160" class="cls-6" d="M390.6,102.41a48.6,48.6,0,0,1,37.87-18.22,43.42,43.42,0,0,1,19.72,4.67C460.93,95.4,466,108.5,467,123.33a6.51,6.51,0,0,1,1.65,0c-1-15.14-6.13-28.95-19.63-35.87-23.06-11.73-48.65-.74-59.62,14h0a58.4,58.4,0,0,0-7.92,21.82h1.64A55.14,55.14,0,0,1,390.6,102.41Z"/><path id="パス_161" data-name="パス 161" class="cls-6" d="M473.92,128.1a17.29,17.29,0,0,1,2.86,6.22,12.14,12.14,0,0,0-3.19-8.4,9.15,9.15,0,0,0-3.36-2.29v1.29a11.21,11.21,0,0,1,3.69,3.19Z"/><path id="パス_162" data-name="パス 162" class="cls-6" d="M474.66,144c.13-.31.26-.61.39-.94-1.16,2.37-2.18,4.36-3,5.89a34.85,34.85,0,0,0,2.6-4.95Z"/><path id="パス_163" data-name="パス 163" class="cls-6" d="M464.69,124.15H465a8.62,8.62,0,0,1,2,0v-.65h0A8.19,8.19,0,0,0,464.69,124.15Z"/><path id="パス_164" data-name="パス 164" class="cls-6" d="M468.71,124.24a15.83,15.83,0,0,1,1.59.68v-1.29a8.68,8.68,0,0,0-1.59-.35Z"/><path id="パス_165" data-name="パス 165" class="cls-6" d="M467,123.33V124a8,8,0,0,1,1.7.27v-1A6.47,6.47,0,0,0,467,123.33Z"/><path id="パス_168" data-name="パス 168" class="cls-2" d="M276.13,410.28v-95.5l-96-55.18-14.34-8.25-4-2.35L150,242.2v113l109.46,63,2.82,1.62,13.76,7.92ZM208.31,354c-7.9,0-14.33-8.72-14.33-19.19s6.43-19.18,14.33-19.18,14.31,8.59,14.31,19.18S216.18,354,208.31,354Z"/><path id="パス_169" data-name="パス 169" class="cls-2" d="M290.27,435.32,378.59,401v-7.12l-6.67,2.53-4.64,1.75-4.37,1.61-17.34,6.54L307.83,420.5l-13.61,5.24-10.12,3.79h0a1.82,1.82,0,0,1-.57,0,1.45,1.45,0,0,1-1.16-.54h0v-.14h0V313.75l-2.51,1.13V428h0v1.81h0v9.84l6.94-2.71Z"/><path id="パス_170" data-name="パス 170" class="cls-2" d="M556.39,421l-19.87-12.35-2.82-1.74-6-3.71-2.82-1.77-33.4-20.68L488,378.56,464.88,364.2c-5.19,10.5-10.45,18.46-14.91,20.62-9.28,4.56-38.61,2.18-64.76-.11l-3.27-.31-4.89-.45L364,382.72l15.4,7.94.13.11h.11l.2.24a3.12,3.12,0,0,1,.15.39v9.05a1.63,1.63,0,0,1-1,1.51l-89.65,34.9-3.56,1.37-7.63,3H277l-.24-.11-17-9.75-2.9-1.31L147.61,367.22a1.59,1.59,0,0,1-.8-1.4V270c-1.42,18.34-18.87,33.31-37.09,33.31a35.78,35.78,0,0,1-25.37-10.44A38.07,38.07,0,0,1,74.89,282a40.08,40.08,0,0,1-10-24.89,33.53,33.53,0,0,1,8.16-23,35.78,35.78,0,0,1,10.54-18.9,69.4,69.4,0,0,1-19.37-23,73.21,73.21,0,0,1-13.77,10.5,129.78,129.78,0,0,1-25.1,10.62c.63,3.48,1.26,7,2,10.44a664.29,664.29,0,0,0,22.87,84.9c.89,2.71,1.83,5.39,2.77,8.07,14.42,1.83,26.41,13.44,31.67,27.25,10,26.44,22.67,52.35,28,80.19a32.75,32.75,0,0,1,2.68,26.59,15.73,15.73,0,0,0-.57,1.63,38.19,38.19,0,0,1-5.45,10.72,262.66,262.66,0,0,1,5.39,54.95l148-32.31,3.17-.65,35.07-7.68h.31l3-.64,1.38-.3h.3l2.84-.62,18.32-4,5.87-1.26L482,437.93l4-.85.2-.82,1.13.52,2.18-.46,25.7-5.61,3.67-.8,7.65-1.66,3.67-.81,25.7-5.61c.59-.11.81-.35.85-.54S556.71,421.18,556.39,421Z"/><path id="パス_174" data-name="パス 174" class="cls-2" d="M556.82,427.18l-28.75,6.26-3.67.81-7.61,1.66-3.65.78-17.91,3.9L490,441.72l-2.18.48-3.68.9-141.8,31-6.15,1.33-23,5-3,.64-2.07.45-1.07.24-3.2.7-3.27.72-33.84,7.42-3.16.67-149,32.49c0,2.64,0,5.28-.15,7.94v1.93l150.67-32.87,3.17-.7,31.48-6.87,3.31-.72,7.44-1.62,3.19-.69,8.55-1.88,5.71-1.24,24.22-5.32,1.54-.35,1.77-.39,4.89-1.07,23.34-5.19,96-20.94,4.13-.89,20.11-4.36,4.69-1,1.48-.33,3.54-.77,7.37-1.61,3.62-.78,31.18-6.8h.38c.29,0,.33,0,.39-.13a2.52,2.52,0,0,0,.33-1v-8.91Z"/><path id="パス_175" data-name="パス 175" class="cls-2" d="M305.1,265.23a65.08,65.08,0,0,1-69.68-10.58,37.49,37.49,0,0,1-22.81,8.18,36,36,0,0,1-15.27-3.38,38.4,38.4,0,0,1-3.93-2h0L277.94,306c15.86-4.64,50.92-13.37,55-14.33a24,24,0,0,0,4.95-6.26Z"/><path id="パス_176" data-name="パス 176" class="cls-2" d="M147,257.68v-7.09a33.9,33.9,0,0,1-.63,3.34C146.66,255.18,146.86,256.42,147,257.68Z"/><path id="パス_177" data-name="パス 177" class="cls-2" d="M188.15,253.67a37.38,37.38,0,0,1-8.9-9.49,35.69,35.69,0,0,1-17.64-8.73,37.2,37.2,0,0,1-6.55-1c-.81.48-1.63,1-2.46,1.37h0l.87-.39a1.59,1.59,0,0,1,1.47,0l35,20.11a1.69,1.69,0,0,0,.45,0C189.64,254.85,188.87,254.3,188.15,253.67Z"/><path id="パス_178" data-name="パス 178" class="cls-2" d="M428.46,196.86a22.86,22.86,0,0,1-7.92,14A15.34,15.34,0,0,1,412.6,214c-1.94,6.87-3.67,15.92-1.31,20.91a5.39,5.39,0,0,0,3.34,3.06c4.36,1.42,12.32-2.86,22.14-12,4.36-4.19,8.44-8.55,11.06-11.54a13.11,13.11,0,0,1-3-4.37,40.47,40.47,0,0,1-1-19.82A58.85,58.85,0,0,1,428.46,196.86Z"/><path id="パス_179" data-name="パス 179" class="cls-2" d="M352.3,381.87a72.75,72.75,0,0,0-9.22-.13,162.76,162.76,0,0,0-16.14,2.73h-.33c-4.61.91-8.95,1.79-12.24,2.18l-.83.11a77.15,77.15,0,0,1-8.72.77l18,11,.5.3a1.69,1.69,0,0,1,.78,1.53,1.59,1.59,0,0,1-1,1.36h-.21L285.18,417v8.36l21.4-8.05,38.48-14.46,8-3,9.33-3.51,12.3-4.65L355.49,382Z"/><path id="パス_180" data-name="パス 180" class="cls-2" d="M348.67,355.44a135.87,135.87,0,0,1-18.32-2.18,100.56,100.56,0,0,0-20.4-2.05c-2,.21-3.84.52-5.58.87l-2.36.54-2.35.66-1.61.54a22.08,22.08,0,0,0-13,9.41v1.54a58.2,58.2,0,0,1,15.85-6.72,56.59,56.59,0,0,1,5.54-1.19c1-.18,2-.29,3-.39a26.7,26.7,0,0,1,3.1-.15,20.71,20.71,0,0,1,6.3.91,1.62,1.62,0,0,1,1,2h0a1.3,1.3,0,0,1-.38.62,1.62,1.62,0,0,1-1.66.38,13.72,13.72,0,0,0-1.68-.41,21.25,21.25,0,0,0-4.36-.33,39.4,39.4,0,0,0-8.9,1.33,58,58,0,0,0-12.23,4.54,26.2,26.2,0,0,0-5.46,3.48v2.51h0c1.66,1,6-.35,10.21-1.7a72.59,72.59,0,0,1,8.58-2.36c.85-.39,1.7-.74,2.55-1.09a37.72,37.72,0,0,1,12.54-3h1.77a1.63,1.63,0,0,1,1.48,1.66h0a1.6,1.6,0,0,1-1.71,1.5h0a29.6,29.6,0,0,0-12.24,2.45c-8.09,3.23-15.27,8.72-15.51,10.78a2.26,2.26,0,0,0,0,.52l1.33.83a56.59,56.59,0,0,1,17.23-7.66,77.61,77.61,0,0,1,13.09-3.1,1.62,1.62,0,0,1,.52,3.19h-.21a65,65,0,0,0-11.54,2.64A79.38,79.38,0,0,0,297,382.61l1.64,1a41.35,41.35,0,0,0,14.55-.19h.83c1.13-.15,2.42-.35,3.79-.59,2.49-.44,5.31-1,8.23-1.59,6-1.2,12.22-2.47,16.82-2.86h5.71a35.41,35.41,0,0,1,4.37.19l3.53.24,4.17.35A24.89,24.89,0,0,0,348.67,355.44Z"/><path id="パス_181" data-name="パス 181" class="cls-2" d="M285.09,345.86v11.95a31.1,31.1,0,0,1,10.67-6.54Z"/><path id="パス_182" data-name="パス 182" class="cls-2" d="M293.82,373.58a25,25,0,0,1-7.05,1.42,7.37,7.37,0,0,1-1.68-.17v.77l4.7,2.88a13.07,13.07,0,0,1,4-4.91Z"/><path id="パス_183" data-name="パス 183" class="cls-2" d="M372.53,307a34.81,34.81,0,0,1-14.75,13.28c-6.39,2.18-27.55,5.31-46.23,8-9.86,1.46-20.7,3.06-26.46,4.15v9.75l15,7.68a58.7,58.7,0,0,1,9.56-1.85,100.3,100.3,0,0,1,21.24,2,126.92,126.92,0,0,0,18.22,2.19h5.37q13.08-.15,23.71-.35h3.25q38.22-.81,41.31-2.51a35.42,35.42,0,0,0,5.28-7.83L380.16,312,377,310Z"/><path id="パス_184" data-name="パス 184" class="cls-2" d="M378.51,101.16h0a35.5,35.5,0,0,1-3.12,4.64,32.84,32.84,0,0,1,.3,3.43,30.21,30.21,0,0,1-.13,4.36l.22-.26a82.74,82.74,0,0,1,2.88-12.24Z"/><path id="パス_197" data-name="パス 197" class="cls-2" d="M548.63,757.24h8V443l-8,1.93Z"/><path id="パス_202" data-name="パス 202" class="cls-2" d="M404.6,193a38.29,38.29,0,0,0,13.67,2.18,34.75,34.75,0,0,0,7.53-1l1.22-.3a53.53,53.53,0,0,0,13.09-5.42A49.09,49.09,0,0,0,461.68,165a13,13,0,0,1,2-7.63,5.93,5.93,0,0,1-2.18.54,1.6,1.6,0,0,1-1.57-1.65h0a1.62,1.62,0,0,1,1.35-1.54h.22a6.65,6.65,0,0,0,3.48-2,21.81,21.81,0,0,0,2-2.18,27.7,27.7,0,0,0,2.07-2.77l.3-.48c1-2,2-4,2.86-5.68a20.85,20.85,0,0,0,1.49-7,14.21,14.21,0,0,0-2.18-4.64,9,9,0,0,0-1-1.09,8.38,8.38,0,0,0-1.57-1.16,5.91,5.91,0,0,0-1.68-.55,5.16,5.16,0,0,0-1.36,0,19.91,19.91,0,0,0-5.82,7.62,1.82,1.82,0,0,1-.63.72c-.15.63-.31,1.24-.44,1.83a21.78,21.78,0,0,0-.46,3.31,1.52,1.52,0,0,1-2.26,1.29,213.23,213.23,0,0,0-28.36-9.2c-2,0-4.09-3-6-6.55v1.94a1.57,1.57,0,0,1-1.53,1.61h0a.81.81,0,0,1-.31,0l-19.63-3.25h-.26c-.51-.17-1.77-.61-3.87-6.3l-.46,4.91a1.59,1.59,0,0,1-1.59,1.48H382.47c-.26,1.46-.5,3-.72,4.52a115.88,115.88,0,0,0-.68,31.89A36,36,0,0,0,404.6,193ZM410,130.5a1.62,1.62,0,0,1,3.23,0v10.11a1.62,1.62,0,0,1-3.23,0h0Zm10.21,32a1.63,1.63,0,0,1,1.57.72,1.58,1.58,0,0,1,0,1.7c-.24.41-6,9.84-15.88,10.08h0a1.57,1.57,0,0,1-1.61-1.53v0h0a1.61,1.61,0,0,1,1.57-1.64,15.74,15.74,0,0,0,10.9-5.56l-22,3a1.59,1.59,0,0,1-1.93-1.17v0a1.61,1.61,0,0,1,1.19-1.93h.31Zm-33.94-34.42a1.61,1.61,0,0,1,3.22,0V139a1.61,1.61,0,1,1-3.22,0Zm10.9,8.72a1.61,1.61,0,1,1,2.64,1.86h0a1.55,1.55,0,0,1-.3.33,50.25,50.25,0,0,0-10.17,13.53,12.71,12.71,0,0,0,5.89,3.38,1.67,1.67,0,0,1-.94,3.17,15.49,15.49,0,0,1-7.87-5.07c-1.27-2.51,2.32-8.28,10.79-17.23Z"/><path id="パス_203" data-name="パス 203" class="cls-2" d="M208.31,318.79c-6.13,0-11.1,7.15-11.1,15.94s5,16,11.1,16,11.08-7.16,11.08-16S214.5,318.79,208.31,318.79Z"/><path id="パス_204" data-name="パス 204" class="cls-2" d="M260.27,428.27l15.86,9.14v-6h0l-14.86-8.55-2.86-1.64L150,358.86h0v6l107.24,61.67Z"/><path id="パス_205" data-name="パス 205" class="cls-2" d="M278.25,311.82l1.7-.74-2.18-1.26-.29-.15-3.79-2.18-84.87-48.8-1.72-1-10.28-5.92L163,243.83l-9-5.14-1.55.69-.57.24,6.29,3.62,2.46,1.42,3.71,2.14L183,257.46l1.57.92L255,298.89l16.34,9.4,3.68,2.12,2.79,1.61Z"/><path id="パス_207" data-name="パス 207" class="cls-7" d="M373.75,567.17a1.48,1.48,0,0,0-.11-.66c-.13-.85-.29-1.7-.42-2.57s-.34-2.18-.52-3.21q-.81-5.15-1.7-10.52c-.15-.91-.33-1.83-.48-2.76V547c-.94-5.58-1.93-11.22-3-16.84a5.56,5.56,0,0,0-.24-1.16c-.2-1-.41-2.18-.61-3.14-1.42-7-3-13.79-4.73-20.07-.13-.52-.29-1-.44-1.53-.24-.85-.48-1.7-.74-2.51l-.2-.65c-.33-1.07-.65-2.18-1-3.14A98.42,98.42,0,0,0,355,486.54l-3.14.7-10.65,2.32-4.16.91-1.09.24-4.93,1.07-3.25.72-7,1.5-4.93,1.09c2.18,5,4.77,10.19,7.5,15.6,1.77,3.54,3.62,7.11,5.52,10.76.54,1.09,1.13,2.18,1.7,3.29,5.26,10.12,10.56,20.35,15.14,30.28.13.33.28.65.44,1s.61,1.33.89,2c2.05,4.59,3.95,9.1,5.56,13.51.27.72.51,1.42.78,2.18a3.67,3.67,0,0,0,.3.92c4.36,12.59,6.37,24,4.12,33.5,1,.13,2.19.29,3.8.42a46.59,46.59,0,0,0,14-.68,7,7,0,0,0,6.15-5.78,8.53,8.53,0,0,0,0-1.75C378.78,596.33,376.67,585.42,373.75,567.17Z"/><path id="パス_208" data-name="パス 208" class="cls-7" d="M490.72,373.93l35.92,22.28c13.64-42,29.83-98.52,19.77-118.5-8.25-16.34-32.72-27.29-55.41-34.18a25.33,25.33,0,0,1-1.9,2.35,29.1,29.1,0,0,1,5,11.85c1.68,10.9-2.84,32-8.73,51.85C485.86,317.11,487.86,348.37,490.72,373.93Z"/><path id="パス_209" data-name="パス 209" class="cls-7" d="M394.89,506.39a90.12,90.12,0,0,0,12.37,1.22c2.82,0,5.46-.21,7.38-.38l2.42-.24h1.33c1.49-.2,3-.39,4.36-.64A186.94,186.94,0,0,0,456,497.43c1.33-.46,2.62-.94,3.87-1.42l3.27-1.22.72-.28c4-1.6,7.55-3.1,10.52-4.37,21.53-9.62,34-18.56,34.59-20.63a100.46,100.46,0,0,0,.35-15.12,338.75,338.75,0,0,1-57.48,28.68c-5.32,2-10.73,3.78-16.14,5.26a115.18,115.18,0,0,1-25.94,4.36h-1.37a195.84,195.84,0,0,1-43.87-8L358,486.1a113.89,113.89,0,0,1,5,13.09,271.44,271.44,0,0,0,31.85,7.18Z"/><path id="パス_210" data-name="パス 210" class="cls-7" d="M409.72,489.18c21.82-.81,47.88-11.45,65.95-20.25,11.32-5.49,21-10.9,27.16-14.66l-22.78,5a26.6,26.6,0,0,1-6.54,6.55c-11.26,7.65-44.67,9.55-74.17,11.25h-1.16l-26.59,5.81A154.22,154.22,0,0,0,409.72,489.18Z"/><path id="パス_211" data-name="パス 211" class="cls-7" d="M474.92,460.36l-56.19,12.26c22.49-1.55,44.83-4,52.94-9.49A20.51,20.51,0,0,0,474.92,460.36Z"/><path id="パス_212" data-name="パス 212" class="cls-7" d="M515.54,527.64c-2.44-.75-18.59.82-32.72,2.18-32.85,3.2-54.69,5-58.78,1.48a1.6,1.6,0,0,1-.15-2.27v0a1.68,1.68,0,0,1,2.33-.13,1.36,1.36,0,0,0,.38.24v-.21c0-5.09,6.41-11.92,15.27-19.73l1.44-1.24a1.64,1.64,0,0,1,.57-.51c1.24-1.06,2.53-2.18,3.84-3.22l1.53-1.27a174.89,174.89,0,0,1-29.69,6.87h0V540c0,.28-1.44,6.87-13.33,6.87-13.09,0-13.35-6.87-13.35-7.15V523.21c-4.64-1-13.68-6.55-27.05-15,1.66,6.28,3.12,13,4.36,19.81,8.45,5.32,13.42,9.62,13.66,13.08a7.23,7.23,0,0,0,1.2-.85,1.62,1.62,0,0,1,2.18.11h0a1.64,1.64,0,0,1-.13,2.18,50.33,50.33,0,0,1-13.27,6.24c.64,3.75,1.22,7.48,1.81,11.08.15.89.28,1.79.44,2.68,11.45-3.84,19-5.56,21.62-4.36,4.36,2,8.53,13.54,15.08,32.24a269.83,269.83,0,0,0,13.46,33.81,1.77,1.77,0,0,1,.15.31c.78,1.42,1.55,2.66,2.29,3.75a11.16,11.16,0,0,0,4.37,4.17,20.08,20.08,0,0,0,17.23,0,13.8,13.8,0,0,0,4.56-4.17c.34-.48.66-1,1-1.5s.57-1.12.8-1.68a19.68,19.68,0,0,0,1.1-3.73c.17-2.18-7.16-15.12-13.64-26.44-15.62-27.34-25.56-45.66-21.62-50.94a1.58,1.58,0,0,1,2.22-.08,1.55,1.55,0,0,1,.29,1.93c-.17.2-.38.74-.26,2a23.49,23.49,0,0,1,4.95-2.81c4.64-2.19,28.19-1.94,61-1.44l11.78.15c9.38.11,18.18.15,23.39,0a34.27,34.27,0,0,0,3.92-.28A79.93,79.93,0,0,0,515.54,527.64Z"/><path id="パス_213" data-name="パス 213" class="cls-7" d="M299,498.73l-30,6.55c3.44,24,5.1,46.46-1.27,61.25a9,9,0,0,0,.53,1.51,10.67,10.67,0,0,0,9.55,7,16.77,16.77,0,0,0,11.67-3.71c.46-.39.81-.74,1.09-1-1.46-5.48.44-18.41,3.82-39.88C296,520.39,297.68,509.46,299,498.73Z"/><path id="パス_215" data-name="パス 215" class="cls-7" d="M339.39,560.25c-16.82,5.19-37.76,11.65-39.57,14a31.65,31.65,0,0,0-2.95,5.31,24.5,24.5,0,0,1,0,10.44,13.9,13.9,0,0,1-.82,2.51c4.77-1.31,13.63-4.58,23.34-8.29,4.58-1.74,9.36-3.6,14-5.39l16.19-6.26c-1.64-4.36-3.54-9-5.63-13.68Z"/><path id="パス_217" data-name="パス 217" class="cls-7" d="M556.29,277.91c-9-17.94-37.85-31.42-62.08-40a24.48,24.48,0,0,1-1.4,2.75c30.24,9.36,49.24,21.32,56.42,35.58,10.73,21.29-5.55,77.92-19.81,121.7l5.93,3.67C549.62,358.05,566.87,298.89,556.29,277.91Z"/><path id="パス_218" data-name="パス 218" class="cls-7" d="M516.18,467.58c1.48-1.46,1.74-3.4,2.52-10.58.18-1.68.39-3.6.66-5.85a2.09,2.09,0,0,1,0-.5l-6.83,1.49c0,3.4,0,14.33-.39,17.45A12.44,12.44,0,0,0,516.18,467.58Z"/><path id="パス_222" data-name="パス 222" class="cls-8" d="M317.44,399.17l-20.35-12.43L294.28,385l-.29-.17-4.12-2.53-4.78-2.92v34.33l26.09-10.56,7.7-3.12Z"/><path id="パス_227" data-name="パス 227" d="M559.17,416.42l-21-13.09c14.55-44.26,32.17-104.71,21-126.94-9.58-19-39.14-33-63.85-41.64a10.57,10.57,0,0,0,.3-3.41c-.59-4.55-6-8.07-10.9-11.19a37.86,37.86,0,0,1-5.24-3.75c-1.25-1.16-1.25-2.42-1.13-5.1a23,23,0,0,0-2.56-12.9c-4.25-8.31-19.89-11.25-26.63-12.15a49.37,49.37,0,0,0,15.47-20.11,4.93,4.93,0,0,0,1.07-.61c5-3.36,18.63-18.18,21-33.16,4.64-29.21-10.51-56.46-35.25-63.26-10.16-2.83-41.1-11.47-66.52,19.37a29.43,29.43,0,0,0-2.61,4.17,20.38,20.38,0,0,1-1.12,2.18,34.88,34.88,0,0,1-2.75,6.41h0a85.34,85.34,0,0,0-2.88,12.24h0a10.66,10.66,0,0,1-.2,1.24,28.94,28.94,0,0,1-.38,4.36h0a27.74,27.74,0,0,0-.2,6h0a1.6,1.6,0,0,0,1.57,1.29h2.73a130,130,0,0,0-1.27,36.94,42,42,0,0,0,22.43,31.32,18.6,18.6,0,0,0-3.48,5.39,12.19,12.19,0,0,1-1.46,2.55,11.75,11.75,0,0,1-2.51.33,19.65,19.65,0,0,0-9.56,2.75c-4.36,2.53-4,6.91-2.92,11.21-6.54,5.42-17.45,25-28.36,44-3.71,6.54-7.87,14-11.43,19.94L310.72,262.3c-1.85,1-3.75,1.94-5.67,2.8l32.72,20.26a23.79,23.79,0,0,1-4.93,6.35c-4.08,1-39.27,9.7-55,14.33l-84.53-48.45a.86.86,0,0,0,.15-.22,33.22,33.22,0,0,1-3.23-2.18h0l-35-20a1.57,1.57,0,0,0-1.46,0h0a39.71,39.71,0,0,1-5.32,2.4l-.64.28h-.13l-.15.13-.15.17v.15a.41.41,0,0,0,0,.22v4.78h0c0,.59.13,1.16.15,1.79a30,30,0,0,1,0,3.79v10.54a.67.67,0,0,0,0-.2c0,.52.13,1.05.15,1.57a31.87,31.87,0,0,1-.24,5.17,26.21,26.21,0,0,1-.26,3.19h0v96.59a1.59,1.59,0,0,0,.8,1.4L257.18,430l3.09,1.79,17,9.75.24.1h1.09l7.64-3,3.55-1.38,89.66-34.9a1.59,1.59,0,0,0,1-1.5v-9.06a2.5,2.5,0,0,0-.15-.38l-.19-.24H380l-.22-.48-15.4-7.94,13.09,1.22,4.89.46,3.27.3c26.18,2.4,55.47,4.67,64.76,0,4.37-2.18,9.71-10.12,14.91-20.61l23.14,14.36,3.51,2.18,33.42,20.72,2.82,1.77,6,3.67,2.81,1.74L556.83,421c.34.19.3.35.3.38a1.13,1.13,0,0,1-.85.55l-26,5.5-3.67.8L519,429.88l-3.67.81-25.94,5.72-2.18.45-1.13-.52-.2.83-4,.85L333,470.51l-5.87,1.26-18.32,4-2.83.62h-.31l-1.37.3-3,.63H301L265.82,485l-3.16.69L114.73,518v5.67l149-32.49,3.16-.67,33.93-7.4,3.27-.72,3.2-.69,1.07-.24,2.18-.46,3-.63,23-5,6.15-1.33,141.8-30.87,3.62-.77,2.18-.48,5.19-1.14,17.91-3.9,3.64-.78,7.61-1.65,3.67-.81,28.75-6.26.11,8.72a2.43,2.43,0,0,1-.33,1l-.39.13h-.38L524.76,444l-3.62.77-7.37,1.62-3.54.77-1.48.33-4.69,1L484,452.85l-4.13.89-96,20.94-23.32,5.08-4.89,1.07-1.77.39-1.54.35-24.41,5.34-5.72,1.25L313.64,490l-3.19.7L303,492.34l-3.32.72L268.29,500l-3.17.7L114.6,533.55c0,1.83,0,3.68-.13,5.52L266,506c3.71,26,5.35,51.39-3.94,64.54-4.67,6.55-14.92,9.6-24,12.22-9.67,2.79-18.85,5.42-20.66,12.3a10.91,10.91,0,0,0,1.57,9.51c5.72,7.92,21.81,9,22.49,9H242a28.35,28.35,0,0,0,12.5-5.56c6-3.66,12.67-7.8,18.3-6.89,12,1.94,18-1.42,21-4.82a10.61,10.61,0,0,0,1.37-.24,19.16,19.16,0,0,0,12.94,7.07c7.34,0,13.3-7.24,13.39-16.19l13.09-5c4.95-1.94,10.44-4.08,16.07-6.22,4.36,12.72,6.35,24.3,3.62,33.18-2.38,7.73-11.21,13.74-19,19-8.33,5.67-16.24,11-15.82,18.12a10.74,10.74,0,0,0,4.37,8.56A20.86,20.86,0,0,0,336,657.72a50.77,50.77,0,0,0,12-1.53c3.55-.83,6.87-4.76,10.73-9.31,4.52-5.33,9.62-11.35,15.27-12.24,12.67-2,17.17-7.48,18.72-11.76,2.44-6.76-.55-15.62-8.21-24.3-2.66-3-5.12-16.78-7.68-32.42,10.06-3.4,17.82-5.51,19.64-4.64,3.27,1.51,8.72,16.85,13.37,30.39A255.54,255.54,0,0,0,423.44,626c.17,10.91,6.83,22.43,19.06,22.43,10.73,0,16.32-6.87,16.61-20.37a20.72,20.72,0,0,0,1.87-5.63c.55-2.81-3.62-10.49-14-28.62-5.65-9.88-12.2-21.07-16.56-30.21a85.06,85.06,0,0,1-4.76-11.37l.31-.1a1.68,1.68,0,0,0,.77-1.07,15.71,15.71,0,0,1,4.37-2.46c4.36-2,36.25-1.51,59.55-1.16l10.44.13c.46,8.55,6.27,15.27,13.38,15.27s13-6.85,13.37-15.47c3.48-.24,4.36-.65,4.82-1.29,1.16-1.63.68-4.19-5.6-11.3-3.43-3.87-7.64-8-9.54-9.67s-8.61-1-35.16,1.55c-16.89,1.64-43.44,4.23-53,3.16a1.48,1.48,0,0,0,.26-.87c0-4.08,7.14-11.15,14.61-17.65a10.09,10.09,0,0,0,7.62,2.62,9.91,9.91,0,0,0,7.7-2.88,18.8,18.8,0,0,0,3.64-13.09c5-1.93,9.49-3.86,13.09-5.47,11.37-5.11,27.42-13.51,33.46-19.29a1.34,1.34,0,0,0,.78.22H511a21.23,21.23,0,0,0,7.42-3.48c2.38-2.32,2.66-5.1,3.48-12.52.18-1.66.39-3.58.66-5.83a10,10,0,0,1,.32-1.61l20.38-4.36V760a2.71,2.71,0,0,0,2.68,2.71h13.24a2.73,2.73,0,0,0,2.71-2.71V439.62a2.55,2.55,0,0,0-.24-1.09,9,9,0,0,0,.39-1.46.92.92,0,0,1,0-.33v-.33a19.38,19.38,0,0,0,0-2.64l.13-10.17a2.65,2.65,0,0,0-.35-1.26A5.66,5.66,0,0,0,559.17,416.42ZM378.11,123a65,65,0,0,1,.9-8.57,78.55,78.55,0,0,1,3.7-15.27h.2a31.79,31.79,0,0,1,4.73-8.72c24.11-29.21,53.52-21,63.27-18.31,23.12,6.55,37.28,32.16,32.92,59.75-1.94,12-11.81,24-17.17,29a15.31,15.31,0,0,1-1.22,1.07,47,47,0,0,1,2-4.64c.28-.59.61-1.23.94-1.81a41.51,41.51,0,0,0,3.9-6.7c.81-1.57,1.79-3.51,3-5.89l.94-1.88.68-1.35a8.5,8.5,0,0,0,.13-5.48,17.29,17.29,0,0,0-2.86-6.22,11.28,11.28,0,0,0-3.62-3.18,13.82,13.82,0,0,0-1.59-.68,12.47,12.47,0,0,0-3.74-.26h-.28c-6.54,1.42-8.59,10-9.23,14.16a206.12,206.12,0,0,0-27.35-8.73,35.36,35.36,0,0,1-6.28-11.84,1.62,1.62,0,0,0-3.13.56V126l-17.29-2.88a52.22,52.22,0,0,1-4.37-11.91,1.64,1.64,0,0,0-1.7-1.16,1.61,1.61,0,0,0-1.46,1.46L393.06,123ZM381,162.9a117.21,117.21,0,0,1,.65-31.91c.22-1.53.46-3,.72-4.52h11.93a1.59,1.59,0,0,0,1.59-1.48l.46-4.91c2.18,5.69,3.36,6.13,3.87,6.3h.26l19.63,3.25a1.6,1.6,0,0,0,1.86-1.28h0a1.5,1.5,0,0,0,0-.3v-1.9c1.85,3.66,3.94,6.54,5.95,6.54A213.58,213.58,0,0,1,456.25,142a1.52,1.52,0,0,0,2.26-1.28,20.56,20.56,0,0,1,.46-3.32c.13-.59.28-1.2.43-1.83a1.77,1.77,0,0,0,.64-.72,19.91,19.91,0,0,1,5.82-7.62,5.16,5.16,0,0,1,1.36,0,5.75,5.75,0,0,1,1.67.55,7.78,7.78,0,0,1,1.57,1.16,9,9,0,0,1,1,1.09,14,14,0,0,1,2.18,4.64,20.59,20.59,0,0,1-1.48,7c-.81,1.64-1.85,3.71-2.86,5.68l-.3.48a27.8,27.8,0,0,1-2.08,2.77,20.59,20.59,0,0,1-2,2.18,6.56,6.56,0,0,1-3.58,2h-.11a1.61,1.61,0,0,0,.22,3.21,5.94,5.94,0,0,0,2.18-.55,13,13,0,0,0-2,7.64A49.13,49.13,0,0,1,440,188.42a53.69,53.69,0,0,1-13.09,5.42l-1.22.3a35.46,35.46,0,0,1-7.53,1A38.62,38.62,0,0,1,404.51,193c-10.73-3.86-20.7-13.11-23.53-30.1Zm63.92,47a13,13,0,0,0,3,4.37,158.52,158.52,0,0,1-11.06,11.54c-9.82,9.18-17.7,13.46-22.14,12a5.39,5.39,0,0,1-3.34-3.06c-2.36-5-.64-14.05,1.31-20.91a15.34,15.34,0,0,0,7.94-3.06,22.86,22.86,0,0,0,7.92-14,58.16,58.16,0,0,0,15.26-6.74A40.36,40.36,0,0,0,444.9,210Zm-59.95-1.43a16.67,16.67,0,0,1,8.16-2.32,16,16,0,0,0,3.3-.46c1.48-.44,2.29-2.18,3.33-4.21s2.49-5.08,4.37-5.26a40.65,40.65,0,0,0,13.35,2.18h.91a39.78,39.78,0,0,0,6.79-.77,20.76,20.76,0,0,1-6.68,10.91,10.64,10.64,0,0,1-4.8,2c1.07-3.34,2-5.63,2-5.7a1.62,1.62,0,0,0-3-1.3l0,.1c-.13.33-1.31,3.3-2.55,7.44-.31,1.05-.64,2.18-.94,3.34-1.9,7.2-3.38,16.34-.78,21.81a8.66,8.66,0,0,0,8.08,5.18c5.62,0,13.08-4.37,22.55-13.09,4.49-4.21,8.51-8.6,11.17-11.65.85-1,1.57-1.79,2.18-2.44l1.26-1.53a1.56,1.56,0,0,0-.52-2.16,1.58,1.58,0,0,0-1.92.22l-1.07,1.31a9.72,9.72,0,0,1-2.18-3,39.44,39.44,0,0,1-.59-19.63c6.94.57,22.08,3.55,25.61,10.44h0a20,20,0,0,1,2.18,11.28,8.64,8.64,0,0,0,2.19,7.59,39.24,39.24,0,0,0,5.71,4.12c4,2.6,9,5.83,9.38,8.9a5.71,5.71,0,0,1-.13,1.93,12.7,12.7,0,0,1-.64,2l-.47,1.13a27.72,27.72,0,0,1-1.55,2.83c-.35.55-.7,1.1-1.09,1.62l-.9,1.2c-.3.38-.38.45-.56.69a24,24,0,0,1-2.19,2.32,9.27,9.27,0,0,1-4.6,2.58c-6.26.83-60.56.45-66.25-3.34L410,242.19c-7.46-4.77-23-14.69-24.32-19.17-.26-.92-.59-1.88-.91-2.84s-.42-1.24-.59-1.83a29.36,29.36,0,0,1-.9-3.16c-.69-3.12-.47-5.39,1.68-6.68ZM276.11,437.57l-15.79-9.19-3-1.83L150.11,364.88v-6l108.4,62.45,2.85,1.64,14.86,8.55Zm0-9.84-13.79-7.92-2.81-1.61L150,355.2v-113L161.8,249l4,2.32,14.33,8.25,96,55.19Zm2.18-115.86-.41.17-2.79-1.57-3.69-2.18L255.16,299,184.7,258.45l-1.57-.92-18.8-10.73-3.71-2.18-2.47-1.42-6.22-3.62.57-.24,1.55-.7,9,5.15,13.81,7.94,10.28,5.91,1.72,1,84.86,48.8,3.8,2.18.28.15,2.18,1.27Zm99.83,88.72L289.79,435l-4,1.55-6.94,2.71.46-1.4V314.88l2.51-1.13V428.61a1.48,1.48,0,0,0,1.16.55,1.8,1.8,0,0,0,.56-.11l10.13-3.8,13.65-5.14,37.74-14.18,17.45-6.55,4.36-1.61,4.64-1.74,6.68-2.53Zm-1.29-90.77,3.16,2,47.84,29.64a35.19,35.19,0,0,1-5.28,7.83c-2,1.14-15.85,2-41.31,2.51h-3.12q-10.61.21-23.72.35H349a128.19,128.19,0,0,1-18.21-2.18,100.47,100.47,0,0,0-21.25-2.05,58.7,58.7,0,0,0-9.56,1.85l-15-7.63v-9.75c5.76-1.09,16.61-2.68,26.46-4.15,18.68-2.72,39.84-5.84,46.23-8a34.29,34.29,0,0,0,14.75-13.29Zm-1.51-7.26c.7-1.18,1.33-2.27,1.9-3.27,0,1.54-.11,3-.17,4.36Zm-79.67,48.82A31.12,31.12,0,0,0,285,357.92V346Zm2.29,2.53,1.61-.55,2.36-.65,2.35-.55c1.75-.34,3.61-.65,5.59-.87a101.35,101.35,0,0,1,20.4,2,135.87,135.87,0,0,0,18.32,2.18,24.81,24.81,0,0,1,11.91,23.8l-4.16-.33-3.54-.24c-1.57,0-3-.17-4.36-.19H342.7a168.23,168.23,0,0,0-16.82,2.85c-2.92.59-5.74,1.16-8.22,1.6-1.38.24-2.66.43-3.8.58h-.8a41.12,41.12,0,0,1-14.55.2l-1.64-1a79.29,79.29,0,0,1,16.24-6.54,65.22,65.22,0,0,1,11.54-2.65,1.61,1.61,0,1,0,0-3.22h-.21a76.18,76.18,0,0,0-13.09,3.09,54.88,54.88,0,0,0-17.23,7.66l-1.33-.83a2.26,2.26,0,0,1,0-.52c.21-2.08,7.41-7.55,15.51-10.78a29.58,29.58,0,0,1,12.23-2.45,1.61,1.61,0,0,0,1.73-1.48h0a1.63,1.63,0,0,0-1.49-1.66H319a37.66,37.66,0,0,0-12.54,3c-.86.35-1.71.7-2.56,1.09a73,73,0,0,0-8.57,2.36c-4.21,1.35-8.55,2.75-10.21,1.7V369a26.4,26.4,0,0,1,5.45-3.48,60,60,0,0,1,12.24-4.53,38.76,38.76,0,0,1,8.89-1.33,20.66,20.66,0,0,1,4.37.32,16.31,16.31,0,0,1,1.67.42,1.59,1.59,0,0,0,1.66-.39,1.24,1.24,0,0,0,.39-.61,1.61,1.61,0,0,0-.78-2.14l-.09,0h-.14a20.67,20.67,0,0,0-6.3-.92,28.93,28.93,0,0,0-3.09.16,17.59,17.59,0,0,0-3,.38c-1.84.29-3.69.72-5.54,1.2a58.63,58.63,0,0,0-15.78,6.81v-1.55A21.9,21.9,0,0,1,298,353.91Zm-4.23,19.63a13.19,13.19,0,0,0-4,4.91L285,375.57v-.74a6.74,6.74,0,0,0,1.79.15h0a25.29,25.29,0,0,0,6.94-1.37Zm-4,8.73,4.14,2.53.29.17L297,386.7l20.36,12.43,1.44.87-7.7,3.19L284.9,413.75V379.39Zm84.79,9.53-12.24,4.64L353,400l-8,3-38.48,14.47-21.4,8v-8.35l37.74-15.27H323a1.59,1.59,0,0,0,1-1.35,1.69,1.69,0,0,0-.78-1.53l-.5-.3-18-11a79.55,79.55,0,0,0,8.72-.78l.83-.1c3.3-.44,7.64-1.31,12.24-2.19h.33A160.34,160.34,0,0,1,343,381.86a72.91,72.91,0,0,1,9.23.13h3.25Zm-.65-11.41-10.15-.94a30.14,30.14,0,0,0-6.3-20.83h0a28.76,28.76,0,0,0-3.32-3.21h.24l11.78-.15a30.24,30.24,0,0,1,7.74,25.2Zm90.59-22.64-1.59,3.38-.74,1.5c-5.28,10.69-10.08,17.74-13.57,19.42-8.58,4.19-38.7,1.83-63.66-.48l-3.27-.31-4.36-.41a33.73,33.73,0,0,0-6.83-25.74l8-.13h3.23c27.59-.59,40.42-1.51,42.76-3a35.43,35.43,0,0,0,6.26-8.9c.26-.48.57-1,.85-1.48.57-1,1.16-2.18,1.77-3.21,9.7-17.87,23.2-48.52,23.2-63.06a1.62,1.62,0,1,0-3.23,0c0,14.48-13.48,44.35-22.66,61.38l-50.18-31.15c.61-16.16,2.45-57.09,2.46-57.55a1.61,1.61,0,0,0-3.18-.47,1.71,1.71,0,0,0,0,.32c0,.35-1.16,25.55-1.94,44.24a1.5,1.5,0,0,0-.56.66,84.34,84.34,0,0,1-4.37,8c-.58,1-1.24,2-1.93,3l-1,1.51a31.35,31.35,0,0,1-13.09,11.93c-6.11,2.18-27.11,5.17-45.63,7.9-12.7,1.85-21,3.12-26,4V311.35a2.29,2.29,0,0,0,0-.64,1.8,1.8,0,0,0-.67-.7l-2.47-1.41c15.86-4.37,45.62-12,51.86-13.42,1.54-.39,3.66-2.79,6.89-7.81.33-.48.65-1,1-1.55.57-.94,1.2-1.93,1.83-3,3-5,6.74-11.61,11.52-20.07,9.12-16.21,20.26-36,26.46-42.19a3,3,0,0,0,.28.83l.89,2.77c1.55,5.17,13.54,13.08,25.66,21l4,2.55c5,3.36,33.83,4.19,52.55,4.19,8.27,0,14.57-.17,15.92-.35a12.2,12.2,0,0,0,6.07-3.16c.38.61.74,1.2,1.09,1.79a23.9,23.9,0,0,1,3.09,8.25c1.33,8.57-1.77,26.83-7.92,48.36l-.77,2.68c-1.68,5.69-3.56,11.6-5.63,17.6-4.14,11.68-8.31,22.15-12.3,30.78ZM467,359.3a330.68,330.68,0,0,0,12.61-31.46h0c1.05-3,2.18-6.26,3.16-9.56.83,12.48,2.4,34.25,4.37,53.43Zm59.6,36.84-35.86-22.26c-2.8-25.57-4.78-56.83-5.24-64.36,5.8-19.81,10.32-41,8.73-51.85a29.29,29.29,0,0,0-5-11.85,25.33,25.33,0,0,0,1.9-2.35c22.43,6.89,47,17.84,55.25,34.18,10.06,20.05-6.13,76.58-19.76,118.56Zm8.72,5.41-5.93-3.66c14.27-43.78,30.55-100.35,19.81-121.7C542,261.92,523,250,492.77,240.61a26.24,26.24,0,0,0,1.39-2.75c24.24,8.55,53.05,22,62.09,40,10.62,21.05-6.51,80.13-20.89,123.8Zm-60.42,58.73a21.44,21.44,0,0,1-3.25,2.77c-8.12,5.49-30.55,7.94-52.95,9.49Zm-76.81,16.86h1.16c29.51-1.87,62.93-3.77,74.17-11.43v.11a26.6,26.6,0,0,0,6.54-6.55l22.77-5c-6.18,3.69-15.85,9.16-27.16,14.66-18.06,8.73-44.17,19.44-65.94,20.25A159.41,159.41,0,0,1,371.43,483ZM269,505.28h0l30-6.54c-1.33,10.73-3,21.66-4.6,31.76-3.38,21.47-5.28,34.42-3.82,39.88-.28.26-.64.61-1.09,1a16.79,16.79,0,0,1-11.67,3.71,10.66,10.66,0,0,1-9.56-7,9,9,0,0,1-.52-1.51c6.35-14.79,4.81-37.33,1.27-61.26Zm25.09,81.63h0a14.87,14.87,0,0,1-1.05,4.36,10.62,10.62,0,0,1-1.46,2.53,7.94,7.94,0,0,1-1.26,1.33c-3.48,3.12-9.34,4.1-17.13,2.84-6.8-1.09-14.07,3.38-20.5,7.35-4.36,2.72-8.55,5.28-11.16,5.06-.15,0-15.27-1-20.11-7.66a7.61,7.61,0,0,1-1.07-6.8c1.35-5.11,9.64-7.51,18.43-10,9.56-2.77,20.4-5.89,25.72-13.46.45-.63.87-1.29,1.26-2a13.82,13.82,0,0,0,11.89,7.89h1.11a19.59,19.59,0,0,0,13.09-4.71,41.93,41.93,0,0,1,1.7,5.7,25.47,25.47,0,0,1,.51,7.59Zm-.22-16.82h0c-1.79-4.14.88-21.11,3.71-39.11,1.64-10.47,3.41-21.82,4.76-33l10.23-2.18c4.19,9.47,9.56,19.81,15,30.55,5,9.71,10.3,19.83,14.88,29.78l-4.08,1.25c-27.12,8.38-39.27,12.35-41.25,15.27-.46.68-1,1.53-1.51,2.49a49.37,49.37,0,0,0-1.81-5Zm39.4,8.75v-.15c-4.6,1.79-9.38,3.65-14,5.39-9.7,3.71-18.56,7-23.34,8.29a14.76,14.76,0,0,0,.83-2.51,24.83,24.83,0,0,0,0-10.44,31.12,31.12,0,0,1,2.94-5.3c1.81-2.33,22.76-8.73,39.58-14l4.36-1.37c2.18,4.64,4,9.23,5.62,13.68q-7.47,3.09-16.05,6.47Zm51.36,25v-.15c5,6.54,6.8,13.09,5.06,17.93s-7.4,8.29-16.19,9.67c-6.83,1.07-12.35,7.59-17.21,13.35-3.34,3.95-6.54,7.66-9,8.27-.15,0-14.86,3.79-21.51-1.05a7.57,7.57,0,0,1-3.12-6.13c-.31-5.28,6.83-10.12,14.4-15.27s16.6-11.27,19.8-19.43a66.81,66.81,0,0,0,9.89.77,41.83,41.83,0,0,0,9.59-1,10.37,10.37,0,0,0,8.32-7Zm-2.93-3.62a7.23,7.23,0,0,1,0,1.74,7,7,0,0,1-6.15,5.79,46.26,46.26,0,0,1-14,.67c-1.52-.13-2.83-.28-3.79-.41,2.18-9.43.22-20.92-4.12-33.51a3.62,3.62,0,0,0-.31-.91c-.26-.7-.5-1.4-.77-2.19-1.61-4.36-3.51-8.92-5.56-13.5-.28-.65-.59-1.33-.9-2s-.3-.66-.43-1c-4.59-9.92-9.88-20.15-15.14-30.27-.57-1.12-1.16-2.19-1.71-3.3-1.89-3.64-3.75-7.22-5.51-10.75-2.73-5.42-5.28-10.65-7.51-15.6l4.93-1.09,7-1.51,3.24-.72,4.94-1.06,1.09-.24,4.16-.92,10.65-2.32,3.14-.7a98,98,0,0,1,4.51,11.41c.35,1,.68,2.18,1,3.14l.19.65c.27.81.51,1.66.75,2.51.15.51.3,1,.43,1.53,1.75,6.28,3.32,13.09,4.74,20.07.19,1.05.41,2.18.61,3.14a5.83,5.83,0,0,0,.24,1.16c1.07,5.61,2.18,11.26,3,16.84v.46c.15.94.33,1.85.48,2.77.58,3.57,1.16,7.08,1.7,10.51.17,1.09.35,2.18.52,3.21s.28,1.72.41,2.57a1.48,1.48,0,0,0,.11.66c3,18.3,5.11,29.21,8,33.07Zm-17.45-97.46a282.21,282.21,0,0,0,28.58,6.42v10.91c-4.91-1.46-17.63-9.58-28.06-16.24l-.26-.18Zm6.91,29.84c5.68,3.75,9.67,7.09,9.6,9.1a1.49,1.49,0,0,0,.44,1.16c-2,.94-4.64,2-7.68,3.09-.83-4.51-1.61-9-2.45-13.41Zm76.58-28.36-3.84,3.23a1.56,1.56,0,0,0-.57.51l-1.44,1.24C433,517.1,426.65,523.93,426.65,529v.22a1.58,1.58,0,0,1-.39-.24,1.66,1.66,0,0,0-2.32.13,1.62,1.62,0,0,0,.12,2.28h0c4.08,3.56,25.92,1.73,58.79-1.48,14.24-1.4,30.38-3,32.83-2.18A78,78,0,0,1,530,544.07a34.45,34.45,0,0,1-3.93.28c-5.21.17-14,.13-23.38,0l-11.78-.15c-32.73-.48-56.33-.66-61,1.44a23.49,23.49,0,0,0-4.95,2.81c-.13-1.31,0-1.85.26-2.05a1.57,1.57,0,1,0-2.3-2.14,1.54,1.54,0,0,0-.21.29c-3.95,5.28,6,23.59,21.62,50.94,6.54,11.32,13.81,24.14,13.63,26.44a19.65,19.65,0,0,1-1.09,3.73c-.24.57-.52,1.13-.81,1.68a15.86,15.86,0,0,1-1,1.5,13.55,13.55,0,0,1-4.53,4.15,20.22,20.22,0,0,1-17.23,0,11.07,11.07,0,0,1-4.36-4.17c-.74-1.09-1.51-2.32-2.29-3.75a1.08,1.08,0,0,0-.16-.3A270.52,270.52,0,0,1,413.13,591c-6.55-18.71-10.78-30.27-15.09-32.24-2.66-1.22-10.16.5-21.61,4.36-.16-.89-.29-1.79-.44-2.68-.59-3.6-1.16-7.35-1.81-11.08a50.75,50.75,0,0,0,13.26-6.24,1.57,1.57,0,1,0-2.14-2.3h0a8.17,8.17,0,0,1-1.2.85c-.24-3.55-5.22-7.85-13.66-13.08-1.33-6.83-2.79-13.54-4.36-19.81,13.37,8.51,22.4,14,27.05,15v16.42c0,.28.15,7.16,13.35,7.16,11.89,0,13.26-6.55,13.32-6.88V509.92a174.24,174.24,0,0,0,29.56-7ZM396.15,539.9h0V510.1a88.15,88.15,0,0,0,10.1,1.37,78.44,78.44,0,0,0,10.15-1.16v29.28c-.24.7-1.83,4.14-10.12,4.14-7.88,0-10.1-2.55-10.21-3.86ZM509,469.33c-.64,2.18-13.09,11-34.6,20.63-3,1.33-6.54,2.84-10.51,4.36l-.72.29L460,495.83c-1.25.48-2.53,1-3.87,1.42a186.94,186.94,0,0,1-33.29,8.92l-4.36.63h-1.33l-2.42.24c-1.93.16-4.56.33-7.38.39a90.12,90.12,0,0,1-12.37-1.22A273.09,273.09,0,0,1,363.2,499a110.78,110.78,0,0,0-5-13.09l6.55-1.4a195.19,195.19,0,0,0,43.86,8H410a114.07,114.07,0,0,0,25.93-4.36c5.42-1.48,10.91-3.27,16.15-5.25a340.93,340.93,0,0,0,57.28-28.75c.1,5.43,0,13.05-.32,15.23Zm10.32-18.15h0c-.27,2.18-.48,4.16-.66,5.84-.77,7.18-1,9.12-2.53,10.58a12,12,0,0,1-3.92,2c.39-3.1.39-14,.39-17.45l6.82-1.49c0,.18,0,.36,0,.55Zm37.25,306.1h-8V444.94l8-1.93Z"/><path id="パス_232" data-name="パス 232" d="M411.51,142.22a1.61,1.61,0,0,0,1.61-1.61h0V130.5a1.62,1.62,0,0,0-3.23,0v10.11a1.61,1.61,0,0,0,1.61,1.61Z"/><path id="パス_233" data-name="パス 233" d="M387.88,140.69a1.61,1.61,0,0,0,1.62-1.61h0V128.17a1.62,1.62,0,0,0-3.23,0v10.91a1.61,1.61,0,0,0,1.61,1.61Z"/><path id="パス_234" data-name="パス 234" d="M394.73,159.06a1.61,1.61,0,0,0,.48-3.16,12.75,12.75,0,0,1-5.89-3.38A50.06,50.06,0,0,1,399.48,139a1.61,1.61,0,1,0-2-2.51,1.34,1.34,0,0,0-.3.33c-8.47,8.95-12.07,14.72-10.76,17.15a15.44,15.44,0,0,0,7.88,5.06A1,1,0,0,0,394.73,159.06Z"/><path id="パス_235" data-name="パス 235" d="M420.1,162.53l-26,3.55a1.62,1.62,0,0,0,.13,3.23h.31l22-3a15.77,15.77,0,0,1-10.91,5.57,1.61,1.61,0,0,0-1.57,1.63,1.57,1.57,0,0,0,1.57,1.57h.05c9.83-.24,15.64-9.67,15.88-10.08a1.62,1.62,0,0,0-1.47-2.47Z"/><path id="パス_236" data-name="パス 236" d="M208.32,315.58c-7.89,0-14.33,8.59-14.33,19.17s6.44,19.2,14.33,19.2,14.31-8.72,14.31-19.2S216.18,315.58,208.32,315.58Zm0,35.14c-6.13,0-11.1-7.15-11.1-16s5-15.94,11.1-15.94S219.4,326,219.4,334.75s-4.88,16.08-11.08,16.08Z"/></g></g></g></g></g></g></g><line id="線_2" data-name="線 2" class="cls-9" x1="90.3" y1="129.75" x2="338.88" y2="282.87"/></svg>