<svg xmlns="http://www.w3.org/2000/svg" width="30" height="30" viewBox="0 0 30 30">
  <g id="グループ_119" data-name="グループ 119" transform="translate(-660 -485)">
    <rect id="長方形_120" data-name="長方形 120" width="30" height="30" transform="translate(660 485)" fill="#1da1f2"/>
    <g id="レイヤー_2" data-name="レイヤー 2" transform="translate(669 494.635)">
      <g id="レイヤー_1" data-name="レイヤー 1">
        <path id="パス_6" data-name="パス 6" d="M7.723,5.71a2.524,2.524,0,0,0-1.774-.8A2.867,2.867,0,0,0,7.423,4.1a2.124,2.124,0,0,0,.46-1.44,2.581,2.581,0,0,0-.31-1.272,2.286,2.286,0,0,0-.9-.873,3.865,3.865,0,0,0-1.229-.4A18.1,18.1,0,0,0,2.923,0H0V10.66H3.012a19.594,19.594,0,0,0,2.618-.122,4.266,4.266,0,0,0,1.342-.418A2.465,2.465,0,0,0,8,9.117a3.057,3.057,0,0,0,.361-1.506A2.731,2.731,0,0,0,7.723,5.71ZM2.7,2.36h.624A2.929,2.929,0,0,1,4.781,2.6a.934.934,0,0,1,.371.845.866.866,0,0,1-.4.816A3.138,3.138,0,0,1,3.28,4.5H2.7ZM5.18,8.474a2.99,2.99,0,0,1-1.459.258H2.7V6.409h1.06a2.76,2.76,0,0,1,1.45.267,1.059,1.059,0,0,1,.394.938.875.875,0,0,1-.432.863Z" fill="#fff"/>
        <path id="パス_7" data-name="パス 7" d="M216.551,169.7a1.351,1.351,0,1,0,1.351,1.351h0A1.351,1.351,0,0,0,216.551,169.7Z" transform="translate(-205.103 -161.738)" fill="#fff"/>
        <rect id="長方形_134" data-name="長方形 134" width="2.346" height="7.109" transform="translate(10.276)" fill="#fff"/>
      </g>
    </g>
  </g>
</svg>
