<svg xmlns="http://www.w3.org/2000/svg" viewBox="0 0 499.7 84.56"><defs><style>.cls-1{fill:#ccc;}.cls-2{fill:#5DAC7D;}.cls-3{fill:#b3b3b3;}</style></defs><g id="レイヤー_2" data-name="レイヤー 2"><g id="レイヤー_1-2" data-name="レイヤー 1"><g id="レイヤー_2-2" data-name="レイヤー 2"><g id="レイヤー_1-2-2" data-name="レイヤー 1-2"><polygon class="cls-1" points="344.35 83.64 344.35 61.98 347.64 61.98 347.64 80.34 360.59 80.34 360.59 83.64 344.35 83.64"/><rect class="cls-1" x="439" y="71.16" width="10.01" height="3.06"/><polygon class="cls-1" points="432.76 83.52 432.76 61.86 449.01 61.86 449.01 65.16 436.06 65.16 436.06 80.23 449.01 80.23 449.01 83.52 432.76 83.52"/><path class="cls-1" d="M390.57,83.29l-3-5.77H376.76L378,74.7H386l-5.11-9.8a.47.47,0,0,0-.63-.2.41.41,0,0,0-.19.2L370.4,83.29h-4L377.3,62.92c.35-.62,1.42-2.59,3.19-2.59s2.84,1.74,3.18,2.36l10.93,20.6Z"/><path class="cls-1" d="M421.81,83.64a1.78,1.78,0,0,1-1.55-.61L403.8,67.23V83.52h-3.3V63.22h0a1.51,1.51,0,0,1,.37-1,1.72,1.72,0,0,1,1.28-.4,1.76,1.76,0,0,1,1.26.37l.07.07h0c.82.77,10.81,10.33,14.69,14l2,1.9V62h3.3v20.3a1.51,1.51,0,0,1-.37,1A1.72,1.72,0,0,1,421.81,83.64Z"/><path class="cls-1" d="M479.3,83.64a.88.88,0,0,1-.79-.31l-8.39-8v8.3h-1.68V73.23h0a.74.74,0,0,1,.18-.49.9.9,0,0,1,.65-.2.93.93,0,0,1,.65.19l0,0h0c.42.39,5.51,5.26,7.49,7.16l1,1V72.6h1.68V83a.75.75,0,0,1-.19.49A.88.88,0,0,1,479.3,83.64Z"/><path class="cls-1" d="M323.15,83.41a8,8,0,0,1-7-3.72c-1.65-2.46-1.64-11.76,0-14.23a8,8,0,0,1,7-3.72h12.72V64.8H323.15c-3.21,0-4,1.67-4.53,2.67l-.05.11c-.61,1.22-.61,8.79,0,10l.05.12c.5,1,1.32,2.66,4.53,2.66h12.72v3.06Z"/><path class="cls-1" d="M487.94,83.64a4.06,4.06,0,0,1-3.58-1.89c-.84-1.26-.84-6,0-7.25a4,4,0,0,1,3.58-1.9h6.48v1.56h-6.48a2.19,2.19,0,0,0-2.31,1.35l0,.06a14.1,14.1,0,0,0,0,5.1l0,.06a2.18,2.18,0,0,0,2.31,1.36h6.48v1.55Z"/><rect class="cls-1" x="462.61" y="72.6" width="1.68" height="11.04"/><circle class="cls-1" cx="498.92" cy="82.86" r="0.78"/></g></g><polygon class="cls-2" points="34.94 3 6.51 21.18 0 21.18 0 27.29 8.06 27.29 20.84 19.12 20.84 43.97 26.9 43.97 26.9 15.23 36.49 9.11 43.05 9.11 43.05 3 34.94 3"/><rect class="cls-2" x="53.05" y="6.96" width="19.55" height="6.11"/><polygon class="cls-2" points="85.69 3 85.69 27.22 74.82 37.86 51.84 37.86 51.84 43.97 77.33 43.97 91.8 29.66 91.8 3 85.69 3"/><polygon class="cls-2" points="141.56 20.7 141.56 3.96 112.75 3.96 105.16 15.13 101.36 15.13 101.36 21.25 108.1 21.25 115.84 10.12 135.45 10.12 135.45 20.7 112.86 20.7 112.86 26.56 135.45 26.56 135.45 26.82 127.01 37.86 107.06 37.86 107.06 43.97 129.93 43.97 141.56 28.9 141.56 26.56 144.99 26.56 144.99 20.7 141.56 20.7"/><rect class="cls-2" x="154.02" y="20.02" width="39.67" height="6.3"/><rect class="cls-2" x="200.54" y="6.96" width="19.55" height="6.11"/><polygon class="cls-2" points="233.18 3 233.18 27.22 222.31 37.86 199.33 37.86 199.33 43.97 224.82 43.97 239.29 29.66 239.29 3 233.18 3"/><polygon class="cls-2" points="292 0 286.32 0 286.32 22.63 281.29 22.63 281.29 28.16 292 28.16 292 0"/><path class="cls-2" d="M273.48,39.65V35.8h17.11V30.27H273.48V27.13h-3.92V17.81h3.77V12.33h-3.77V6.4h3.77V.82H247.78V6.4h3.87v5.93h-3.87v5.48H251l-2.4,9.38,5.64,1.26,2.56-10.64h7.06v10.3h3.77v2.16H250.54V35.8h17.11v3.85H247.78V45h45.57V39.65ZM263.88,6.4v5.93h-6.56V6.4Z"/><rect class="cls-2" x="274.62" y="0.82" width="5.58" height="20.86"/><path d="M338.82,12.75V7.58H303.91v5.17H300V4.05h19.29V1h4.07V4.05h19.24v8.7ZM316.14,33.83l-8.75,11.08-3.05-2.32,7-8.76H301.2V30.45h12.86l4.06-5H304.73V22.08h14.65V17.15H304.05V13.81h15.33V10.48h4v3.33h15.47v3.34H323.35v4.93h14.79v3.34H322.77l-4,5h22.87v3.38Zm19.73,11.08-8.46-8.56,2.9-2.28,8.41,8.42Z"/><path d="M350.72,44.71,350,41.18l2.08-.43V25h3.29V40l2.9-.63V19.76h-7.16V1.87h15.91V19.76h-5.27v6.82H367V30h-5.17v8.71l5.51-1.21L368,41ZM363.58,5.4h-8.95V16.47h8.95Zm26.6,30.13,2.61,8.6-3.58,1L386.79,37l-14.46,6.44-1.25-3.34,14.69-6.53-2-6.62H370.25V23.49h12.53l-1.6-5.42h-9.72V14.59h8.71l-1.65-5.42h-8.27V5.69h7.26l-1.31-4.4,3.43-.92,1.6,5.32h6.53L386.69,1l3.2-.58,1.16,5.27h2.85V9.17H382.29l1.6,5.42h8.7v3.48H385l1.65,5.42h7.3V27h-6.29l1.55,5.17,4.45-2,1.21,3.29Z"/><path d="M401.11,7.67V4.05H407v-3h3.53v3h5.65V7.67Zm1.25,8V12.31H415V15.7Zm0,8V20.44H415v3.24Zm0,20.4V28.42H415V44.08Zm9.58-12.37h-6.39V40.8h6.39Zm31,7.78v5.08H439.5V39.49H423v5.08h-3.43V39.49h-1.79V36.4h1.79V22.47h10.06V19.52h-11.8V16.43h5.46V12.94h-3.38V9.85h3.38V6.37h-4.55V3.27h4.55V1h3.48V3.27h9V1h3.48V3.27h4.69v3.1h-4.69V9.85h3.38v3.09h-3.38v3.49h5.46v3.09H432.83v2.95H443V36.4h1.69v3.09Zm-13.34-14H423v3.91h6.63Zm0,7H423V36.4h6.63Zm6.09-26.11h-9V9.85h9Zm0,6.57h-9v3.49h9Zm3.77,12.58h-6.67v3.91h6.67Zm0,7h-6.67V36.4h6.67Z"/><path d="M457.78,7.53v17.6l-2.66,19.39-3.58-.58,2.56-18.76V3.85h19.11V1h4V3.85h18.23V7.53ZM459.13,44V40.51H475V33.74h-13.2V30.25H475V11.3h3.82v19h13.25v3.49H478.86v6.77h16V44ZM462,27.74l-2.86-1.26L465.9,11.2,469,12.46Zm9,0-4.64-8.12,2.75-1.45,4.69,8.07Zm12,0-3-1.31,6.87-15.23,3.05,1.26Zm9,0-4.65-8.12L490,18.26l4.69,8.08Z"/><path class="cls-3" d="M220.69,68.47a18.19,18.19,0,0,1,3-.24,5,5,0,0,1,3.38,1,3.39,3.39,0,0,1,1.1,2.64c0,3-2.37,4-4.57,4a4.73,4.73,0,0,1-1-.08v4.81h-1.85Zm1.85,5.81a3.76,3.76,0,0,0,1,.1c1.69,0,2.72-.88,2.72-2.45s-1-2.24-2.52-2.24a7.21,7.21,0,0,0-1.24.11Z"/><path class="cls-3" d="M238.36,76.09c0,3.3-2.14,4.66-4.13,4.66-2.29,0-4-1.68-4-4.53s1.82-4.66,4.16-4.66S238.36,73.39,238.36,76.09ZM234.3,73c-1.59,0-2.2,1.69-2.2,3.21,0,1.73.82,3.19,2.18,3.19s2.18-1.46,2.18-3.22C236.46,74.69,235.85,73,234.3,73Z"/><path class="cls-3" d="M252.38,71.76l-2.67,8.82H248l-1.14-3.91a27.16,27.16,0,0,1-.66-2.82h0a20.42,20.42,0,0,1-.68,2.84l-1.2,3.89h-1.68l-2.53-8.82H242L243,76c.21,1,.42,1.89.58,2.82h0c.18-.91.45-1.89.71-2.8l1.21-4.24H247l1.16,4.14c.27,1,.51,2,.68,2.9h0c.15-.91.35-1.86.59-2.88l1-4.16Z"/><path class="cls-3" d="M261.05,80.22a6.88,6.88,0,0,1-2.8.53c-2.66,0-4.2-1.78-4.2-4.46s1.48-4.73,4-4.73,3.48,2.07,3.48,4.25a5.78,5.78,0,0,1-.05.78h-5.6a2.51,2.51,0,0,0,2.67,2.74,5.44,5.44,0,0,0,2.22-.42Zm-1.31-5c0-1.06-.42-2.37-1.84-2.37s-1.94,1.35-2,2.37Z"/><path class="cls-3" d="M268.52,73.39a2.92,2.92,0,0,0-.54,0c-1.25,0-2,1-2,2.56v4.68h-1.85V74.44c0-1,0-1.87-.07-2.68h1.62l.06,1.61h.07a2.54,2.54,0,0,1,2.29-1.81,2.31,2.31,0,0,1,.46,0Z"/><path class="cls-3" d="M278.12,78.22c0,.8,0,1.75.06,2.36h-1.63l-.09-1.38h0a2.94,2.94,0,0,1-2.68,1.55c-2,0-3.52-1.78-3.52-4.5,0-3,1.72-4.69,3.69-4.69a2.59,2.59,0,0,1,2.33,1.19h0v-5h1.86Zm-1.86-2.89A2.05,2.05,0,0,0,274.31,73c-1.42,0-2.21,1.4-2.21,3.15s.77,3.06,2.18,3.06a2.1,2.1,0,0,0,2-2.29Z"/><path class="cls-3" d="M287.56,73a2.93,2.93,0,0,1,2.67-1.43c2,0,3.41,1.78,3.41,4.47,0,3.22-1.87,4.72-3.7,4.72a2.81,2.81,0,0,1-2.61-1.5h0l-.1,1.33h-1.58c0-.6.06-1.56.06-2.36V67.74h1.86V73Zm0,4.1a2.08,2.08,0,0,0,2,2.17c1.43,0,2.21-1.26,2.21-3.15,0-1.67-.72-3.06-2.19-3.06a2.22,2.22,0,0,0-2,2.31Z"/><path class="cls-3" d="M303.24,71.76l-2.13,6.11c-1,2.9-1.78,4.53-2.83,5.55a4.71,4.71,0,0,1-2,1.14L295.75,83a4.18,4.18,0,0,0,2.61-2.72.88.88,0,0,0-.1-.38l-3-8.13h2l1.6,5c.18.57.35,1.25.48,1.76h0c.13-.51.3-1.17.46-1.76l1.43-5Z"/></g></g></svg>