<svg xmlns="http://www.w3.org/2000/svg" width="30" height="30" viewBox="0 0 30 30">
  <g id="グループ_116" data-name="グループ 116" transform="translate(-780 -485)">
    <rect id="長方形_123" data-name="長方形 123" width="30" height="30" transform="translate(780 485)" fill="#21c302"/>
    <g id="レイヤー_2" data-name="レイヤー 2" transform="translate(786.205 491.951)">
      <g id="LINE_LOGO" data-name="LINE LOGO">
        <path id="パス_9" data-name="パス 9" d="M17.175,6.97C17.175,3.127,13.323,0,8.588,0S0,3.127,0,6.97c0,3.444,3.055,6.329,7.182,6.88.279.059.66.183.757.423a1.757,1.757,0,0,1,.028.786l-.122.735c-.037.218-.173.849.743.464a27.786,27.786,0,0,0,6.744-5h0A6.187,6.187,0,0,0,17.175,6.97ZM5.559,9.02a.167.167,0,0,1-.167.167H2.984a.175.175,0,0,1-.116-.045h0a.163.163,0,0,1-.047-.116h0V5.291a.167.167,0,0,1,.167-.167h.6a.167.167,0,0,1,.167.167V8.256H5.4a.167.167,0,0,1,.167.167Zm1.451,0a.167.167,0,0,1-.167.165h-.6a.167.167,0,0,1-.167-.165V5.285a.167.167,0,0,1,.167-.167h.6a.167.167,0,0,1,.167.167Zm4.147,0a.167.167,0,0,1-.167.165h-.678a.2.2,0,0,1-.041-.041L8.552,6.825v2.2a.167.167,0,0,1-.167.165H7.764A.169.169,0,0,1,7.6,9.022V5.287a.169.169,0,0,1,.169-.177H8.44l.012.01h0l.014.018L10.221,7.5V5.28a.167.167,0,0,1,.167-.167h.6a.167.167,0,0,1,.167.167Zm3.326-3.145a.169.169,0,0,1-.167.169H12.678v.639h1.637a.167.167,0,0,1,.167.167v.6a.167.167,0,0,1-.167.167H12.678v.635h1.637a.167.167,0,0,1,.167.167v.6a.167.167,0,0,1-.167.167H11.91a.171.171,0,0,1-.116-.045h0a.163.163,0,0,1-.047-.114h0V5.3h0a.171.171,0,0,1,.045-.116h0a.163.163,0,0,1,.116-.047h2.408a.167.167,0,0,1,.167.167Z" fill="#fff"/>
      </g>
    </g>
  </g>
</svg>
