<svg id="レイヤー_1" data-name="レイヤー 1" xmlns="http://www.w3.org/2000/svg" viewBox="0 0 1183 249"><defs><style>.cls-1{isolation:isolate;}.cls-2{fill:none;stroke:#fff;stroke-width:4px;}</style></defs><g id="グループ_73" data-name="グループ 73"><g id="グループ_71" data-name="グループ 71"><g id="インターン型_WEBエンジニア講座" data-name="インターン型 WEBエンジニア講座" class="cls-1"><g class="cls-1"><path class="cls-2" d="M283.28,93c0,3.52.16,8.48.72,10.48H271.36A89.59,89.59,0,0,0,271.92,93V66.8A156.41,156.41,0,0,1,244.4,77.68l-5.76-9.76A122.9,122.9,0,0,0,275,53.44c8.08-5,16.4-12.16,20.88-18.08l8.56,7.76a130.71,130.71,0,0,1-21.2,17.2Z"/><path class="cls-2" d="M391.92,82C405.52,73.92,416,61.68,421,50.88l6.24,11.28C421.2,73,410.56,84,397.68,91.76A86.64,86.64,0,0,1,368,103l-6.72-10.56A82.45,82.45,0,0,0,391.92,82Zm0-25.92-8.16,8.4a166.34,166.34,0,0,0-20-17.28l7.52-8C376.88,43,387.28,51.28,391.92,56.08Z"/><path class="cls-2" d="M546.48,49a37.64,37.64,0,0,0-2.64,5.68,92.09,92.09,0,0,1-11,21.92c3,1.84,5.68,3.68,7.68,5.12L533.2,91a92.64,92.64,0,0,0-7.44-5.68,76.35,76.35,0,0,1-29.52,19.92L487,97.2A67.65,67.65,0,0,0,516.8,79.28c-5.44-3.52-10.88-6.8-15-9.12l6.8-7.6c4.24,2.16,9.68,5.2,15,8.4,3.92-5.68,7.12-12.24,8.32-17H509a94.15,94.15,0,0,1-21.12,20.64l-8.64-6.64A73.23,73.23,0,0,0,504.8,41.36a35.39,35.39,0,0,0,3.6-8.4l11.6,3.6c-1.92,2.8-4,6.48-5,8.16l-.08.08h16.4a25.4,25.4,0,0,0,7-.88Z"/><path class="cls-2" d="M603.92,63c2.88.24,8.72.48,12.88.48h43c3.68,0,7.28-.32,9.36-.48V75.52c-1.92-.08-6-.4-9.36-.4h-43c-4.56,0-9.92.16-12.88.4Z"/><path class="cls-2" d="M755.45,82c13.59-8.08,24.08-20.32,29.12-31.12l6.24,11.28C784.73,73,774.09,84,761.21,91.76A86.8,86.8,0,0,1,731.53,103L724.8,92.48A82.44,82.44,0,0,0,755.45,82Zm0-25.92-8.16,8.4a167.9,167.9,0,0,0-20-17.28l7.51-8C740.4,43,750.8,51.28,755.45,56.08Z"/></g><g class="cls-1"><path class="cls-2" d="M947.92,95.6v8.8H875.84V95.6h31.28V89.2h-23.2V80.56H907v-5h-5.92V60.16h-7.36A24.41,24.41,0,0,1,881.2,77.68,40.92,40.92,0,0,0,875,71c5.92-3,8.56-6.88,9.76-10.88h-8.08v-8.4h9v-8.4h-6.32V35h36.32v8.32H910v8.4h7.52v8.4H910v14h6.88v6.4H940V89.2H916.88v6.4Zm-46.8-43.84v-8.4H894.4v8.4ZM929.6,63.84h-8.72v-27h8.72Zm14.88,3.44c0,4.4-.8,6.64-3.84,8-2.88,1.28-7,1.52-12.56,1.52a35.76,35.76,0,0,0-2.8-8.4c3.6.16,7.44.16,8.64.08s1.52-.32,1.52-1.36v-34h9Z"/></g><g class="cls-1"><path class="cls-2" d="M11,159.8H23.08l4.72,28.88c.88,6.24,1.84,12.56,2.72,18.88h.32c1.2-6.32,2.48-12.72,3.76-18.88l6.88-28.88H51.56l6.88,28.88c1.28,6.08,2.48,12.48,3.76,18.88h.4c.88-6.4,1.76-12.72,2.64-18.88l4.64-28.88H81.16L70.2,219H55.48l-6.64-29.28c-1-4.64-1.84-9.2-2.56-13.68H46c-.8,4.48-1.6,9-2.56,13.68L36.92,219H22.44Z"/><path class="cls-2" d="M138,159.8h36.32v9.84H149.88v13.68h20.8v9.92h-20.8v15.84h25.36V219H138Z"/><path class="cls-2" d="M235.24,159.8h19.6c12.16,0,21.44,3.52,21.44,14.56,0,5.44-3,11-8.08,12.8v.4c6.4,1.52,11.12,6,11.12,14,0,11.92-9.92,17.44-23,17.44H235.24ZM254,183.88c7.52,0,10.8-3,10.8-7.76,0-5.2-3.52-7.28-10.64-7.28h-7v15Zm1.36,26c8.08,0,12.48-2.88,12.48-9,0-5.76-4.32-8.16-12.48-8.16h-8.24v17.2Z"/></g><g class="cls-1"><path class="cls-2" d="M395.48,206.44a46.88,46.88,0,0,0,7.44-.64v11.6a62,62,0,0,0-7.44-.4H342.76a66.85,66.85,0,0,0-7.84.4V205.8a43.2,43.2,0,0,0,7.84.64h20.32V173.8H347.64c-2.16,0-5.6.16-7.6.32v-11a58.72,58.72,0,0,0,7.6.48h43.52c2.4,0,5.2-.24,7.52-.48v11c-2.4-.16-5.2-.32-7.52-.32H374.28v32.64Z"/><path class="cls-2" d="M491.64,201c13.6-8.08,24.08-20.32,29.12-31.12L527,181.16c-6.08,10.8-16.72,21.84-29.6,29.6A86.64,86.64,0,0,1,467.72,222L461,211.48A82.45,82.45,0,0,0,491.64,201Zm0-25.92-8.16,8.4a166.34,166.34,0,0,0-20-17.28l7.52-8C476.6,162,487,170.28,491.64,175.08Z"/><path class="cls-2" d="M605.8,185.56l-5.84,9c-4.56-3.2-12.88-8.56-18.24-11.44l5.76-8.8C592.92,177.16,601.72,182.68,605.8,185.56Zm6.4,18.24c13.6-7.6,24.8-18.56,31.12-30l6.16,10.88c-7.36,11.12-18.72,21.2-31.76,28.8A100.61,100.61,0,0,1,591,223.32l-6-10.48C594,211.32,603.56,208.6,612.2,203.8ZM618,167.48l-5.92,8.8c-4.48-3.12-12.8-8.48-18.08-11.44l5.76-8.8C605.08,158.92,613.88,164.6,618,167.48ZM641.88,170l-7,3a72.26,72.26,0,0,0-7-12.56l6.64-2.8A120.42,120.42,0,0,1,641.88,170Zm11.2-4.32-6.8,3a76.87,76.87,0,0,0-7.52-12.16l6.8-2.8A102.88,102.88,0,0,1,653.08,165.64Z"/><path class="cls-2" d="M709.48,203.8c3.12.24,6.88.56,10,.56H765.4a81.22,81.22,0,0,0,8.8-.56V216a86.9,86.9,0,0,0-8.8-.48H719.48c-3.12,0-7,.24-10,.48Zm6.72-39.12c2.88.32,6.64.48,9.36.48h33.12c3.2,0,6.64-.24,8.88-.48v11.6c-2.32-.08-6.08-.32-8.88-.32h-33c-3,0-6.72.16-9.44.32Z"/><path class="cls-2" d="M902.68,164.84a40.28,40.28,0,0,0-3.12,4.16c-3.76,6.24-11.36,16.32-19.28,21.92L872,184.28c6.4-3.92,12.64-11,14.72-14.88H845.08c-3.36,0-6,.24-9.76.56V158.84a63.42,63.42,0,0,0,9.76.8H888.2a39.86,39.86,0,0,0,8.08-.72ZM870,175.64c0,19.84-.4,36.16-22.24,47.84l-9.28-7.6a31.61,31.61,0,0,0,8.4-4.4c10.16-7,12.08-15.52,12.08-28.64a44.35,44.35,0,0,0-.56-7.2Z"/></g><g class="cls-1"><path class="cls-2" d="M1000.76,172.28H973.08v-7.52h27.68Zm-2.08,50.48H984.12v3.12h-7.84V198.6h22.4Zm-.24-39.44H976.52V176.2h21.92Zm-21.92,4h21.92v7.2H976.52Zm21.68-26.4H977v-7.2h21.2Zm-14.08,45.2v9.12h6.64v-9.12Zm64,8.16h-4v3.28c0,4-.8,5.92-3.52,7.12S1034,226,1028.68,226a26.79,26.79,0,0,0-2.16-7.36c3.12.16,6.64.16,7.6.16s1.36-.32,1.36-1.28v-3.2h-22.8V226h-8V214.28h-4v-7.52h4V186.84h15.52V184h-19.36v-7.2h10.4v-3.44h-6.88v-6.56h6.88v-3.2h-8.32v-6.72h8.32v-5.6h8.48v5.6H1029v-5.6h8.56v5.6h9v6.72h-9v3.2h7.28v6.56h-7.28v3.44H1048V184H1028v2.88h16.08v19.92h4Zm-35.44-20.88v3.76h7.52V193.4Zm0,13.36h7.52V203h-7.52Zm7-40H1029v-3.2h-9.28Zm0,10H1029v-3.44h-9.28ZM1028,193.4v3.76h7.44V193.4Zm7.44,13.36V203H1028v3.76Z"/><path class="cls-2" d="M1149.72,215.88h25.6V224H1115.4v-8.16h25.12V208h-20.08v-8.24h20.08v-9.28l-4.56,5.44a59.49,59.49,0,0,0-6.08-7,30,30,0,0,1-7.2,8.56,53.7,53.7,0,0,0-6.88-5.6c-.72,11.36-2.72,24.32-7.68,33.44A37,37,0,0,0,1100,220c6.24-11.44,6.72-28.16,6.72-39.84V158.52H1136v-7.2h9.92v7.2h28.88v8.72h-58.64v13c0,3.44-.08,7.36-.32,11.6,6.56-4.4,9.6-11.68,10.56-21l8.64.64a55.08,55.08,0,0,1-1.92,9.6,93,93,0,0,1,7.44,7.36V169.88h9.2V189.4c4.88-4.32,7.6-10.72,8.64-18.48l8.48,1a51.66,51.66,0,0,1-2.16,9.2,139.9,139.9,0,0,1,11,9.6l-5.52,6.56a98.1,98.1,0,0,0-9-8.56,29.72,29.72,0,0,1-7.2,8.24,35.74,35.74,0,0,0-4.24-3.92v6.72H1171V208h-21.28Z"/></g></g></g><g id="インターン型_WEBエンジニア講座-2" data-name="インターン型 WEBエンジニア講座-2" class="cls-1"><g class="cls-1"><path d="M274.28,86c0,3.52.16,8.48.72,10.48H262.36A89.59,89.59,0,0,0,262.92,86V59.8A156.41,156.41,0,0,1,235.4,70.68l-5.76-9.76A122.9,122.9,0,0,0,266,46.44c8.08-5,16.4-12.16,20.88-18.08l8.56,7.76a130.71,130.71,0,0,1-21.2,17.2Z"/><path d="M382.92,75C396.52,66.92,407,54.68,412,43.88l6.24,11.28C412.2,66,401.56,77,388.68,84.76A86.64,86.64,0,0,1,359,96l-6.72-10.56A82.45,82.45,0,0,0,382.92,75Zm0-25.92-8.16,8.4a166.34,166.34,0,0,0-20-17.28l7.52-8C367.88,36,378.28,44.28,382.92,49.08Z"/><path d="M537.48,42a37.64,37.64,0,0,0-2.64,5.68,92.09,92.09,0,0,1-11,21.92c3,1.84,5.68,3.68,7.68,5.12L524.2,84a92.64,92.64,0,0,0-7.44-5.68,76.35,76.35,0,0,1-29.52,19.92L478,90.2A67.65,67.65,0,0,0,507.8,72.28c-5.44-3.52-10.88-6.8-15-9.12l6.8-7.6c4.24,2.16,9.68,5.2,15,8.4,3.92-5.68,7.12-12.24,8.32-17H500a94.15,94.15,0,0,1-21.12,20.64l-8.64-6.64A73.23,73.23,0,0,0,495.8,34.36a35.39,35.39,0,0,0,3.6-8.4l11.6,3.6c-1.92,2.8-4,6.48-5,8.16l-.08.08h16.4a25.4,25.4,0,0,0,7-.88Z"/><path d="M594.92,56c2.88.24,8.72.48,12.88.48h43c3.68,0,7.28-.32,9.36-.48V68.52c-1.92-.08-6-.4-9.36-.4h-43c-4.56,0-9.92.16-12.88.4Z"/><path d="M746.45,75c13.59-8.08,24.08-20.32,29.12-31.12l6.24,11.28C775.73,66,765.09,77,752.21,84.76A86.8,86.8,0,0,1,722.53,96L715.8,85.48A82.44,82.44,0,0,0,746.45,75Zm0-25.92-8.16,8.4a167.9,167.9,0,0,0-20-17.28l7.51-8C731.4,36,741.8,44.28,746.45,49.08Z"/></g><g class="cls-1"><path d="M938.92,88.6v8.8H866.84V88.6h31.28V82.2h-23.2V73.56H898v-5h-5.92V53.16h-7.36A24.41,24.41,0,0,1,872.2,70.68,40.92,40.92,0,0,0,866,64c5.92-3,8.56-6.88,9.76-10.88h-8.08v-8.4h9v-8.4h-6.32V28h36.32v8.32H901v8.4h7.52v8.4H901v14h6.88v6.4H931V82.2H907.88v6.4Zm-46.8-43.84v-8.4H885.4v8.4ZM920.6,56.84h-8.72v-27h8.72Zm14.88,3.44c0,4.4-.8,6.64-3.84,8-2.88,1.28-7,1.52-12.56,1.52a35.76,35.76,0,0,0-2.8-8.4c3.6.16,7.44.16,8.64.08s1.52-.32,1.52-1.36v-34h9Z"/></g><g class="cls-1"><path d="M2,152.8H14.08l4.72,28.88c.88,6.24,1.84,12.56,2.72,18.88h.32c1.2-6.32,2.48-12.72,3.76-18.88l6.88-28.88H42.56l6.88,28.88c1.28,6.08,2.48,12.48,3.76,18.88h.4c.88-6.4,1.76-12.72,2.64-18.88l4.64-28.88H72.16L61.2,212H46.48l-6.64-29.28c-1-4.64-1.84-9.2-2.56-13.68H37c-.8,4.48-1.6,9-2.56,13.68L27.92,212H13.44Z"/><path d="M129,152.8h36.32v9.84H140.88v13.68h20.8v9.92h-20.8v15.84h25.36V212H129Z"/><path d="M226.24,152.8h19.6c12.16,0,21.44,3.52,21.44,14.56,0,5.44-3,11-8.08,12.8v.4c6.4,1.52,11.12,6,11.12,14,0,11.92-9.92,17.44-23,17.44H226.24ZM245,176.88c7.52,0,10.8-3,10.8-7.76,0-5.2-3.52-7.28-10.64-7.28h-7v15Zm1.36,26c8.08,0,12.48-2.88,12.48-9,0-5.76-4.32-8.16-12.48-8.16h-8.24v17.2Z"/></g><g class="cls-1"><path d="M386.48,199.44a46.88,46.88,0,0,0,7.44-.64v11.6a62,62,0,0,0-7.44-.4H333.76a66.85,66.85,0,0,0-7.84.4V198.8a43.2,43.2,0,0,0,7.84.64h20.32V166.8H338.64c-2.16,0-5.6.16-7.6.32v-11a58.72,58.72,0,0,0,7.6.48h43.52c2.4,0,5.2-.24,7.52-.48v11c-2.4-.16-5.2-.32-7.52-.32H365.28v32.64Z"/><path d="M482.64,194c13.6-8.08,24.08-20.32,29.12-31.12L518,174.16c-6.08,10.8-16.72,21.84-29.6,29.6A86.64,86.64,0,0,1,458.72,215L452,204.48A82.45,82.45,0,0,0,482.64,194Zm0-25.92-8.16,8.4a166.34,166.34,0,0,0-20-17.28l7.52-8C467.6,155,478,163.28,482.64,168.08Z"/><path d="M596.8,178.56l-5.84,9c-4.56-3.2-12.88-8.56-18.24-11.44l5.76-8.8C583.92,170.16,592.72,175.68,596.8,178.56Zm6.4,18.24c13.6-7.6,24.8-18.56,31.12-30l6.16,10.88c-7.36,11.12-18.72,21.2-31.76,28.8A100.61,100.61,0,0,1,582,216.32l-6-10.48C585,204.32,594.56,201.6,603.2,196.8ZM609,160.48l-5.92,8.8c-4.48-3.12-12.8-8.48-18.08-11.44l5.76-8.8C596.08,151.92,604.88,157.6,609,160.48ZM632.88,163l-7,3a72.26,72.26,0,0,0-7-12.56l6.64-2.8A120.42,120.42,0,0,1,632.88,163Zm11.2-4.32-6.8,3a76.87,76.87,0,0,0-7.52-12.16l6.8-2.8A102.88,102.88,0,0,1,644.08,158.64Z"/><path d="M700.48,196.8c3.12.24,6.88.56,10,.56H756.4a81.22,81.22,0,0,0,8.8-.56V209a86.9,86.9,0,0,0-8.8-.48H710.48c-3.12,0-7,.24-10,.48Zm6.72-39.12c2.88.32,6.64.48,9.36.48h33.12c3.2,0,6.64-.24,8.88-.48v11.6c-2.32-.08-6.08-.32-8.88-.32h-33c-3,0-6.72.16-9.44.32Z"/><path d="M893.68,157.84a40.28,40.28,0,0,0-3.12,4.16c-3.76,6.24-11.36,16.32-19.28,21.92L863,177.28c6.4-3.92,12.64-11,14.72-14.88H836.08c-3.36,0-6,.24-9.76.56V151.84a63.42,63.42,0,0,0,9.76.8H879.2a39.86,39.86,0,0,0,8.08-.72ZM861,168.64c0,19.84-.4,36.16-22.24,47.84l-9.28-7.6a31.61,31.61,0,0,0,8.4-4.4c10.16-7,12.08-15.52,12.08-28.64a44.35,44.35,0,0,0-.56-7.2Z"/></g><g class="cls-1"><path d="M991.76,165.28H964.08v-7.52h27.68Zm-2.08,50.48H975.12v3.12h-7.84V191.6h22.4Zm-.24-39.44H967.52V169.2h21.92Zm-21.92,4h21.92v7.2H967.52Zm21.68-26.4H968v-7.2h21.2Zm-14.08,45.2v9.12h6.64v-9.12Zm64,8.16h-4v3.28c0,4-.8,5.92-3.52,7.12S1025,219,1019.68,219a26.79,26.79,0,0,0-2.16-7.36c3.12.16,6.64.16,7.6.16s1.36-.32,1.36-1.28v-3.2h-22.8V219h-8V207.28h-4v-7.52h4V179.84h15.52V177H991.84v-7.2h10.4v-3.44h-6.88v-6.56h6.88v-3.2h-8.32v-6.72h8.32v-5.6h8.48v5.6H1020v-5.6h8.56v5.6h9v6.72h-9v3.2h7.28v6.56h-7.28v3.44H1039V177H1019v2.88h16.08v19.92h4Zm-35.44-20.88v3.76h7.52V186.4Zm0,13.36h7.52V196h-7.52Zm7-40H1020v-3.2h-9.28Zm0,10H1020v-3.44h-9.28ZM1019,186.4v3.76h7.44V186.4Zm7.44,13.36V196H1019v3.76Z"/><path d="M1140.72,208.88h25.6V217H1106.4v-8.16h25.12V201h-20.08v-8.24h20.08v-9.28l-4.56,5.44a59.49,59.49,0,0,0-6.08-7,30,30,0,0,1-7.2,8.56,53.7,53.7,0,0,0-6.88-5.6c-.72,11.36-2.72,24.32-7.68,33.44A37,37,0,0,0,1091,213c6.24-11.44,6.72-28.16,6.72-39.84V151.52H1127v-7.2h9.92v7.2h28.88v8.72h-58.64v13c0,3.44-.08,7.36-.32,11.6,6.56-4.4,9.6-11.68,10.56-21l8.64.64a55.08,55.08,0,0,1-1.92,9.6,93,93,0,0,1,7.44,7.36V162.88h9.2V182.4c4.88-4.32,7.6-10.72,8.64-18.48l8.48,1a51.66,51.66,0,0,1-2.16,9.2,139.9,139.9,0,0,1,11,9.6l-5.52,6.56a98.1,98.1,0,0,0-9-8.56,29.72,29.72,0,0,1-7.2,8.24,35.74,35.74,0,0,0-4.24-3.92v6.72H1162V201h-21.28Z"/></g></g></g></svg>