<svg xmlns="http://www.w3.org/2000/svg" width="347.48" height="89.304" viewBox="0 0 347.48 89.304">
  <g id="グループ_68" data-name="グループ 68" transform="translate(3568.52 6360.52)">
    <path id="パス_368" data-name="パス 368" d="M-149.2-19.84a65.357,65.357,0,0,0,10.6-8.6l-4.28-3.88a42.217,42.217,0,0,1-10.44,9.04,61.452,61.452,0,0,1-18.2,7.24l2.88,4.88a78.206,78.206,0,0,0,13.76-5.44V-3.48a44.8,44.8,0,0,1-.28,5.24h6.32a27.5,27.5,0,0,1-.36-5.24Zm46.84-10.56-3.76,4a83.169,83.169,0,0,1,10,8.64l4.08-4.2A84,84,0,0,0-102.36-30.4Zm-5,26.64L-104,1.52A43.319,43.319,0,0,0-89.16-4.12a42.534,42.534,0,0,0,14.8-14.8l-3.12-5.64A37.929,37.929,0,0,1-92.04-9,41.227,41.227,0,0,1-107.36-3.76Zm89.24-24.28a12.7,12.7,0,0,1-3.48.44h-8.2l.04-.04c.48-.84,1.52-2.68,2.48-4.08l-5.8-1.8a17.7,17.7,0,0,1-1.8,4.2A36.614,36.614,0,0,1-47.64-16.04l4.32,3.32A47.072,47.072,0,0,0-32.76-23.04h11.48a29.135,29.135,0,0,1-4.16,8.52c-2.68-1.6-5.4-3.12-7.52-4.2l-3.4,3.8c2.04,1.16,4.76,2.8,7.48,4.56A33.826,33.826,0,0,1-43.8-1.4l4.64,4.04A38.177,38.177,0,0,0-24.4-7.32a46.318,46.318,0,0,1,3.72,2.84l3.64-4.68c-1-.72-2.36-1.64-3.84-2.56a46.044,46.044,0,0,0,5.52-10.96,18.818,18.818,0,0,1,1.32-2.84Zm33.8,15.8c1.48-.12,4.16-.2,6.44-.2H43.6c1.68,0,3.72.16,4.68.2v-6.28c-1.04.08-2.84.24-4.68.24H22.12c-2.08,0-5-.12-6.44-.24ZM81.64-30.4l-3.76,4a83.169,83.169,0,0,1,10,8.64l4.08-4.2A84,84,0,0,0,81.64-30.4Zm-5,26.64L80,1.52A43.319,43.319,0,0,0,94.84-4.12a42.534,42.534,0,0,0,14.8-14.8l-3.12-5.64A37.929,37.929,0,0,1,91.96-9,41.227,41.227,0,0,1,76.64-3.76Zm93.6-29.68h-4.52v17c0,.52-.2.64-.76.68-.6.04-2.52.04-4.32-.04a17.879,17.879,0,0,1,1.4,4.2c2.8,0,4.84-.12,6.28-.76,1.52-.68,1.92-1.8,1.92-4ZM162.8-31.6h-4.36v13.52h4.36Zm-17.6,7.48v-4.2h3.36v4.2ZM156.44-2.2V-5.4H168V-9.72H156.44v-3.2H153v-7h3.76v-4.2H153v-4.2h2.84v-4.16H137.68v4.16h3.16v4.2h-4.52v4.2h4.04a8.838,8.838,0,0,1-4.88,5.44,20.458,20.458,0,0,1,3.12,3.32,12.205,12.205,0,0,0,6.28-8.76h3.68v7.68h2.96v2.52H139.96V-5.4h11.6v3.2H135.92V2.2h36.04V-2.2Zm-261.8,28.16V22.8h24.48v3.16h-9.96V23.68H-95.6v2.28ZM-75.4,42.68V38.56H-91.2a13.58,13.58,0,0,0,.32-2.52h10.92V32.2H-90.84V29.8h11.68V27.16h3.2V18.64H-90.6V15.16h-4.88v3.48h-14.6v8.52h3.56V29.8H-95.6v2.4h-10.28v3.84h10.24a18.332,18.332,0,0,1-.4,2.52H-110.4v4.12h12.04c-2.2,2.36-6.04,4.44-12.76,5.96a19.412,19.412,0,0,1,2.96,3.84c8.16-2.2,12.6-5.36,14.96-8.92,3.16,4.96,7.92,7.8,15.52,9a18.507,18.507,0,0,1,2.8-4.16c-6.32-.68-10.8-2.52-13.64-5.72Zm31.6-22.04h4.88V25.8H-43.8ZM-33.96,43l-4.56,1.08V38.64h4.4V34.52h-4.4V29.8h3.84V16.64H-47.8V29.8h5.12V45l-1.6.36V32.64h-3.76V46.12l-1.76.36.92,4.4c4.28-1.04,10-2.4,15.36-3.8Zm16.04-5.36a19.673,19.673,0,0,1-3.16,3.44c-.32-1.08-.56-2.24-.84-3.52l9.64-1-.48-4-9.8.96c-.12-.72-.2-1.48-.28-2.28l8.28-.84L-15,26.52l-8.2.8c-.04-.68-.08-1.4-.12-2.12l9.6-.96-.4-4-1.92.2,1.76-2.08a29.7,29.7,0,0,0-5.48-3.32l-2.6,2.8A47.5,47.5,0,0,1-18,20.6l-5.48.52c-.04-1.96-.04-3.96,0-5.96h-4.84c0,2.16.04,4.32.12,6.44l-5.52.52.44,4.08,5.28-.52c.04.72.08,1.4.12,2.08l-4.72.48.44,3.96,4.64-.48c.08.76.16,1.52.28,2.28l-6.36.64.44,4.08,6.56-.68a42.009,42.009,0,0,0,1.48,5.88,42.049,42.049,0,0,1-10.44,4.24,15.253,15.253,0,0,1,2.8,3.96,49.334,49.334,0,0,0,9.36-4.16c1.6,2.84,3.64,4.52,6.28,4.52,3.28,0,4.56-1.36,5.36-6.68a11.166,11.166,0,0,1-3.52-2.56c-.24,3.52-.64,4.6-1.44,4.6-1.04,0-1.96-.92-2.8-2.52a29.057,29.057,0,0,0,5.64-5.88Zm42.8-21.28H14.28v3.6h10.6Zm1.28,5.52H12.32v3.76H26.16ZM25,27.6H14.04v3.56H25ZM14.04,36.76H25v-3.6H14.04Zm7.12,5.8v4.56H17.84V42.56Zm3.96-3.76H13.92V52.44h3.92V50.88h7.28ZM39.8,42.88V41h3.72v1.88ZM32.12,41h3.76v1.88H32.12Zm3.76-4.8v1.88H32.12V36.2Zm7.64,0v1.88H39.8V36.2ZM35.64,26.16h4.64v1.72H35.64Zm0-4.88h4.64v1.6H35.64Zm14.2,21.6h-2V32.92H39.8V31.48h9.96v-3.6h-5.2V26.16H48.2V22.88H44.56v-1.6h4.48V17.92H44.56v-2.8H40.28v2.8H35.64v-2.8H31.4v2.8H27.24v3.36H31.4v1.6H27.96v3.28H31.4v1.72H26.2v3.6h9.68v1.44H28.12v9.96h-2v3.76h2v5.84h4V46.64h11.4v1.6c0,.48-.16.6-.68.64-.48,0-2.24,0-3.8-.08a13.393,13.393,0,0,1,1.08,3.68c2.68,0,4.64-.04,5.96-.64,1.36-.6,1.76-1.56,1.76-3.56V46.64h2Zm48.8.6h10.64V39.36H98.64V36a17.869,17.869,0,0,1,2.12,1.96,14.859,14.859,0,0,0,3.6-4.12,49.053,49.053,0,0,1,4.52,4.28l2.76-3.28a69.946,69.946,0,0,0-5.52-4.8,25.829,25.829,0,0,0,1.08-4.6l-4.24-.48c-.52,3.88-1.88,7.08-4.32,9.24V24.44h-4.6v9.32a46.5,46.5,0,0,0-3.72-3.68,27.539,27.539,0,0,0,.96-4.8l-4.32-.32c-.48,4.64-2,8.28-5.28,10.48.12-2.12.16-4.08.16-5.8V23.12h29.32V18.76H96.72v-3.6H91.76v3.6H77.16V29.6c0,5.84-.24,14.2-3.36,19.92a18.517,18.517,0,0,1,4.04,2.64c2.48-4.56,3.48-11.04,3.84-16.72a26.85,26.85,0,0,1,3.44,2.8,14.98,14.98,0,0,0,3.6-4.28,29.744,29.744,0,0,1,3.04,3.48l2.28-2.72v4.64H84v4.12H94.04v3.96H81.48v4.08h29.96V47.44H98.64Z" transform="translate(-3394 -6325)" fill="none" stroke="#fff" stroke-width="2"/>
    <path id="パス_369" data-name="パス 369" d="M-149.2-19.84a65.357,65.357,0,0,0,10.6-8.6l-4.28-3.88a42.217,42.217,0,0,1-10.44,9.04,61.452,61.452,0,0,1-18.2,7.24l2.88,4.88a78.206,78.206,0,0,0,13.76-5.44V-3.48a44.8,44.8,0,0,1-.28,5.24h6.32a27.5,27.5,0,0,1-.36-5.24Zm46.84-10.56-3.76,4a83.169,83.169,0,0,1,10,8.64l4.08-4.2A84,84,0,0,0-102.36-30.4Zm-5,26.64L-104,1.52A43.319,43.319,0,0,0-89.16-4.12a42.534,42.534,0,0,0,14.8-14.8l-3.12-5.64A37.929,37.929,0,0,1-92.04-9,41.227,41.227,0,0,1-107.36-3.76Zm89.24-24.28a12.7,12.7,0,0,1-3.48.44h-8.2l.04-.04c.48-.84,1.52-2.68,2.48-4.08l-5.8-1.8a17.7,17.7,0,0,1-1.8,4.2A36.614,36.614,0,0,1-47.64-16.04l4.32,3.32A47.072,47.072,0,0,0-32.76-23.04h11.48a29.135,29.135,0,0,1-4.16,8.52c-2.68-1.6-5.4-3.12-7.52-4.2l-3.4,3.8c2.04,1.16,4.76,2.8,7.48,4.56A33.826,33.826,0,0,1-43.8-1.4l4.64,4.04A38.177,38.177,0,0,0-24.4-7.32a46.318,46.318,0,0,1,3.72,2.84l3.64-4.68c-1-.72-2.36-1.64-3.84-2.56a46.044,46.044,0,0,0,5.52-10.96,18.818,18.818,0,0,1,1.32-2.84Zm33.8,15.8c1.48-.12,4.16-.2,6.44-.2H43.6c1.68,0,3.72.16,4.68.2v-6.28c-1.04.08-2.84.24-4.68.24H22.12c-2.08,0-5-.12-6.44-.24ZM81.64-30.4l-3.76,4a83.169,83.169,0,0,1,10,8.64l4.08-4.2A84,84,0,0,0,81.64-30.4Zm-5,26.64L80,1.52A43.319,43.319,0,0,0,94.84-4.12a42.534,42.534,0,0,0,14.8-14.8l-3.12-5.64A37.929,37.929,0,0,1,91.96-9,41.227,41.227,0,0,1,76.64-3.76Zm93.6-29.68h-4.52v17c0,.52-.2.64-.76.68-.6.04-2.52.04-4.32-.04a17.879,17.879,0,0,1,1.4,4.2c2.8,0,4.84-.12,6.28-.76,1.52-.68,1.92-1.8,1.92-4ZM162.8-31.6h-4.36v13.52h4.36Zm-17.6,7.48v-4.2h3.36v4.2ZM156.44-2.2V-5.4H168V-9.72H156.44v-3.2H153v-7h3.76v-4.2H153v-4.2h2.84v-4.16H137.68v4.16h3.16v4.2h-4.52v4.2h4.04a8.838,8.838,0,0,1-4.88,5.44,20.458,20.458,0,0,1,3.12,3.32,12.205,12.205,0,0,0,6.28-8.76h3.68v7.68h2.96v2.52H139.96V-5.4h11.6v3.2H135.92V2.2h36.04V-2.2Zm-261.8,28.16V22.8h24.48v3.16h-9.96V23.68H-95.6v2.28ZM-75.4,42.68V38.56H-91.2a13.58,13.58,0,0,0,.32-2.52h10.92V32.2H-90.84V29.8h11.68V27.16h3.2V18.64H-90.6V15.16h-4.88v3.48h-14.6v8.52h3.56V29.8H-95.6v2.4h-10.28v3.84h10.24a18.332,18.332,0,0,1-.4,2.52H-110.4v4.12h12.04c-2.2,2.36-6.04,4.44-12.76,5.96a19.412,19.412,0,0,1,2.96,3.84c8.16-2.2,12.6-5.36,14.96-8.92,3.16,4.96,7.92,7.8,15.52,9a18.507,18.507,0,0,1,2.8-4.16c-6.32-.68-10.8-2.52-13.64-5.72Zm31.6-22.04h4.88V25.8H-43.8ZM-33.96,43l-4.56,1.08V38.64h4.4V34.52h-4.4V29.8h3.84V16.64H-47.8V29.8h5.12V45l-1.6.36V32.64h-3.76V46.12l-1.76.36.92,4.4c4.28-1.04,10-2.4,15.36-3.8Zm16.04-5.36a19.673,19.673,0,0,1-3.16,3.44c-.32-1.08-.56-2.24-.84-3.52l9.64-1-.48-4-9.8.96c-.12-.72-.2-1.48-.28-2.28l8.28-.84L-15,26.52l-8.2.8c-.04-.68-.08-1.4-.12-2.12l9.6-.96-.4-4-1.92.2,1.76-2.08a29.7,29.7,0,0,0-5.48-3.32l-2.6,2.8A47.5,47.5,0,0,1-18,20.6l-5.48.52c-.04-1.96-.04-3.96,0-5.96h-4.84c0,2.16.04,4.32.12,6.44l-5.52.52.44,4.08,5.28-.52c.04.72.08,1.4.12,2.08l-4.72.48.44,3.96,4.64-.48c.08.76.16,1.52.28,2.28l-6.36.64.44,4.08,6.56-.68a42.009,42.009,0,0,0,1.48,5.88,42.049,42.049,0,0,1-10.44,4.24,15.253,15.253,0,0,1,2.8,3.96,49.334,49.334,0,0,0,9.36-4.16c1.6,2.84,3.64,4.52,6.28,4.52,3.28,0,4.56-1.36,5.36-6.68a11.166,11.166,0,0,1-3.52-2.56c-.24,3.52-.64,4.6-1.44,4.6-1.04,0-1.96-.92-2.8-2.52a29.057,29.057,0,0,0,5.64-5.88Zm42.8-21.28H14.28v3.6h10.6Zm1.28,5.52H12.32v3.76H26.16ZM25,27.6H14.04v3.56H25ZM14.04,36.76H25v-3.6H14.04Zm7.12,5.8v4.56H17.84V42.56Zm3.96-3.76H13.92V52.44h3.92V50.88h7.28ZM39.8,42.88V41h3.72v1.88ZM32.12,41h3.76v1.88H32.12Zm3.76-4.8v1.88H32.12V36.2Zm7.64,0v1.88H39.8V36.2ZM35.64,26.16h4.64v1.72H35.64Zm0-4.88h4.64v1.6H35.64Zm14.2,21.6h-2V32.92H39.8V31.48h9.96v-3.6h-5.2V26.16H48.2V22.88H44.56v-1.6h4.48V17.92H44.56v-2.8H40.28v2.8H35.64v-2.8H31.4v2.8H27.24v3.36H31.4v1.6H27.96v3.28H31.4v1.72H26.2v3.6h9.68v1.44H28.12v9.96h-2v3.76h2v5.84h4V46.64h11.4v1.6c0,.48-.16.6-.68.64-.48,0-2.24,0-3.8-.08a13.393,13.393,0,0,1,1.08,3.68c2.68,0,4.64-.04,5.96-.64,1.36-.6,1.76-1.56,1.76-3.56V46.64h2Zm48.8.6h10.64V39.36H98.64V36a17.869,17.869,0,0,1,2.12,1.96,14.859,14.859,0,0,0,3.6-4.12,49.053,49.053,0,0,1,4.52,4.28l2.76-3.28a69.946,69.946,0,0,0-5.52-4.8,25.829,25.829,0,0,0,1.08-4.6l-4.24-.48c-.52,3.88-1.88,7.08-4.32,9.24V24.44h-4.6v9.32a46.5,46.5,0,0,0-3.72-3.68,27.539,27.539,0,0,0,.96-4.8l-4.32-.32c-.48,4.64-2,8.28-5.28,10.48.12-2.12.16-4.08.16-5.8V23.12h29.32V18.76H96.72v-3.6H91.76v3.6H77.16V29.6c0,5.84-.24,14.2-3.36,19.92a18.517,18.517,0,0,1,4.04,2.64c2.48-4.56,3.48-11.04,3.84-16.72a26.85,26.85,0,0,1,3.44,2.8,14.98,14.98,0,0,0,3.6-4.28,29.744,29.744,0,0,1,3.04,3.48l2.28-2.72v4.64H84v4.12H94.04v3.96H81.48v4.08h29.96V47.44H98.64Z" transform="translate(-3397 -6327)"/>
  </g>
</svg>
