<svg xmlns="http://www.w3.org/2000/svg" width="1230.013" height="83.488" viewBox="0 0 1230.013 83.488">
  <g id="グループ_66" data-name="グループ 66" transform="translate(7168.04 5858.92)">
    <path id="パス_366" data-name="パス 366" d="M-564.4-39.68a130.713,130.713,0,0,0,21.2-17.2l-8.56-7.76c-4.48,5.92-12.8,13.04-20.88,18.08a122.9,122.9,0,0,1-36.4,14.48l5.76,9.76A156.411,156.411,0,0,0-575.76-33.2V-6.96a89.591,89.591,0,0,1-.56,10.48h12.64c-.56-2-.72-6.96-.72-10.48Zm97.68-21.12-7.52,8a166.339,166.339,0,0,1,20,17.28l8.16-8.4C-450.72-48.72-461.12-57.04-466.72-60.8Zm-10,53.28L-470,3.04A86.637,86.637,0,0,0-440.32-8.24c12.88-7.76,23.52-18.8,29.6-29.6l-6.24-11.28C-422-38.32-432.48-26.08-446.08-18A82.455,82.455,0,0,1-476.72-7.52Zm182.48-48.56a25.4,25.4,0,0,1-6.96.88h-16.4l.08-.08c.96-1.68,3.04-5.36,4.96-8.16l-11.6-3.6a35.394,35.394,0,0,1-3.6,8.4,73.228,73.228,0,0,1-25.52,26.56l8.64,6.64a94.145,94.145,0,0,0,21.12-20.64h22.96c-1.2,4.8-4.4,11.36-8.32,17.04-5.36-3.2-10.8-6.24-15.04-8.4l-6.8,7.6c4.08,2.32,9.52,5.6,14.96,9.12A67.652,67.652,0,0,1-345.6-2.8l9.28,8.08A76.355,76.355,0,0,0-306.8-14.64a92.641,92.641,0,0,1,7.44,5.68l7.28-9.36c-2-1.44-4.72-3.28-7.68-5.12a92.086,92.086,0,0,0,11.04-21.92,37.638,37.638,0,0,1,2.64-5.68Zm71.6,31.6c2.96-.24,8.32-.4,12.88-.4h42.96c3.36,0,7.44.32,9.36.4V-37.04c-2.08.16-5.68.48-9.36.48h-42.96c-4.16,0-10-.24-12.88-.48ZM-86.72-60.8l-7.52,8a166.339,166.339,0,0,1,20,17.28l8.16-8.4C-70.72-48.72-81.12-57.04-86.72-60.8Zm-10,53.28L-90,3.04A86.637,86.637,0,0,0-60.32-8.24c12.88-7.76,23.52-18.8,29.6-29.6l-6.24-11.28C-42-38.32-52.48-26.08-66.08-18A82.454,82.454,0,0,1-96.72-7.52ZM94.48-66.88H85.44v34c0,1.04-.4,1.28-1.52,1.36-1.2.08-5.04.08-8.64-.08a35.757,35.757,0,0,1,2.8,8.4c5.6,0,9.68-.24,12.56-1.52,3.04-1.36,3.84-3.6,3.84-8ZM79.6-63.2H70.88v27.04H79.6ZM44.4-48.24v-8.4h6.72v8.4ZM66.88-4.4v-6.4H90v-8.64H66.88v-6.4H60v-14h7.52v-8.4H60v-8.4h5.68v-8.32H29.36v8.32h6.32v8.4H26.64v8.4h8.08c-1.2,4-3.84,7.84-9.76,10.88a40.917,40.917,0,0,1,6.24,6.64A24.411,24.411,0,0,0,43.76-39.84h7.36v15.36h5.92v5.04H33.92v8.64h23.2v6.4H25.84V4.4H97.92V-4.4Zm98.4-41.68V-52.4h48.96v6.32H194.32v-4.56H184.8v4.56ZM225.2-12.64v-8.24H193.6a27.16,27.16,0,0,0,.64-5.04h21.84V-33.6H194.32v-4.8h23.36v-5.28h6.4V-60.72H194.8v-6.96h-9.76v6.96h-29.2v17.04h7.12v5.28H184.8v4.8H164.24v7.68h20.48a36.664,36.664,0,0,1-.8,5.04H155.2v8.24h24.08c-4.4,4.72-12.08,8.88-25.52,11.92a38.823,38.823,0,0,1,5.92,7.68C176,2.56,184.88-3.76,189.6-10.88c6.32,9.92,15.84,15.6,31.04,18a37.014,37.014,0,0,1,5.6-8.32c-12.64-1.36-21.6-5.04-27.28-11.44Zm67.2-44.08h9.76V-46.4H292.4ZM312.08-12l-9.12,2.16V-20.72h8.8v-8.24h-8.8V-38.4h7.68V-64.72H284.4V-38.4h10.24V-8l-3.2.72V-32.72h-7.52V-5.76l-3.52.72,1.84,8.8c8.56-2.08,20-4.8,30.72-7.6Zm32.08-10.72a39.347,39.347,0,0,1-6.32,6.88c-.64-2.16-1.12-4.48-1.68-7.04l19.28-2-.96-8-19.6,1.92c-.24-1.44-.4-2.96-.56-4.56l16.56-1.68L350-44.96l-16.4,1.6c-.08-1.36-.16-2.8-.24-4.24l19.2-1.92-.8-8-3.84.4,3.52-4.16a59.4,59.4,0,0,0-10.96-6.64l-5.2,5.6A95,95,0,0,1,344-56.8l-10.96,1.04c-.08-3.92-.08-7.92,0-11.92h-9.68c0,4.32.08,8.64.24,12.88l-11.04,1.04.88,8.16L324-46.64c.08,1.44.16,2.8.24,4.16l-9.44.96.88,7.92,9.28-.96c.16,1.52.32,3.04.56,4.56L312.8-28.72l.88,8.16,13.12-1.36a84.02,84.02,0,0,0,2.96,11.76,84.1,84.1,0,0,1-20.88,8.48,30.507,30.507,0,0,1,5.6,7.92A98.668,98.668,0,0,0,333.2-2.08c3.2,5.68,7.28,9.04,12.56,9.04,6.56,0,9.12-2.72,10.72-13.36a22.332,22.332,0,0,1-7.04-5.12c-.48,7.04-1.28,9.2-2.88,9.2-2.08,0-3.92-1.84-5.6-5.04a58.114,58.114,0,0,0,11.28-11.76Zm89.6-42.56h-21.2v7.2h21.2Zm2.56,11.04H408.64v7.52h27.68ZM434-42.8H412.08v7.12H434ZM412.08-24.48H434v-7.2H412.08Zm14.24,11.6v9.12h-6.64v-9.12Zm7.92-7.52h-22.4V6.88h7.84V3.76h14.56Zm29.36,8.16V-16h7.44v3.76ZM448.24-16h7.52v3.76h-7.52Zm7.52-9.6v3.76h-7.52V-25.6Zm15.28,0v3.76H463.6V-25.6ZM455.28-45.68h9.28v3.44h-9.28Zm0-9.76h9.28v3.2h-9.28Zm28.4,43.2h-4V-32.16H463.6v-2.88h19.92v-7.2h-10.4v-3.44h7.28v-6.56h-7.28v-3.2h8.96v-6.72h-8.96v-5.6h-8.56v5.6h-9.28v-5.6H446.8v5.6h-8.32v6.72h8.32v3.2h-6.88v6.56h6.88v3.44H436.4v7.2h19.36v2.88H440.24v19.92h-4v7.52h4V6.96h8V-4.72h22.8v3.2c0,.96-.32,1.2-1.36,1.28-.96,0-4.48,0-7.6-.16a26.786,26.786,0,0,1,2.16,7.36c5.36,0,9.28-.08,11.92-1.28,2.72-1.2,3.52-3.12,3.52-7.12V-4.72h4Zm101.6,1.2h21.28v-8.24H585.28V-26a35.739,35.739,0,0,1,4.24,3.92,29.717,29.717,0,0,0,7.2-8.24,98.1,98.1,0,0,1,9.04,8.56l5.52-6.56a139.9,139.9,0,0,0-11.04-9.6,51.66,51.66,0,0,0,2.16-9.2l-8.48-.96c-1.04,7.76-3.76,14.16-8.64,18.48V-49.12h-9.2v18.64a93.015,93.015,0,0,0-7.44-7.36,55.08,55.08,0,0,0,1.92-9.6l-8.64-.64c-.96,9.28-4,16.56-10.56,20.96.24-4.24.32-8.16.32-11.6V-51.76h58.64v-8.72H581.44v-7.2h-9.92v7.2h-29.2V-38.8c0,11.68-.48,28.4-6.72,39.84a37.032,37.032,0,0,1,8.08,5.28c4.96-9.12,6.96-22.08,7.68-33.44a53.7,53.7,0,0,1,6.88,5.6,29.96,29.96,0,0,0,7.2-8.56,59.489,59.489,0,0,1,6.08,6.96l4.56-5.44v9.28H556v8.24h20.08v7.92H550.96V5.04h59.92V-3.12h-25.6Z" transform="translate(-6552 -5785)" fill="none" stroke="#fff" stroke-width="4"/>
    <path id="パス_367" data-name="パス 367" d="M-564.4-39.68a130.713,130.713,0,0,0,21.2-17.2l-8.56-7.76c-4.48,5.92-12.8,13.04-20.88,18.08a122.9,122.9,0,0,1-36.4,14.48l5.76,9.76A156.411,156.411,0,0,0-575.76-33.2V-6.96a89.591,89.591,0,0,1-.56,10.48h12.64c-.56-2-.72-6.96-.72-10.48Zm97.68-21.12-7.52,8a166.339,166.339,0,0,1,20,17.28l8.16-8.4C-450.72-48.72-461.12-57.04-466.72-60.8Zm-10,53.28L-470,3.04A86.637,86.637,0,0,0-440.32-8.24c12.88-7.76,23.52-18.8,29.6-29.6l-6.24-11.28C-422-38.32-432.48-26.08-446.08-18A82.455,82.455,0,0,1-476.72-7.52Zm182.48-48.56a25.4,25.4,0,0,1-6.96.88h-16.4l.08-.08c.96-1.68,3.04-5.36,4.96-8.16l-11.6-3.6a35.394,35.394,0,0,1-3.6,8.4,73.228,73.228,0,0,1-25.52,26.56l8.64,6.64a94.145,94.145,0,0,0,21.12-20.64h22.96c-1.2,4.8-4.4,11.36-8.32,17.04-5.36-3.2-10.8-6.24-15.04-8.4l-6.8,7.6c4.08,2.32,9.52,5.6,14.96,9.12A67.652,67.652,0,0,1-345.6-2.8l9.28,8.08A76.355,76.355,0,0,0-306.8-14.64a92.641,92.641,0,0,1,7.44,5.68l7.28-9.36c-2-1.44-4.72-3.28-7.68-5.12a92.086,92.086,0,0,0,11.04-21.92,37.638,37.638,0,0,1,2.64-5.68Zm71.6,31.6c2.96-.24,8.32-.4,12.88-.4h42.96c3.36,0,7.44.32,9.36.4V-37.04c-2.08.16-5.68.48-9.36.48h-42.96c-4.16,0-10-.24-12.88-.48ZM-86.72-60.8l-7.52,8a166.339,166.339,0,0,1,20,17.28l8.16-8.4C-70.72-48.72-81.12-57.04-86.72-60.8Zm-10,53.28L-90,3.04A86.637,86.637,0,0,0-60.32-8.24c12.88-7.76,23.52-18.8,29.6-29.6l-6.24-11.28C-42-38.32-52.48-26.08-66.08-18A82.454,82.454,0,0,1-96.72-7.52ZM94.48-66.88H85.44v34c0,1.04-.4,1.28-1.52,1.36-1.2.08-5.04.08-8.64-.08a35.757,35.757,0,0,1,2.8,8.4c5.6,0,9.68-.24,12.56-1.52,3.04-1.36,3.84-3.6,3.84-8ZM79.6-63.2H70.88v27.04H79.6ZM44.4-48.24v-8.4h6.72v8.4ZM66.88-4.4v-6.4H90v-8.64H66.88v-6.4H60v-14h7.52v-8.4H60v-8.4h5.68v-8.32H29.36v8.32h6.32v8.4H26.64v8.4h8.08c-1.2,4-3.84,7.84-9.76,10.88a40.917,40.917,0,0,1,6.24,6.64A24.411,24.411,0,0,0,43.76-39.84h7.36v15.36h5.92v5.04H33.92v8.64h23.2v6.4H25.84V4.4H97.92V-4.4Zm98.4-41.68V-52.4h48.96v6.32H194.32v-4.56H184.8v4.56ZM225.2-12.64v-8.24H193.6a27.16,27.16,0,0,0,.64-5.04h21.84V-33.6H194.32v-4.8h23.36v-5.28h6.4V-60.72H194.8v-6.96h-9.76v6.96h-29.2v17.04h7.12v5.28H184.8v4.8H164.24v7.68h20.48a36.664,36.664,0,0,1-.8,5.04H155.2v8.24h24.08c-4.4,4.72-12.08,8.88-25.52,11.92a38.823,38.823,0,0,1,5.92,7.68C176,2.56,184.88-3.76,189.6-10.88c6.32,9.92,15.84,15.6,31.04,18a37.014,37.014,0,0,1,5.6-8.32c-12.64-1.36-21.6-5.04-27.28-11.44Zm67.2-44.08h9.76V-46.4H292.4ZM312.08-12l-9.12,2.16V-20.72h8.8v-8.24h-8.8V-38.4h7.68V-64.72H284.4V-38.4h10.24V-8l-3.2.72V-32.72h-7.52V-5.76l-3.52.72,1.84,8.8c8.56-2.08,20-4.8,30.72-7.6Zm32.08-10.72a39.347,39.347,0,0,1-6.32,6.88c-.64-2.16-1.12-4.48-1.68-7.04l19.28-2-.96-8-19.6,1.92c-.24-1.44-.4-2.96-.56-4.56l16.56-1.68L350-44.96l-16.4,1.6c-.08-1.36-.16-2.8-.24-4.24l19.2-1.92-.8-8-3.84.4,3.52-4.16a59.4,59.4,0,0,0-10.96-6.64l-5.2,5.6A95,95,0,0,1,344-56.8l-10.96,1.04c-.08-3.92-.08-7.92,0-11.92h-9.68c0,4.32.08,8.64.24,12.88l-11.04,1.04.88,8.16L324-46.64c.08,1.44.16,2.8.24,4.16l-9.44.96.88,7.92,9.28-.96c.16,1.52.32,3.04.56,4.56L312.8-28.72l.88,8.16,13.12-1.36a84.02,84.02,0,0,0,2.96,11.76,84.1,84.1,0,0,1-20.88,8.48,30.507,30.507,0,0,1,5.6,7.92A98.668,98.668,0,0,0,333.2-2.08c3.2,5.68,7.28,9.04,12.56,9.04,6.56,0,9.12-2.72,10.72-13.36a22.332,22.332,0,0,1-7.04-5.12c-.48,7.04-1.28,9.2-2.88,9.2-2.08,0-3.92-1.84-5.6-5.04a58.114,58.114,0,0,0,11.28-11.76Zm89.6-42.56h-21.2v7.2h21.2Zm2.56,11.04H408.64v7.52h27.68ZM434-42.8H412.08v7.12H434ZM412.08-24.48H434v-7.2H412.08Zm14.24,11.6v9.12h-6.64v-9.12Zm7.92-7.52h-22.4V6.88h7.84V3.76h14.56Zm29.36,8.16V-16h7.44v3.76ZM448.24-16h7.52v3.76h-7.52Zm7.52-9.6v3.76h-7.52V-25.6Zm15.28,0v3.76H463.6V-25.6ZM455.28-45.68h9.28v3.44h-9.28Zm0-9.76h9.28v3.2h-9.28Zm28.4,43.2h-4V-32.16H463.6v-2.88h19.92v-7.2h-10.4v-3.44h7.28v-6.56h-7.28v-3.2h8.96v-6.72h-8.96v-5.6h-8.56v5.6h-9.28v-5.6H446.8v5.6h-8.32v6.72h8.32v3.2h-6.88v6.56h6.88v3.44H436.4v7.2h19.36v2.88H440.24v19.92h-4v7.52h4V6.96h8V-4.72h22.8v3.2c0,.96-.32,1.2-1.36,1.28-.96,0-4.48,0-7.6-.16a26.786,26.786,0,0,1,2.16,7.36c5.36,0,9.28-.08,11.92-1.28,2.72-1.2,3.52-3.12,3.52-7.12V-4.72h4Zm101.6,1.2h21.28v-8.24H585.28V-26a35.739,35.739,0,0,1,4.24,3.92,29.717,29.717,0,0,0,7.2-8.24,98.1,98.1,0,0,1,9.04,8.56l5.52-6.56a139.9,139.9,0,0,0-11.04-9.6,51.66,51.66,0,0,0,2.16-9.2l-8.48-.96c-1.04,7.76-3.76,14.16-8.64,18.48V-49.12h-9.2v18.64a93.015,93.015,0,0,0-7.44-7.36,55.08,55.08,0,0,0,1.92-9.6l-8.64-.64c-.96,9.28-4,16.56-10.56,20.96.24-4.24.32-8.16.32-11.6V-51.76h58.64v-8.72H581.44v-7.2h-9.92v7.2h-29.2V-38.8c0,11.68-.48,28.4-6.72,39.84a37.032,37.032,0,0,1,8.08,5.28c4.96-9.12,6.96-22.08,7.68-33.44a53.7,53.7,0,0,1,6.88,5.6,29.96,29.96,0,0,0,7.2-8.56,59.489,59.489,0,0,1,6.08,6.96l4.56-5.44v9.28H556v8.24h20.08v7.92H550.96V5.04h59.92V-3.12h-25.6Z" transform="translate(-6559 -5791)"/>
  </g>
</svg>
