<svg xmlns="http://www.w3.org/2000/svg" width="30" height="30" viewBox="0 0 30 30">
  <g id="グループ_121" data-name="グループ 121" transform="translate(-740 -485)">
    <rect id="長方形_120" data-name="長方形 120" width="30" height="30" transform="translate(740 485)" fill="#bb0f23"/>
    <path id="pinterest-p-brands" d="M6.695,6.5C3.328,6.5,0,8.745,0,12.378,0,14.688,1.3,16,2.087,16c.325,0,.512-.906.512-1.162,0-.305-.778-.955-.778-2.225A4.435,4.435,0,0,1,6.429,8.1c2.235,0,3.889,1.27,3.889,3.6,0,1.743-.7,5.011-2.963,5.011a1.457,1.457,0,0,1-1.516-1.437c0-1.241.866-2.442.866-3.722,0-2.173-3.082-1.779-3.082.847a3.856,3.856,0,0,0,.315,1.664c-.453,1.949-1.378,4.854-1.378,6.862,0,.62.089,1.231.148,1.851.112.125.056.112.226.049,1.654-2.264,1.595-2.708,2.343-5.671a2.662,2.662,0,0,0,2.274,1.181c3.485,0,5.051-3.4,5.051-6.459C12.6,8.627,9.786,6.5,6.695,6.5Z" transform="translate(748.434 485.451)" fill="#fff"/>
  </g>
</svg>
