<svg xmlns="http://www.w3.org/2000/svg" width="30" height="30" viewBox="0 0 30 30">
  <g id="グループ_120" data-name="グループ 120" transform="translate(-700 -485)">
    <rect id="長方形_120" data-name="長方形 120" width="30" height="30" transform="translate(700 485)" fill="#ef3f56"/>
    <g id="レイヤー_2" data-name="レイヤー 2" transform="translate(707 493.002)">
      <g id="Layer_1" data-name="Layer 1" transform="translate(0 -0.002)">
        <path id="パス_8" data-name="パス 8" d="M15.264,0H1.624A1.589,1.589,0,0,0,0,1.562V6.607a8.419,8.419,0,0,0,16.838,0V1.562A1.556,1.556,0,0,0,15.264,0Zm-2.036,6.26L9.212,10.035a1.046,1.046,0,0,1-.768.326,1.13,1.13,0,0,1-.826-.326L3.662,6.258a1.194,1.194,0,0,1,0-1.654,1.158,1.158,0,0,1,1.624,0L8.444,7.646,11.662,4.6a1.1,1.1,0,0,1,1.574,0A1.259,1.259,0,0,1,13.228,6.258Z" transform="translate(0 0.002)" fill="#fff"/>
      </g>
    </g>
  </g>
</svg>
