<svg xmlns="http://www.w3.org/2000/svg" width="128" height="30" viewBox="0 0 128 30">
  <g id="グループ_104" data-name="グループ 104" transform="translate(-417 -2577)">
    <rect id="長方形_136" data-name="長方形 136" width="128" height="30" transform="translate(417 2577)" fill="#272727"/>
    <path id="パス_10" data-name="パス 10" d="M1.2,0H2.316V-3.492H3.768c1.92,0,3.24-.864,3.24-2.724,0-1.92-1.32-2.58-3.3-2.58H1.2ZM2.316-4.392V-7.9h1.26c1.548,0,2.328.408,2.328,1.68s-.732,1.824-2.28,1.824ZM9.888,0H10.98V-4.188c.432-1.116,1.1-1.5,1.644-1.5a1.542,1.542,0,0,1,.636.108l.2-.96a1.389,1.389,0,0,0-.7-.144A2.25,2.25,0,0,0,10.92-5.328h-.036l-.1-1.188h-.9ZM18.24.156A3.878,3.878,0,0,0,20.4-.516l-.4-.72a2.809,2.809,0,0,1-1.632.516A2.159,2.159,0,0,1,16.212-3H20.6a4.263,4.263,0,0,0,.048-.624c0-1.86-.936-3.06-2.592-3.06a3.152,3.152,0,0,0-2.94,3.432A3.114,3.114,0,0,0,18.24.156ZM16.2-3.78a2,2,0,0,1,1.872-2.028c1.02,0,1.62.708,1.62,2.028ZM24.924,0H26.2l2.316-6.516h-1.08L26.2-2.808c-.192.636-.408,1.308-.6,1.92h-.048c-.2-.612-.408-1.284-.612-1.92L23.712-6.516h-1.14Zm6.048,0h1.092V-6.516H30.972Zm.552-7.86a.714.714,0,0,0,.756-.708.693.693,0,0,0-.756-.708.693.693,0,0,0-.756.708A.714.714,0,0,0,31.524-7.86ZM38,.156a3.111,3.111,0,0,0,3.024-3.408A3.126,3.126,0,0,0,38-6.684,3.126,3.126,0,0,0,34.98-3.252,3.111,3.111,0,0,0,38,.156Zm0-.912c-1.128,0-1.884-1-1.884-2.5s.756-2.52,1.884-2.52,1.9,1.02,1.9,2.52S39.132-.756,38-.756ZM45.84.156A2.8,2.8,0,0,0,48-1.02h.036L48.12,0h.912V-6.516H47.94V-1.9c-.624.78-1.092,1.1-1.764,1.1-.864,0-1.224-.516-1.224-1.728v-4H43.86v4.128C43.86-.732,44.472.156,45.84.156Zm8.292,0c1.536,0,2.376-.876,2.376-1.932,0-1.236-1.044-1.62-1.992-1.98-.732-.276-1.44-.5-1.44-1.128,0-.5.372-.936,1.188-.936a2.452,2.452,0,0,1,1.5.576l.528-.708a3.376,3.376,0,0,0-2.028-.732c-1.416,0-2.244.816-2.244,1.848,0,1.1,1.032,1.548,1.944,1.884.72.276,1.488.576,1.488,1.236,0,.564-.42,1.02-1.284,1.02a2.955,2.955,0,0,1-1.932-.768l-.54.72A3.93,3.93,0,0,0,54.132.156Z" transform="translate(479 2597)" fill="#fff"/>
    <g id="グループ_70" data-name="グループ 70" transform="translate(426.915 2589.5)">
      <line id="線_26" data-name="線 26" x1="35.308" transform="translate(0 6)" fill="none" stroke="#fff" stroke-linecap="round" stroke-width="1"/>
      <line id="線_27" data-name="線 27" x1="6.723" y2="6" fill="none" stroke="#fff" stroke-linecap="round" stroke-width="1"/>
    </g>
  </g>
</svg>
