<svg xmlns="http://www.w3.org/2000/svg" width="60.48" height="51.57" viewBox="0 0 60.48 51.57">
  <path id="パス_366" data-name="パス 366" d="M11.07-20.142c0-8.586,3.78-13.716,9.72-13.716s9.72,5.13,9.72,13.716c0,8.964-3.78,14.364-9.72,14.364S11.07-11.178,11.07-20.142ZM38.988,3.78a14.111,14.111,0,0,1-4.374.648C31,4.428,27.378,3.186,25.542.162c7.938-2.052,13.122-9.4,13.122-20.3,0-12.96-7.29-20.574-17.874-20.574S2.916-33.156,2.916-20.142c0,11.394,5.67,18.954,14.2,20.574A17.452,17.452,0,0,0,33.7,10.854a16.671,16.671,0,0,0,6.7-1.188ZM58.428.756A4.973,4.973,0,0,0,63.4-4.428a4.973,4.973,0,0,0-4.968-5.184,4.963,4.963,0,0,0-4.914,5.184A4.963,4.963,0,0,0,58.428.756Z" transform="translate(-2.916 40.716)"/>
</svg>
