<svg id="レイヤー_1" data-name="レイヤー 1" xmlns="http://www.w3.org/2000/svg" viewBox="0 0 1071.92 86.11"><defs><style>.cls-1{isolation:isolate;}.cls-2{fill:none;stroke:#fff;stroke-width:4px;}</style></defs><g class="cls-1"><path class="cls-2" d="M74.2,41c0,1.76.08,3.68.08,5.76h10a61.84,61.84,0,0,0,8.32-.64V56.76c-2.56-.08-5.6-.24-7.76-.24H74.52c.24,11.68.56,25,.72,35.84.08,5.12-2.88,8.08-9,8.08-4.88,0-9.36-.16-13.92-.48l-.88-10.4a68,68,0,0,0,10.64,1c2,0,2.8-1,2.8-3.36,0-5.36,0-13.36-.16-21.6-7,9.2-20,20.32-32.64,27l-7.36-8.32c15.6-7.36,28.8-18.64,35.2-27.76H38.12c-2.88,0-6.32.16-9.12.32V46.2a76.58,76.58,0,0,0,8.88.56H64.36q-.12-3.12-.24-5.76c-.24-3.44-.48-6-.8-8.08H74.68A68.43,68.43,0,0,0,74.2,41Z" transform="translate(-15.84 -20.45)"/><path class="cls-2" d="M181.16,79c13.68-8.08,24.08-20.32,29.12-31.12l6.24,11.28C210.44,70,199.8,81,186.92,88.76A86.64,86.64,0,0,1,157.24,100l-6.72-10.56A82.45,82.45,0,0,0,181.16,79Zm0-25.84L173,61.48A166.34,166.34,0,0,0,153,44.2l7.52-8C166.12,40,176.52,48.28,181.16,53.16Z" transform="translate(-15.84 -20.45)"/><path class="cls-2" d="M332,62.2c-2.4,7.76-5.84,15.52-11.84,22.16a59.91,59.91,0,0,1-28.56,17.28l-7.92-9c12-2.48,21.6-7.76,27.68-14a34.71,34.71,0,0,0,8.24-13.84H280.92c-1.92,0-5.92.08-9.28.4V54.76c3.36.24,6.8.48,9.28.48h39.6a16.88,16.88,0,0,0,5.84-.8l7.12,4.4A29.64,29.64,0,0,0,332,62.2ZM287.32,36h30.8a75.43,75.43,0,0,0,8.64-.4V46c-2.16-.16-5.92-.24-8.8-.24H287.32c-2.56,0-6,.08-8.32.24V35.64A67.44,67.44,0,0,0,287.32,36Z" transform="translate(-15.84 -20.45)"/><path class="cls-2" d="M424.68,51.56a102.56,102.56,0,0,0,22.56-19.44l8.64,8.24a146.74,146.74,0,0,1-21.52,17.36V90c0,3.52.16,8.48.72,10.48H422.44A89.59,89.59,0,0,0,423,90V64.44A160.3,160.3,0,0,1,394.76,76l-5-10.08A128.64,128.64,0,0,0,424.68,51.56Z" transform="translate(-15.84 -20.45)"/><path class="cls-2" d="M543,79c13.68-8.08,24.08-20.32,29.12-31.12l6.25,11.28C572.29,70,561.64,81,548.76,88.76A86.64,86.64,0,0,1,519.08,100l-6.72-10.56A82.45,82.45,0,0,0,543,79Zm0-25.84-8.16,8.32a166.34,166.34,0,0,0-20-17.28l7.52-8C528,40,538.36,48.28,543,53.16Z" transform="translate(-15.84 -20.45)"/></g><g class="cls-1"><path class="cls-2" d="M670.24,42.76c-.72,2.48-1.52,4.88-2.16,7.2h30.4v54H688.8V99.88H642.64V104h-9.2V50h24.64c.48-2.32,1-4.8,1.28-7.2h-29.2v-9h72v9Zm-27.6,48.4h8.24V58.76h-8.24Zm29-32.4H659.36v5.52H671.6Zm0,13H659.36V77.8H671.6ZM659.36,91.16H671.6V85.24H659.36Zm29.44-32.4h-8.64v32.4h8.64Z" transform="translate(-15.84 -20.45)"/><path class="cls-2" d="M787,50h-30.4V42.44H787Zm-2.56,49.76H768.16v3.12h-8V75.56h24.32Zm-.08-38.88h-24V53.56h24Zm-24,3.68h24v7.12h-24Zm23.76-25.6H760.64v-7.2h23.52Zm-16,44.16v9.2h8.24v-9.2ZM815.44,82c2.16,4.88,7,10.48,16.4,14A75.17,75.17,0,0,0,826.4,104c-10.08-3.76-15.84-12.64-17.28-17.6-1.6,5-8,13.6-19,17.6a39.88,39.88,0,0,0-5.2-7.76c15.28-5.36,19.36-15.84,19.36-21.2V63h9.68V75.08a17.24,17.24,0,0,0,1.52,6.72A86.49,86.49,0,0,0,821.76,68l9.36,2.88a153.87,153.87,0,0,1-8.4,13.76Zm-30.16.64c3.52-3,5.92-8.64,7-14.08l8.32,1.68c-1,6.16-3.52,12.48-7.44,16.32ZM824.8,66.36c-3.36-3.2-9.92-7.76-16-11.6C805.52,60,800.32,64,791.68,67a23.32,23.32,0,0,0-5.28-7.52C803,54.28,804.32,45.16,805,29.32h9.2a84.4,84.4,0,0,1-2,17.44c6.56,3.84,14.64,8.8,19,12.4ZM801,35.56c-.8,5.28-2.88,11.2-6.32,14.8l-7.44-3.2c3-2.88,5.12-8.24,6-13.2Zm29.44.8c-2.64,4.64-5.52,9.52-7.76,12.88l-7-2.72a70.26,70.26,0,0,0,5.76-13Z" transform="translate(-15.84 -20.45)"/><path class="cls-2" d="M959,62.36c-3.6,7.52-8.32,15.52-12.8,20.88l-8.16-4.72a101.12,101.12,0,0,0,6.24-9.84H927.44V93.56c0,5-1.12,7.44-5,8.8-3.68,1.36-8.88,1.44-15.76,1.44a32.4,32.4,0,0,0-3.44-9.12c4.72.16,10.64.16,12.24.16s2-.4,2-1.6V68.68h-31.6v-9h36.4c-5.92-2.48-12.4-5-17.52-7l4.72-7.2c3.6,1.28,8.08,2.8,12.56,4.48a83.27,83.27,0,0,0,10.16-7.52H893.6V33.72h47.84l2.16-.56,6.8,5.36a131.89,131.89,0,0,1-18.48,15.2c2.64,1,5,1.92,6.88,2.8l-1.92,3.12h12.64l1.76-.64Z" transform="translate(-15.84 -20.45)"/><path class="cls-2" d="M1023.52,77.4c-.8,7.52-2.48,15.52-4.8,20.64a47,47,0,0,0-7.28-3.44c2.32-4.72,3.6-11.84,4.24-18.56Zm62.24-34.64s0,3.2-.08,4.4c-1,35-2.16,47.68-5.52,51.92-2.24,3-4.32,3.92-7.68,4.4-2.88.48-7.84.4-12.48.24a22.74,22.74,0,0,0-3.2-9.6c5,.48,9.6.48,11.76.48a4,4,0,0,0,3.36-1.36c2.4-2.48,3.6-14.16,4.48-41.44h-22.08a65.91,65.91,0,0,1-6.8,10.32,61.13,61.13,0,0,0-7.52-5.28c2.8,5,5.36,11,6.24,15l-7.2,3.36a43.53,43.53,0,0,0-1.12-4.32l-4.56.32V104H1025V71.8l-11.84.8-.8-8.32,5.92-.24c1.2-1.52,2.48-3.2,3.68-5a75.37,75.37,0,0,0-9.6-11l4.48-6.56,1.92,1.68a105.75,105.75,0,0,0,5.84-13.92l8.4,3c-2.88,5.52-6.16,11.68-9,16.16,1,1.12,2,2.32,2.8,3.36a125.09,125.09,0,0,0,7.36-13.12l8.08,3.36a257.54,257.54,0,0,1-15.28,21.68l8.08-.32c-.88-1.92-1.84-3.84-2.8-5.52l6.72-3,.56,1c5.92-6.32,10.64-16.56,13.2-26.64l9.76,2.08a91.75,91.75,0,0,1-3.92,11.44Zm-45.2,32.8a91.23,91.23,0,0,1,5.2,15l-7.52,2.64a81.42,81.42,0,0,0-4.72-15.44Zm18.72,8.16c-1.52-5-5.68-12.72-9.76-18.48l7.6-3.84c4.16,5.52,8.72,12.88,10.4,17.92Z" transform="translate(-15.84 -20.45)"/></g><g class="cls-1"><path d="M65.28,32.21c0,1.76.08,3.68.08,5.76h10a61.84,61.84,0,0,0,8.32-.64V48c-2.56-.08-5.6-.24-7.76-.24H65.6c.24,11.68.56,25,.72,35.84.08,5.12-2.88,8.08-9,8.08-4.88,0-9.36-.16-13.92-.48l-.88-10.4a68,68,0,0,0,10.64,1c2,0,2.8-1,2.8-3.36C56,73,56,65,55.84,56.77c-7,9.2-20,20.32-32.64,27l-7.36-8.32c15.6-7.36,28.8-18.64,35.2-27.76H29.2c-2.88,0-6.32.16-9.12.32V37.41A76.58,76.58,0,0,0,29,38H55.44q-.12-3.12-.24-5.76c-.24-3.44-.48-6-.8-8.08H65.76A68.43,68.43,0,0,0,65.28,32.21Z" transform="translate(-15.84 -20.45)"/><path d="M172.24,70.21c13.68-8.08,24.08-20.32,29.12-31.12l6.24,11.28C201.52,61.17,190.88,72.21,178,80a86.64,86.64,0,0,1-29.68,11.28L141.6,80.69A82.45,82.45,0,0,0,172.24,70.21Zm0-25.84-8.16,8.32a166.34,166.34,0,0,0-20-17.28l7.52-8C157.2,31.17,167.6,39.49,172.24,44.37Z" transform="translate(-15.84 -20.45)"/><path d="M323,53.41c-2.4,7.76-5.84,15.52-11.84,22.16a59.91,59.91,0,0,1-28.56,17.28l-7.92-9c12-2.48,21.6-7.76,27.68-14A34.71,34.71,0,0,0,310.64,56H272c-1.92,0-5.92.08-9.28.4V46c3.36.24,6.8.48,9.28.48h39.6a16.88,16.88,0,0,0,5.84-.8l7.12,4.4A29.64,29.64,0,0,0,323,53.41ZM278.4,27.25h30.8a75.43,75.43,0,0,0,8.64-.4V37.17c-2.16-.16-5.92-.24-8.8-.24H278.4c-2.56,0-6,.08-8.32.24V26.85A67.44,67.44,0,0,0,278.4,27.25Z" transform="translate(-15.84 -20.45)"/><path d="M415.76,42.77a102.56,102.56,0,0,0,22.56-19.44L447,31.57a146.74,146.74,0,0,1-21.52,17.36V81.25c0,3.52.16,8.48.72,10.48H413.52a89.59,89.59,0,0,0,.56-10.48V55.65a160.3,160.3,0,0,1-28.24,11.52l-5-10.08A128.64,128.64,0,0,0,415.76,42.77Z" transform="translate(-15.84 -20.45)"/><path d="M534.08,70.21c13.68-8.08,24.08-20.32,29.12-31.12l6.24,11.28c-6.08,10.8-16.72,21.84-29.6,29.6a86.64,86.64,0,0,1-29.68,11.28l-6.72-10.56A82.45,82.45,0,0,0,534.08,70.21Zm0-25.84-8.16,8.32a166.34,166.34,0,0,0-20-17.28l7.52-8C519,31.17,529.44,39.49,534.08,44.37Z" transform="translate(-15.84 -20.45)"/></g><g class="cls-1"><path d="M663.58,34c-.72,2.48-1.52,4.88-2.16,7.2h30.4v54h-9.68V91.09H636v4.08h-9.2v-54h24.64c.48-2.32,1-4.8,1.28-7.2H623.5V25h72v9ZM636,82.37h8.24V50H636Zm29-32.4H652.7v5.52h12.24Zm0,13H652.7V69h12.24ZM652.7,82.37h12.24V76.45H652.7ZM682.14,50H673.5v32.4h8.64Z" transform="translate(-15.84 -20.45)"/><path d="M780.38,41.17H750V33.65h30.4Zm-2.56,49.76H761.5v3.12h-8V66.77h24.32Zm-.08-38.88h-24V44.77h24Zm-24,3.68h24v7.12h-24Zm23.76-25.6H754v-7.2H777.5Zm-16,44.16v9.2h8.24v-9.2Zm47.28-1.12c2.16,4.88,7,10.48,16.4,14a75.17,75.17,0,0,0-5.44,8.08c-10.08-3.76-15.84-12.64-17.28-17.6-1.6,5-8,13.6-19,17.6a39.88,39.88,0,0,0-5.2-7.76c15.28-5.36,19.36-15.84,19.36-21.2V54.21h9.68V66.29A17.24,17.24,0,0,0,808.78,73a86.49,86.49,0,0,0,6.32-13.84l9.36,2.88a153.87,153.87,0,0,1-8.4,13.76Zm-30.16.64c3.52-3,5.92-8.64,7-14.08l8.32,1.68c-1,6.16-3.52,12.48-7.44,16.32Zm39.52-16.24c-3.36-3.2-9.92-7.76-16-11.6-3.28,5.28-8.48,9.28-17.12,12.24a23.32,23.32,0,0,0-5.28-7.52c16.64-5.2,17.92-14.32,18.56-30.16h9.2a84.4,84.4,0,0,1-2,17.44c6.56,3.84,14.64,8.8,19,12.4ZM794.3,26.77c-.8,5.28-2.88,11.2-6.32,14.8l-7.44-3.2c3-2.88,5.12-8.24,6-13.2Zm29.44.8c-2.64,4.64-5.52,9.52-7.76,12.88l-7-2.72a70.26,70.26,0,0,0,5.76-13Z" transform="translate(-15.84 -20.45)"/><path d="M952.38,53.57c-3.6,7.52-8.32,15.52-12.8,20.88l-8.16-4.72a101.12,101.12,0,0,0,6.24-9.84H920.78V84.77c0,5-1.12,7.44-5,8.8-3.68,1.36-8.88,1.44-15.76,1.44a32.4,32.4,0,0,0-3.44-9.12c4.72.16,10.64.16,12.24.16s2-.4,2-1.6V59.89h-31.6v-9h36.4c-5.92-2.48-12.4-5-17.52-7l4.72-7.2c3.6,1.28,8.08,2.8,12.56,4.48a83.27,83.27,0,0,0,10.16-7.52H886.94V24.93h47.84l2.16-.56,6.8,5.36a131.89,131.89,0,0,1-18.48,15.2c2.64,1,5,1.92,6.88,2.8l-1.92,3.12h12.64l1.76-.64Z" transform="translate(-15.84 -20.45)"/><path d="M1016.86,68.61c-.8,7.52-2.48,15.52-4.8,20.64a47,47,0,0,0-7.28-3.44c2.32-4.72,3.6-11.84,4.24-18.56ZM1079.1,34s0,3.2-.08,4.4c-1,35-2.16,47.68-5.52,51.92-2.24,3-4.32,3.92-7.68,4.4-2.88.48-7.84.4-12.48.24a22.74,22.74,0,0,0-3.2-9.6c5,.48,9.6.48,11.76.48a4,4,0,0,0,3.36-1.36c2.4-2.48,3.6-14.16,4.48-41.44h-22.08a65.91,65.91,0,0,1-6.8,10.32,61.13,61.13,0,0,0-7.52-5.28c2.8,5,5.36,11,6.24,15l-7.2,3.36a43.53,43.53,0,0,0-1.12-4.32l-4.56.32V95.25h-8.4V63l-11.84.8-.8-8.32,5.92-.24c1.2-1.52,2.48-3.2,3.68-5a75.37,75.37,0,0,0-9.6-11l4.48-6.56,1.92,1.68a105.75,105.75,0,0,0,5.84-13.92l8.4,3c-2.88,5.52-6.16,11.68-9,16.16,1,1.12,2,2.32,2.8,3.36a125.09,125.09,0,0,0,7.36-13.12l8.08,3.36a257.54,257.54,0,0,1-15.28,21.68l8.08-.32c-.88-1.92-1.84-3.84-2.8-5.52l6.72-3,.56,1c5.92-6.32,10.64-16.56,13.2-26.64l9.76,2.08A91.75,91.75,0,0,1,1051.82,34Zm-45.2,32.8a91.23,91.23,0,0,1,5.2,15l-7.52,2.64A81.42,81.42,0,0,0,1026.86,69Zm18.72,8.16c-1.52-5-5.68-12.72-9.76-18.48l7.6-3.84c4.16,5.52,8.72,12.88,10.4,17.92Z" transform="translate(-15.84 -20.45)"/></g></svg>