<svg xmlns="http://www.w3.org/2000/svg" width="30" height="30" viewBox="0 0 30 30">
  <g id="グループ_118" data-name="グループ 118" transform="translate(-620 -485)">
    <rect id="長方形_120" data-name="長方形 120" width="30" height="30" transform="translate(620 485)" fill="#1ca4df"/>
    <g id="レイヤー_2" data-name="レイヤー 2" transform="translate(626.307 493.541)">
      <g id="Logo_FIXED" data-name="Logo — FIXED" transform="translate(0 0.037)">
        <path id="パス_5" data-name="パス 5" d="M5.25,13.6a9.678,9.678,0,0,0,9.745-9.745q0-.222-.01-.443A6.96,6.96,0,0,0,16.694,1.64a6.818,6.818,0,0,1-1.967.54A3.44,3.44,0,0,0,16.233.286a6.888,6.888,0,0,1-2.175.831A3.428,3.428,0,0,0,8.221,4.241,9.722,9.722,0,0,1,1.162.662a3.428,3.428,0,0,0,1.06,4.573A3.4,3.4,0,0,1,.671,4.806c0,.015,0,.029,0,.043A3.426,3.426,0,0,0,3.419,8.207a3.434,3.434,0,0,1-1.547.059,3.428,3.428,0,0,0,3.2,2.378A6.872,6.872,0,0,1,.818,12.113,7.024,7.024,0,0,1,0,12.063,9.694,9.694,0,0,0,5.25,13.6" transform="translate(0 -0.037)" fill="#fff"/>
      </g>
    </g>
  </g>
</svg>
