<svg id="レイヤー_1" data-name="レイヤー 1" xmlns="http://www.w3.org/2000/svg" viewBox="0 0 682.61 506.66"><defs><style>.cls-1,.cls-2{fill:none;}.cls-1{stroke:#000;stroke-miterlimit:10;stroke-width:10px;}.cls-3{fill:#cbcbcb;}.cls-4{fill:#ffe050;}.cls-5{fill:#fff;}.cls-6{fill:#282828;}</style></defs><line class="cls-1" y1="401.3" x2="682.61" y2="401.3"/><g id="_5" data-name=" 5"><g id="_森薄入る" data-name=" 森薄入る"><path class="cls-2" d="M263.47,421c3.31-2.58,5.41-5.27,6.24-7.64a5,5,0,0,0-.41-4.81,9,9,0,0,0-6.12-2.94,4.79,4.79,0,0,0-1.13.14c-1.67.47-2.69,2.21-3,5.18C258.55,415.44,261.13,418.82,263.47,421Z" transform="translate(-94.75 -204.91)"/><path class="cls-2" d="M442.36,411.8a23.12,23.12,0,0,0,.78-6.24A31.25,31.25,0,0,0,442.36,411.8Z" transform="translate(-94.75 -204.91)"/><path class="cls-2" d="M326,647.41l-.41-.37Z" transform="translate(-94.75 -204.91)"/><polygon class="cls-2" points="250.94 458.12 250.94 458.12 250.94 458.12 250.94 458.12"/><polygon class="cls-2" points="277.9 474.89 277.9 474.89 277.9 474.89 277.9 474.89"/><path class="cls-2" d="M325,646.45l-.38-.35Z" transform="translate(-94.75 -204.91)"/><path class="cls-2" d="M323.94,645.49l-.3-.3C323.73,645.29,323.87,645.39,323.94,645.49Z" transform="translate(-94.75 -204.91)"/><path class="cls-2" d="M330,650.85l-.41-.33Z" transform="translate(-94.75 -204.91)"/><path class="cls-2" d="M342.43,660.6l-.38-.29Z" transform="translate(-94.75 -204.91)"/><path class="cls-2" d="M340.85,659.4l-.45-.35Z" transform="translate(-94.75 -204.91)"/><path class="cls-2" d="M339.25,658.18l-.44-.34Z" transform="translate(-94.75 -204.91)"/><path class="cls-2" d="M374.53,680.26h0Z" transform="translate(-94.75 -204.91)"/><path class="cls-2" d="M344,661.78Z" transform="translate(-94.75 -204.91)"/><path class="cls-2" d="M337.56,656.88l-.29-.23Z" transform="translate(-94.75 -204.91)"/><path class="cls-2" d="M332.84,653.15l-.49-.39Z" transform="translate(-94.75 -204.91)"/><path class="cls-2" d="M328.37,649.46l-.14-.13Z" transform="translate(-94.75 -204.91)"/><path class="cls-2" d="M334.28,654.3l-.45-.36Z" transform="translate(-94.75 -204.91)"/><path class="cls-2" d="M335.73,655.45l-.12-.09Z" transform="translate(-94.75 -204.91)"/><path class="cls-2" d="M327.17,648.43l-.38-.34Z" transform="translate(-94.75 -204.91)"/><path class="cls-2" d="M331.44,652l-.48-.4Z" transform="translate(-94.75 -204.91)"/><path class="cls-2" d="M337.73,595.87l2.12,1c.85-5.88,3-19.29,7.17-36.36-5.81,10.73-12.13,21.7-18.26,31.2C331.67,593,334.65,594.4,337.73,595.87Z" transform="translate(-94.75 -204.91)"/><path class="cls-2" d="M386.66,610.4H365.22a207.91,207.91,0,0,1,19.5,13Z" transform="translate(-94.75 -204.91)"/></g><path class="cls-3" d="M432.22,440c-.61,0-1.2,0-1.78,0-13.86,0-20.52-6.69-23.29-10.77a56,56,0,0,1-7.91,5.17c3.38,2.7,16.88,12.64,32.77,12,8.38-.34,18-6.17,21.39-8.36l-.81-.52c-2.27-1.56-4.08-2.82-5.46-3.83C445,436.13,440.42,439.67,432.22,440Z" transform="translate(-94.75 -204.91)"/><path class="cls-3" d="M457.52,440.93l-.15.14c-.55.39-13.45,9.58-25.15,10h-1.69c-19.45,0-34.57-13.3-35.23-13.89a2.54,2.54,0,0,1-.37-.43c-1.52.83-3.12,1.69-4.85,2.61-20.93,11.19-52.56,28.08-70.47,58.06-4.78,8-10.08,16.29-15.69,25.09-19.77,31-42.18,66.18-38.13,84.2a13.24,13.24,0,0,0,6.14,8.74,215.56,215.56,0,0,0,24.18,12.61c7.35,3.41,14,6.52,19.43,10.14.58.39,1.15.78,1.71,1.19-.55-5.46-.38-13.33,3.42-19.82a21,21,0,0,1,4.17-5.12,37.58,37.58,0,0,1,15.31-7.8,54.88,54.88,0,0,1,6.35-1.27l-2.5-1.27a452.05,452.05,0,0,0-47.43-20.52,2.34,2.34,0,1,1,1.56-4.42c.14,0,11.22,4,26.32,10.58,19.5-30.1,40.44-74.55,41.66-79.4a2.34,2.34,0,0,1,4.54,1.13c-.73,2.92-6,14.82-13.51,29.65A401.62,401.62,0,0,0,344.27,599q4.32,2.15,8.39,4.31a3.82,3.82,0,0,1,2.3-.78h32.88l4.91-33a2.35,2.35,0,0,1,2.15-2L508,559.84c-11.65-34.14-28.12-69.91-28.39-70.44a2.34,2.34,0,0,1,4.25-1.92c1,2.17,17.48,37.88,29,72.09l30.77-2.11c-11.38-28.86-24.81-54-39.25-73C488.72,463.85,469.91,449.64,457.52,440.93Z" transform="translate(-94.75 -204.91)"/><rect class="cls-4" x="213.54" y="258.78" width="33.04" height="4.41" transform="translate(-188.22 -71.85) rotate(-27.03)"/><path class="cls-4" d="M202.9,418.52a2,2,0,0,0-2.43,3.05c.78.61,16.53,13,35.21,13a39.5,39.5,0,0,0,9.44-1.12,59.59,59.59,0,0,0,18.24-7.57c11,7.67,30.42,9.62,49.64,4.75a2,2,0,1,0-1-3.79c-14.28,3.63-33.74,3.9-45.34-3.42a21,21,0,0,0,6.7-8.75,8.84,8.84,0,0,0-1-8.47c-1.89-2.48-7-5.4-11.4-4.18-2.34.64-5.21,2.64-5.84,8.51-.51,4.68,1.22,9.05,5,12.75a56.26,56.26,0,0,1-16,6.4C223.56,434.69,203.1,418.68,202.9,418.52Zm56.17-7.62c.32-3,1.33-4.68,3-5.18a4.32,4.32,0,0,1,1.13-.14,8.87,8.87,0,0,1,6.11,2.93,5,5,0,0,1,.42,4.8c-.84,2.34-2.94,5.06-6.24,7.64-2.37-2.13-4.95-5.51-4.46-10.05Z" transform="translate(-94.75 -204.91)"/><path class="cls-5" d="M246.64,298.81a1.94,1.94,0,0,1,2.67.66l14.34,23.8c2.87-12,7.16-33.69,4.37-40.09-3.31-7.57-13.63-16.15-16.82-18.72l-15.35,7.8-15.35,7.8c.18,4.07,1.06,17.46,5.25,24.6,3.42,5.83,22.41,14.72,34,19.56L246,301.48a1.93,1.93,0,0,1,.67-2.67Z" transform="translate(-94.75 -204.91)"/><path class="cls-5" d="M356.9,654.47c.24.14,1,.58,1.9,1,9,4.81,15.14,8.79,19.35,12.13L380,655.16a55.5,55.5,0,0,0-12-5.46,2.34,2.34,0,0,1,1.17-4.53l.13,0a57.17,57.17,0,0,1,11.47,5l1.14-7.65c-1.87-1.1-3.07-1.76-3.12-1.77a2.34,2.34,0,0,1,2.25-4.1c.09,0,.66.35,1.57.88l1.35-8.86a221.73,221.73,0,0,0-28.22-18.25h-.78a3.89,3.89,0,0,1-2.3-.78c-4.86.17-16.74,1.34-24.72,8.41-8.85,7.8-5.88,23.17-5.17,26.28l.86.86.31.29c.1.11.42.41.65.61l.38.36.66.61.41.37.78.66.38.34,1.05.9.14.13,1.27,1.06.39.32.93.78.49.4.91.78.48.39,1,.78.46.36,1.32,1,.13.1,1.56,1.2.29.23,1.25,1,.44.34,1.15.87.45.35,1.2.91.38.29,1.56,1.14h0l1.7,1.23h0l2.12,1.56.22.16,2.06,1.51.27.2,4,2.88.36.26,1.82,1.29.26.19,1.57,1.12.3.21,1.6,1.12.38.27,1.52,1.06a11.12,11.12,0,0,0,1.23.78l.32.2c.34.22.68.42,1,.61l.19.12c.41.23.78.45,1.23.66l.21.11c.36.18.71.36,1.07.52l.18.08c.85.39,1.66.72,2.47,1h.11c.82.3,1.63.55,2.41.78h0c.63.18,1.24.33,1.83.44h.06c.59.13,1.16.22,1.7.3l1.11-7.54c-3.64-3.23-10-7.59-20.76-13.38-1.22-.66-1.82-1-2.17-1.2a2.34,2.34,0,0,1,2.26-4.1l.23.14Z" transform="translate(-94.75 -204.91)"/><polygon class="cls-5" points="279.15 493.61 205.2 455.53 205.67 462.38 279.62 500.47 279.62 500.47 279.15 493.61 279.15 493.61"/><path class="cls-5" d="M591.06,606.5l.58-3.9,6.57-44.22-47.93,3.28-3.63.25-1.25.09-31,2.12-4.85.33-112.45,7.7-4.52,30.43-.42,2.76-.17,1.14-.57,3.9L389,626.63l-.78,5.46-.29,2-.89,6-.78,5-1.16,7.81-.78,5.31-2,13.17-.95,6.34-.42,2.84-.39,2.62-.32,2.15-1.36,9.19L580,680.75l10.44-70.33Zm-78.48,32.57c-3.5,11.53-13.21,19.2-23.18,19.2a19.82,19.82,0,0,1-5.57-.83c-11.7-3.55-17.83-17.57-13.68-31.25h0a28.25,28.25,0,0,1,11.36-15.56l.38-.23a20.48,20.48,0,0,1,17-2.58,19.19,19.19,0,0,1,5.33,2.58c8.12,5.61,11.81,17.26,8.35,28.67Z" transform="translate(-94.75 -204.91)"/><path class="cls-5" d="M497.54,612.3a16,16,0,0,0-13.47,2.25,23.53,23.53,0,0,0-9.44,13h0C471.22,638.75,476,650.17,485.2,653s19.5-4,22.9-15.25S506.77,615.1,497.54,612.3Z" transform="translate(-94.75 -204.91)"/><polygon class="cls-5" points="384.52 487.42 283.9 494.31 284.15 498.14 284.42 501.96 485.67 488.17 485.15 480.52 384.52 487.42"/><path class="cls-5" d="M487.44,366.85a42.51,42.51,0,0,1,2-7.34c3-13.45,5.62-36.45,6.24-55.62l-4.13-.78a2.34,2.34,0,0,1-1.82-1.73l-.33-1.33v.78a2.34,2.34,0,0,1-2.34,2.34H459.62a2.33,2.33,0,0,1-2.27-1.76L451.53,279v21.8a2.35,2.35,0,0,1-2.34,2.35H449l-36.79-2.75a2.33,2.33,0,0,1-2.09-1.75l-2.61-10.21-1,12a2.35,2.35,0,0,1-1.95,2.1L392,304.68c1.45,9.71,7.33,48.5,13.06,78.56.48,2.52,1,5,1.44,7.37a2.34,2.34,0,0,1,2,1.56v.08c10.85,6.33,21.85,7.7,31.4,7.8h.58C454,399.69,482.39,381.23,487.44,366.85Zm-58.25-43.1a2.34,2.34,0,0,1,2.7,1.91l2.55,14.82a2.34,2.34,0,0,1-1.9,2.71h-.41a2.33,2.33,0,0,1-2.3-1.94l-2.55-14.82A2.34,2.34,0,0,1,429.19,323.75Zm30.43,51.86h-.23c-30.14-2.91-30.5-5-30.82-6.88a2.34,2.34,0,0,1,4.14-1.85c2.54,1.14,15.81,3,27.13,4.08a2.34,2.34,0,1,1-.22,4.68Zm2.11-18.42a11.51,11.51,0,0,1-6.59,6.25,2.12,2.12,0,0,1-.7.1,2.34,2.34,0,0,1-.71-4.57,6.77,6.77,0,0,0,3.66-3.55c.17-1.88-4.49-9.21-10-15.76a2.34,2.34,0,1,1,3.46-3.15.69.69,0,0,1,.11.13c.13.15,3.12,3.7,6,7.8C462.51,352.51,462.49,355.4,461.73,357.19Zm1.63-16.75a2,2,0,0,1-.49.05,2.34,2.34,0,0,1-2.29-1.85l-3.3-15.38a2.34,2.34,0,0,1,4.58-1l3.29,15.37a2.35,2.35,0,0,1-1.79,2.79Z" transform="translate(-94.75 -204.91)"/><path class="cls-5" d="M369.65,346.39a167.73,167.73,0,0,1-5.8-27.7,10,10,0,0,0-5-2.34c-2.91-.34-5.93,1.08-9,4.22-.87,2.91-.21,7.14,1.95,11.6C355.08,339,361.93,346.07,369.65,346.39Z" transform="translate(-94.75 -204.91)"/><path class="cls-5" d="M432,435.32c6.74-.28,10.21-3.12,11.7-4.81-8.35-9.7-6-22.76-5.18-25.83-10.92-.29-19.95-2.28-28.18-6.24,1.9,7.38,4,19.5,0,27C411.82,428.24,417.35,435.91,432,435.32Z" transform="translate(-94.75 -204.91)"/><path class="cls-5" d="M359.54,678.72C357.1,677,339.77,665,327.66,655l-22.51,2.86,69.17,35.6,1.23-8.28A38,38,0,0,1,359.54,678.72Z" transform="translate(-94.75 -204.91)"/><path class="cls-6" d="M503.94,380.89c3.59-18.39-.44-55.87-2.34-71l-6.71,54c3,8.82,2.34,29.2,1.49,42.28A127.37,127.37,0,0,0,503.94,380.89Z" transform="translate(-94.75 -204.91)"/><path class="cls-6" d="M489.41,375.29c-7.69,15.43-27.06,23.64-37,27.87-1.7.72-3.56,1.51-4.61,2,.28,2.77-.6,7-1.5,10.41l11.79,1.19,6.39-15.31a2.34,2.34,0,0,1,4.5.9v12.67l13.89-1.48,5.31-24.46C488.64,384.5,489.07,379.64,489.41,375.29Z" transform="translate(-94.75 -204.91)"/><path class="cls-6" d="M352.18,400l1.71-7.57a2.34,2.34,0,0,1,4.46-.33l5.79,14.9,13.56,3.76-1.43-11a2.34,2.34,0,0,1,4.4-1.38L387,410.57l8.68-.67C383.45,386.79,372.94,360,369.86,352c-.12-.32-.24-.61-.33-.87-9.72-.34-17.95-8.52-22-16.9-2.89-6-3.51-11.76-1.86-15.94a9.94,9.94,0,0,1,1.87-3.08,16.94,16.94,0,0,1,14.14-5.77c-.37-5.15.33-13.1,1.4-21.23a160.82,160.82,0,0,1,5.12-30.27,2.34,2.34,0,0,1,4.55,1.07c-.46,2.34-1.06,5.46-1.7,9-1.13,6.24-2.34,13.79-3.33,21a154.16,154.16,0,0,0,.6,27.51c.14,1.42.31,2.81.5,4.18.09.6.17,1.2.27,1.79s.15,1.06.24,1.56c.7,4.43,1.56,8.71,2.57,12.81.91,3.73,1.92,7.32,3,10.76.35,1.1.7,2.17,1.07,3.24a173.83,173.83,0,0,0,6.84,17.17c.66,1.41,1.32,2.77,2,4.13,2.19,4.43,4.44,8.54,6.66,12.29a177.49,177.49,0,0,0,12.94,19c-.68-3-1.37-6.25-2.07-9.63-.23-1.1-.45-2.23-.68-3.37s-.46-2.34-.69-3.51c-6.66-34.23-13.58-81.3-14-83.88a2.35,2.35,0,0,1,1.94-2.65l13-2.17,2-24a2.34,2.34,0,0,1,4.61-.39l5.61,22,32.6,2.43v-37.5a2.34,2.34,0,0,1,4.61-.59l10,38.34h23.3V280.74a2.34,2.34,0,0,1,4.61-.56l4.58,18.58,1.88.37,2.29.44,2.29.43,3.12.61h0l.29.06c-.38-7-2-25.6-8.58-44-10.93-30.52-29.77-46.1-56-46.32h-.29c-.63-.08-63.51-8.06-86.59,32.34,0,.07-7.32,14-12.26,36.24a190.76,190.76,0,0,0,1.43,88.76Z" transform="translate(-94.75 -204.91)"/><path d="M596.37,602.51l6.9-46.42a2.34,2.34,0,0,0-2-2.66,2.9,2.9,0,0,0-.51,0L548.52,557c-11.67-29.74-25.5-55.81-40.41-75.41-18.37-24.13-40.8-39.61-52.86-47.93a74.9,74.9,0,0,1-6.87-5,19.47,19.47,0,0,1-5-8.63l16,1.62h.24a2.35,2.35,0,0,0,2.16-1.43l2.56-6.14v3.59a2.34,2.34,0,0,0,2.32,2.36l.27,0,18.16-2a2.32,2.32,0,0,0,2-1.83L492.34,392c0,1.08-.06,2.2-.1,3.38-.41,11.64-1.41,22-1.43,22.06a2.34,2.34,0,0,0,2.11,2.55h.23a2.33,2.33,0,0,0,1.94-1c.36-.51,8.76-13.08,13.46-37.21,4.08-20.94-1.1-63.74-2.72-75.94a2.33,2.33,0,0,0,2.76-2.33,165,165,0,0,0-8.92-48.32c-11.49-32.11-32.31-49.24-60.24-49.52a135.9,135.9,0,0,0-36,.95c-25.87,4.16-45,15.83-55.23,33.81-.31.58-7.61,14.46-12.69,37.32A195.67,195.67,0,0,0,337,368.9l.05.14,13.35,40.37a2.34,2.34,0,0,0,4.51-.21l1.85-8.32,3.44,8.86a2.36,2.36,0,0,0,1.56,1.41l18.13,5a2.27,2.27,0,0,0,.63.08,2.34,2.34,0,0,0,2.36-2.32c0-.1,0-.21,0-.31l-.17-1.26.9,1.75a2.39,2.39,0,0,0,2.26,1.26l13.8-1.07a2.34,2.34,0,0,0,1.88-3.45c-2-3.62-3.9-7.36-5.78-11.14a130.9,130.9,0,0,0,11.71,14.54,2.11,2.11,0,0,0,.53.4c0,3.69-.64,7-2.22,9.42-1.77,2.64-9.22,6.63-17.84,11.24-21.38,11.45-53.7,28.73-72.28,59.78-4.74,7.93-10,16.21-15.6,25-19.58,30.62-39.68,62.18-39.37,82.55h-64a3.9,3.9,0,0,0,0,7.8h63.92a3.77,3.77,0,0,0,1.29-.23,17.81,17.81,0,0,0,7.51,9.31,218.86,218.86,0,0,0,24.71,12.89c10.37,4.83,19.32,9,24.82,14.75h0c1.08,1.14,2.41,2.39,3.9,3.73L297,654.11a2.49,2.49,0,0,0-.37.09h-.07a2.38,2.38,0,0,0-.51.24h0l-.07.06a2.28,2.28,0,0,0-.33.29l-.11.1a2.88,2.88,0,0,0-.3.47h0a2,2,0,0,0-.17.49V656a2.94,2.94,0,0,0,0,.42v.11l.84,12.32a2.35,2.35,0,0,0,1.26,1.92L376,711.34h.08a2.09,2.09,0,0,0,.35.13l.13,0a2.22,2.22,0,0,0,.51.06h.16l206-14.1a2.34,2.34,0,0,0,2.17-2.5h0L584.44,683l10.79-72.63M443.73,430.53c-1.49,1.71-5,4.53-11.7,4.8-14.68.6-20.21-7.07-21.73-9.83,4-7.55,1.93-19.65,0-27,8.23,3.94,17.28,5.94,28.19,6.24C437.77,407.75,435.38,420.81,443.73,430.53Zm-1.37-18.73a31.25,31.25,0,0,1,.78-6.24A23.31,23.31,0,0,1,442.36,411.8Zm45.82-22.66-5.31,24.47L469,415.06V402.39a2.35,2.35,0,0,0-4.5-.9l-6.42,15.31-11.82-1.19c.9-3.43,1.78-7.64,1.49-10.41,1.06-.53,2.92-1.32,4.62-2,10-4.23,29.34-12.44,37-27.87-.31,4.35-.74,9.21-1.2,13.83Zm15.76-8.22a126.59,126.59,0,0,1-7.55,25.26c.84-13.08,1.51-33.45-1.5-42.28l6.72-54c1.89,15.14,5.92,52.62,2.33,71Zm-112.49,3.52c-2.22-3.74-4.46-7.85-6.66-12.28-.66-1.36-1.32-2.73-2-4.14A172.68,172.68,0,0,1,376,350.86c-.37-1.07-.72-2.15-1.07-3.25-1.08-3.44-2.09-7-3-10.75-1-4.11-1.88-8.38-2.58-12.81-.09-.53-.16-1.07-.24-1.56s-.18-1.19-.27-1.79c-.18-1.37-.35-2.77-.5-4.18a154.18,154.18,0,0,1-.6-27.51c1-7.17,2.2-14.74,3.33-21,.64-3.56,1.24-6.67,1.71-9A2.34,2.34,0,0,0,368.2,258a160.82,160.82,0,0,0-5.12,30.27c-1.07,8.12-1.77,16.07-1.4,21.23a16.94,16.94,0,0,0-14.14,5.77,10,10,0,0,0-1.87,3.08c-1.65,4.18-1,9.94,1.86,15.94,4.05,8.37,12.31,16.56,22,16.89.09.26.21.56.33.88C373,360.1,383.48,386.88,395.7,410l-8.68.67-6.32-12.28a2.34,2.34,0,0,0-4.4,1.38l1.4,10.95L364.11,407l-5.79-14.9a2.34,2.34,0,0,0-4.46.33L352.14,400l-10.65-32.28a190.76,190.76,0,0,1-1.43-88.76c4.94-22.29,12.22-36.17,12.26-36.24,23.08-40.4,86-32.42,86.59-32.34h.29c26.21.22,45.05,15.8,56,46.32,6.6,18.42,8.19,37,8.58,44l-.28-.06h0l-3.13-.61-2.28-.43-2.29-.44-1.88-.37-4.58-18.58a2.34,2.34,0,0,0-4.61.56v17.7H461.39l-10-38.31a2.34,2.34,0,0,0-4.6.59v37.56l-32.61-2.43-5.61-22a2.34,2.34,0,0,0-4.61.38l-2,24-13,2.17a2.32,2.32,0,0,0-1.93,2.64c.38,2.58,7.3,49.66,14,83.88.23,1.19.46,2.34.69,3.51s.46,2.27.68,3.37c.7,3.43,1.39,6.66,2.07,9.63a176.5,176.5,0,0,1-12.94-19Zm-21.8-38c-7.72-.32-14.6-7.42-17.94-14.24-2.16-4.46-2.82-8.69-1.95-11.6,3.08-3.12,6.1-4.56,9-4.22a10,10,0,0,1,5,2.34,166.81,166.81,0,0,0,5.84,27.7Zm36.8,44.19c-.48-2.34-1-4.85-1.44-7.37-5.73-30.05-11.6-68.85-13.06-78.56l12.56-2.09a2.35,2.35,0,0,0,1.95-2.1l1-12,2.61,10.21a2.36,2.36,0,0,0,2.09,1.76L449,303.16a2.33,2.33,0,0,0,2.51-2.15c0-.06,0-.13,0-.19V279l5.79,22.38a2.33,2.33,0,0,0,2.27,1.76H487a2.34,2.34,0,0,0,2.34-2.34V300l.33,1.32a2.32,2.32,0,0,0,1.82,1.74l4.13.78C495,323,492.34,346,489.38,359.49a43.54,43.54,0,0,0-2,7.34c-5,14.38-33.44,32.83-47,33.17h-.58c-9.57-.14-20.54-1.51-31.4-7.8v-.09a2.31,2.31,0,0,0-2-1.53Zm.7,38.69c2.77,4.08,9.43,10.76,23.29,10.76.58,0,1.17,0,1.78,0,8.2-.32,12.75-3.86,14.94-6.3,1.35,1,3.16,2.25,5.46,3.83l.83.57c-3.35,2.19-13,8-21.4,8.36-15.9.63-29.41-9.3-32.76-12a55.47,55.47,0,0,0,7.86-5.21Zm-89.9,210.2c-.56-.41-1.13-.78-1.71-1.2-5.46-3.64-12.08-6.74-19.43-10.14a212.28,212.28,0,0,1-24.18-12.61,13.25,13.25,0,0,1-6.14-8.73c-4.05-18,18.36-53.18,38.13-84.2,5.61-8.8,10.93-17.12,15.69-25.1,17.95-29.94,49.54-46.86,70.47-58.06l4.85-2.6a3,3,0,0,0,.37.43c.66.58,15.78,13.89,35.23,13.89h1.69c11.7-.46,24.6-9.65,25.15-10.05l.15-.13c12.39,8.7,31.2,22.91,46.86,43.49,14.44,19,27.87,44.15,39.25,73l-30.77,2.11c-11.5-34.21-28-69.93-29-72.1a2.34,2.34,0,1,0-4.25,2c.24.53,16.74,36.28,28.36,70.46l-113.12,7.75a2.33,2.33,0,0,0-2.15,2l-4.88,32.94H355a3.82,3.82,0,0,0-2.3.78q-4.08-2.14-8.39-4.31a402.26,402.26,0,0,1,12.85-57.9c7.47-14.82,12.79-26.72,13.51-29.64a2.34,2.34,0,0,0-4.54-1.13c-1.21,4.85-22.12,49.3-41.66,79.4-15.09-6.61-26.18-10.53-26.32-10.58a2.34,2.34,0,1,0-1.56,4.42A450.47,450.47,0,0,1,344,604.21l2.5,1.27a54.29,54.29,0,0,0-6.34,1.27,37.68,37.68,0,0,0-15.32,7.8,21.19,21.19,0,0,0-4.17,5.12C316.85,626.15,316.7,634,317.25,639.49Zm69.43-29.09-2,13a207.91,207.91,0,0,0-19.5-13Zm-46.81-13.51-2.12-1c-3.07-1.47-6.07-2.86-9-4.15,6.12-9.49,12.44-20.46,18.25-31.21-4.19,17.09-6.34,30.5-7.19,36.38Zm34.52,108.49-73.95-38.09-.46-6.86,73.95,38.09h0l.46,6.86Zm-.07-12-69.17-35.6L327.69,655c12.11,10,29.44,22.06,31.88,23.75a38.09,38.09,0,0,0,16,6.46Zm-19.91-35c.36.22,1,.54,2.17,1.2,10.79,5.8,17.13,10.14,20.77,13.39l-1.12,7.53c-.53-.08-1.1-.17-1.7-.29h0q-.89-.18-1.83-.45h0c-.78-.21-1.56-.47-2.41-.78h-.11c-.78-.3-1.63-.63-2.47-1l-.19-.09c-.35-.16-.71-.34-1.06-.52l-.22-.11c-.41-.21-.81-.43-1.22-.66l-.2-.11-1-.62-.32-.19c-.41-.26-.78-.53-1.22-.78l-1.52-1.07-.38-.27-1.6-1.11-.31-.22-1.56-1.12-.26-.19-1.82-1.29-.37-.26-4-2.91-.28-.2-2.06-1.51-.22-.16L345.72,663h0L344,661.76h0l-1.56-1.15-.38-.29-1.2-.9-.46-.35-1.14-.88-.44-.33-1.26-1-.28-.22-1.56-1.21-.13-.09-1.33-1-.45-.36-1-.78-.48-.39-.92-.78-.48-.4-.93-.78-.4-.33-1.26-1.06-.14-.12-1.05-.91-.38-.33-.78-.67-.41-.36-.66-.61-.39-.36-.64-.61c-.21-.2-.21-.19-.31-.3-.3-.28-.59-.57-.86-.85-.71-3.12-3.68-18.45,5.17-26.29,8-7.06,19.86-8.23,24.72-8.41a3.82,3.82,0,0,0,2.29.78h.78a222.33,222.33,0,0,1,28.22,18.28l-1.31,8.83-1.56-.89a2.34,2.34,0,1,0-2.25,4.11s1.22.67,3.12,1.77l-1.14,7.64a58.33,58.33,0,0,0-11.47-5,2.34,2.34,0,0,0-1.44,4.46l.14,0a55.5,55.5,0,0,1,12,5.46l-1.86,12.48c-4.21-3.34-10.39-7.32-19.35-12.13-.86-.46-1.67-.9-1.9-1a2.34,2.34,0,0,0-2.72,3.81l.23.15Zm24.76,48.44L378.9,703l-.25-3.82,100.63-6.9,100.64-6.89.52,7.64ZM591.64,602.6l-.58,3.9-.58,3.9L580,680.73,378.89,694.51l1.36-9.18.32-2.16.39-2.62.42-2.84.95-6.34,2-13.17.78-5.31,1.15-7.8.78-5,.89-6,.3-2,.78-5.47,2.41-16.25.57-3.9.18-1.14.41-2.76,4.52-30.42,112.48-7.69,4.86-.33,31-2.12,1.25-.09,3.63-.25,47.93-3.28Z" transform="translate(-94.75 -204.91)"/><path d="M429.81,341.28a2.35,2.35,0,0,0,2.31,1.94h.4a2.35,2.35,0,0,0,1.91-2.71l-2.56-14.82a2.34,2.34,0,1,0-4.64.58l0,.2Z" transform="translate(-94.75 -204.91)"/><path d="M460.58,338.63a2.36,2.36,0,0,0,2.29,1.85,2.72,2.72,0,0,0,.49-.05,2.35,2.35,0,0,0,1.8-2.78h0l-3.29-15.37a2.34,2.34,0,1,0-4.58,1Z" transform="translate(-94.75 -204.91)"/><path d="M457.39,355.41a6.77,6.77,0,0,1-3.66,3.55,2.35,2.35,0,0,0,.71,4.58,2.43,2.43,0,0,0,.7-.11,11.52,11.52,0,0,0,6.59-6.24c.78-1.78.78-4.68-4.83-12.76-2.85-4.09-5.84-7.64-6-7.8a2.34,2.34,0,1,0-3.68,2.89l.11.13C452.9,346.2,457.56,353.53,457.39,355.41Z" transform="translate(-94.75 -204.91)"/><path d="M459.8,371c-11.32-1.1-24.59-2.94-27.13-4.08a2.34,2.34,0,0,0-4.13,1.85c.32,1.86.67,4,30.81,6.89h.27a2.35,2.35,0,0,0,.22-4.69Z" transform="translate(-94.75 -204.91)"/><path d="M504.23,610.4a19.19,19.19,0,0,0-5.33-2.58,20.48,20.48,0,0,0-17,2.58l-.38.23a28.25,28.25,0,0,0-11.36,15.56h0c-4.15,13.68,2,27.7,13.68,31.25a19.82,19.82,0,0,0,5.57.83c10,0,19.68-7.67,23.18-19.2S512.35,616,504.23,610.4Zm3.9,27.31c-3.4,11.21-13.68,18-22.9,15.25s-14-14.21-10.57-25.42h0a23.53,23.53,0,0,1,9.44-13,16,16,0,0,1,13.47-2.25c9.2,2.8,13.93,14.2,10.53,25.41Z" transform="translate(-94.75 -204.91)"/><path d="M213.76,274a2,2,0,0,0,1.13,1,2,2,0,0,0,.6.09,2,2,0,0,0,.89-.21L249.29,258a2,2,0,0,0,.85-2.63L246.37,248a1.93,1.93,0,0,0-1.14-1,2,2,0,0,0-1.49.11l-32.91,16.82a1.94,1.94,0,0,0-.87,2.6v0Zm30-22.44,2,3.9-29.43,15-2-3.9Z" transform="translate(-94.75 -204.91)"/><path d="M302.14,278.71c6.1.78,13,1.69,19.86-6.91,12.64-15.84-17.72-42.84-19-44a2,2,0,1,0-2.58,2.93c8.07,7.09,27.12,27.85,18.54,38.62-5.46,6.88-10.5,6.24-16.31,5.46-5.24-.68-11.18-1.46-16.68,4.52-6,6.49-4.22,17.43-2.68,27.07,1.28,8,2.49,15.61-1,18A18.49,18.49,0,0,1,266.72,327c.78-3.12,2.47-10.15,3.9-17.76,2.59-14.23,2.93-23.28,1-27.66-4.33-9.91-18.42-20.54-19-21a1.94,1.94,0,0,0-2.08-.16l-16.47,8.38-16.46,8.4a2,2,0,0,0-1.06,1.77c0,.78.35,18.38,5.83,27.71s37.48,21.92,41.27,23.4a22.38,22.38,0,0,0,20.83-2.44c5.53-3.82,4.14-12.57,2.66-21.84-1.41-8.78-3-18.73,1.69-23.82C293,277.52,297,278,302.14,278.71Zm-38.5,44.56-14.33-23.81a2,2,0,0,0-3.41,1.91l.07.11,13.74,22.82c-11.56-4.84-30.55-13.73-34-19.56-4.19-7.14-5.07-20.53-5.25-24.6l15.35-7.8,15.35-7.8c3.19,2.53,13.51,11.11,16.82,18.72C270.82,289.58,266.52,311.27,263.64,323.27Z" transform="translate(-94.75 -204.91)"/></g></svg>