<svg id="レイヤー_1" data-name="レイヤー 1" xmlns="http://www.w3.org/2000/svg" viewBox="0 0 756.59 670.32"><defs><style>.cls-1{fill:#595959;}.cls-2{fill:#fff;}.cls-3{fill:none;stroke:#020202;stroke-miterlimit:10;stroke-width:6px;}</style></defs><path class="cls-1" d="M507.64,528.21c-26.22-5.4-52.1-7.88-72.71-7.08a69.56,69.56,0,0,1,7.65,6.15c2.07,1.93,13.81,15.84,13,22.09H573.89C556.14,540.82,533.21,533.45,507.64,528.21Z"/><path class="cls-1" d="M563,433.7a8.11,8.11,0,0,1-2.22,1.06c-9.7,2.71-22.6,3.74-36.21,3.74-29.24,0-61.73-4.75-72.67-7.73-13.67-3.72-65.09-28.4-74.64-40.31-6.4,4.23-24.56,17.06-44.67,38.76a287.19,287.19,0,0,0-31.06,40.19l10.54,80.46L327.48,551c1.37-14.67,8.31-36.14,20.67-63.91,9.61-21.58,19.1-39.16,19.2-39.33a3,3,0,0,1,5.27,2.85c-.36.68-35.91,66.69-39.16,100.84l4.84.36a8.62,8.62,0,0,1,.19-1.45q.13-.69.33-1.35a3,3,0,0,1-1.12-.78c-1.59-1.8-3.12-5.1-1.36-10.55s6.4-11.69,12.74-17.14a54,54,0,0,1,22.46-11.81,79.54,79.54,0,0,1,54.36,7c24.14-2.22,58.72.91,92,8.56-.31-20.19-18.51-56.85-18.71-57.24a3,3,0,1,1,5.37-2.68c.84,1.68,19.78,39.82,19.32,61.34,23.35,5.77,45.67,13.77,62.87,23.68h47.89C616,485.33,572.94,442.87,563,433.7Z"/><path class="cls-1" d="M431.85,382.44a2.9,2.9,0,0,1,1-.74c4-1.84,7.46-15.7,8.71-25.36-2.4-.5-4.81-1.08-7.23-1.77A49,49,0,0,1,407.73,336c-3.27,3.39-4.08,8.08-4.7,11.68-.51,3-1,5.62-3.47,6.38a37.14,37.14,0,0,1-5.74,1.14,19.59,19.59,0,0,0-9.87,3.58c-7,4.69-8.21,18.3-2.35,27.48,2.57,4,15.09,12.21,32.67,21.37,15.57,8.11,32.06,15.42,39.21,17.36,15.12,4.12,76.68,12.11,105.68,4a2.83,2.83,0,0,0,.92-.5,3.1,3.1,0,0,1,.49-.87,3,3,0,0,1,1.17-.83c1.68-2.08,3.87-5.81,6.22-12.08,3-7.92,4.76-16.08,4.76-19.41,0-2.45-7.67-5.63-12.26-7.52-6.27-2.6-11.69-4.84-13.24-8.64-1.61-4,0-7.52,1.48-11s3.21-7.25,2.45-12.53c-.63-4.46-16.19-11.55-40.2-15.25a3.4,3.4,0,0,1-.69-.2,88.86,88.86,0,0,1-22,12.51c-2,11.2-3.33,31.94,3.64,35.31a147.21,147.21,0,0,0,11.79-25.76,3,3,0,0,1,5.71,1.84c-.77,2.4-18.56,56.46-50.27,56.46a30.24,30.24,0,0,1-4.24-.31c-6.64-1-12.86-5.78-18.5-14.23s-9.33-18.69-11-24c-.66-2.13-3.92-13-2.92-16.94a3,3,0,0,1,5.86,1.29.75.75,0,0,1,0,.16C428.06,368,429.21,374.54,431.85,382.44Z"/><path class="cls-2" d="M459.21,358.21a86.49,86.49,0,0,1-11.7-.82c-.92,7-4.11,26.14-12.15,29.8a3.07,3.07,0,0,1-1.24.27,3.38,3.38,0,0,1-.45,0,76.81,76.81,0,0,0,8.76,16.75c4.34,6,8.84,9.44,13.35,10.11,13.58,2,24.81-8.83,33-21.16-10.3-5.8-8.41-27.93-6.9-38.21A79.77,79.77,0,0,1,459.21,358.21Z"/><path class="cls-2" d="M421.59,203.92a120,120,0,0,0-15,23.11,201.8,201.8,0,0,0-6.29,31c-3,24.6-1,46.84,5.68,62.64a62.27,62.27,0,0,0,3.73,7.44c6.21,10.5,15,17.43,26.24,20.66,2.82.8,5.6,1.46,8.36,2a74.67,74.67,0,0,0,39.8-2.84,3,3,0,0,1,1-.36l.47-.19a83.42,83.42,0,0,0,21.09-12c.6-.47,1.2-.94,1.8-1.43a114.28,114.28,0,0,0,21-22.87c-.76.06-1.5.1-2.18.1a3,3,0,0,1,0-6h.59a32.49,32.49,0,0,0,6.06-.91c1.33-.31,2.74-.7,4.17-1.16a46,46,0,0,0,4.37-1.64c5.34-2.28,10.46-5.57,13.08-9.79,2.32-3.72,2.39-7.68.21-12.09a15.46,15.46,0,0,0-2.79-4.14,7.36,7.36,0,0,0-2.62-1.82,5.47,5.47,0,0,0-1.44-.38,6.27,6.27,0,0,0-1.56.05c-3.46.43-7.14,3.25-9.67,5.7-1,1-1.88,2-2.62,2.85,0,0-.1.08-.14.13l-.26.23-.24.16a1.87,1.87,0,0,1-.28.16l-.26.12-.29.09-.29.06h-.58l-.47-.06h-.21a3.8,3.8,0,0,1-.63-.26h-.06l-.34-.23h0a5.44,5.44,0,0,1-.42-.41l-.06-.08c-.09-.12-.17-.24-.25-.37s0-.11-.08-.17-.1-.22-.14-.33l-.06-.19c0-.11,0-.23-.07-.34v-.75a1.91,1.91,0,0,1,.06-.33,1.42,1.42,0,0,1,.05-.22h0c.11-.34,10.3-33.81,3.75-48.56-6.69-15.06-20.43-17.15-21-17.23a3,3,0,0,1-2.64-2.56c-.27-1.45-6.89-35.38-46.68-32.13C445,180.1,430.47,193.21,421.59,203.92Zm50.62,63.42,6.89-21.29a3,3,0,0,1,5.8,1.57c0,.09-.06.18-.1.28l-6.89,21.31a3,3,0,0,1-2.86,2.08,3.22,3.22,0,0,1-.92-.15,3,3,0,0,1-1.92-3.78Zm8,34.42a3,3,0,1,1,3.56,4.83c-11.53,8.47-37.89,8.57-39,8.57a3,3,0,0,1,0-6C445,309.21,470.21,309.06,480.21,301.76Zm-26.9-56.95a3,3,0,0,1,4.28,4.21l-.13.12c-11,10.6-20.47,22.4-20.32,25.45a22.84,22.84,0,0,0,8.81,8.25,3,3,0,1,1-2.57,5.42,28.66,28.66,0,0,1-11.56-10.89c-1.5-2.69-1.54-7.17,9.62-20.05,5.61-6.54,11.57-12.27,11.82-12.51Zm-14-13.2a3,3,0,0,1,1.5,4l0,0-7.31,16a3,3,0,0,1-5.47-2.49v0l7.32-16a3,3,0,0,1,4-1.48Z"/><path class="cls-2" d="M306.75,555.49l-.1-.74-.69-5.33-4.53-34.57-4.89-37.35L295.3,468l-7.09-54.36-56.81-3.45L41.68,398.71,82,544.58A4.57,4.57,0,0,1,85.71,543c6.45,0,6.44,10,0,10a5.58,5.58,0,0,1-1.4-.18l0,.18,1.22,4.41,6.8,24.57,96.39,6.56,123.4,8.4ZM131.59,534.91c-5.33-3.54-11.11-6.35-16.39-9.95-5.06-3.44-9.48-7.72-13.87-12-9.48-9.11-18.46-18.89-25.61-30-3.5-5.43,5.16-10.44,8.63-5.05,6.69,10.36,15.18,19.41,24.05,27.94,4.4,4.23,8.76,8.49,13.95,11.76,4.69,3,9.65,5.5,14.29,8.58C142,529.82,137,538.48,131.59,534.91Zm65.52-16.76c-2.56,8-7.91,14-15.06,16.93a25.06,25.06,0,0,1-9.6,1.9c-12,0-24-8.29-29.5-21.57a35.89,35.89,0,0,1-1.3-24.63c2.56-8,7.91-14,15.06-16.93,14.58-6,32.11,2.8,39.1,19.68A35.74,35.74,0,0,1,197.11,518.15Z"/><polygon class="cls-2" points="312.63 602.94 93.05 587.99 93.05 587.99 93.05 599.36 312.63 614.31 312.63 602.94"/><polygon class="cls-2" points="318.63 614.6 452.35 578.2 452.35 567.04 318.63 603.44 318.63 614.6"/><polygon class="cls-2" points="312.73 570.98 316.02 588.85 317.14 588.58 363.74 577.1 314.88 571.24 312.73 570.98"/><path class="cls-2" d="M179.76,529.54c5.49-2.27,9.63-7,11.64-13.23a29.81,29.81,0,0,0-1.13-20.49C185.73,484.82,176,478,166.36,478A19,19,0,0,0,159,479.4a20.71,20.71,0,0,0-11.64,13.22,29.92,29.92,0,0,0,1.13,20.49C154.21,526.94,168.21,534.31,179.76,529.54Z"/><path class="cls-2" d="M372.87,514.61c-15.22,3.45-28.21,16.85-30.82,24.94a7.67,7.67,0,0,0-.39,3.62c8.07-12.48,29.29-27.45,46.75-26.06a3,3,0,1,1-.49,6c-18.41-1.48-41.78,18.75-43.53,28.37a6.22,6.22,0,0,0,.06,2.91,1.61,1.61,0,0,0,.38.61c1.24,1.11,4.76.79,6.75.21a2.84,2.84,0,0,1,1-.1c.12-.27.25-.53.37-.8,6.6-13.83,25-26.15,43.94-28.62a3,3,0,1,1,1.11,5.89l-.33,0c-15.25,2-31,11.81-37.82,22.61a23.8,23.8,0,0,0-2.9,6.44c-.17.66-.16,1.12-.06,1.22,1.16,1.13,6.94.79,12.12-.71a3.11,3.11,0,0,1,1.09-.1,13.12,13.12,0,0,1,1.76-4.7,21.86,21.86,0,0,1,1.61-2.29c6.4-7.88,20.58-14.65,31.79-17a3,3,0,1,1,1.21,5.88c-8,1.64-18,6-24.34,11a21.38,21.38,0,0,0-5.12,5.44,5.88,5.88,0,0,0-1,3.55c1.46.33,6.65.62,23.92-3.19,8.14-1.8,17-4.06,25.09-6.2,4.15-1.1,8.08-2.16,11.59-3.11l.31-.08,3.89-1c4.18-1.12,6.8-1.81,8.46-2.19-1.57-3.85-7.35-12.32-10.78-15.5A73.55,73.55,0,0,0,372.87,514.61Z"/><path d="M474.13,271.11a3.22,3.22,0,0,0,.92.15,3,3,0,0,0,2.86-2.05l6.88-21.28a3,3,0,1,0-5.6-2.13,2.31,2.31,0,0,0-.1.28l-6.88,21.26A3,3,0,0,0,474.13,271.11Z"/><path d="M429.48,253a3,3,0,0,0,4-1.48l7.31-16a3,3,0,1,0-5.35-2.7,1.24,1.24,0,0,0-.1.2l-7.32,16a3,3,0,0,0,1.48,4Z"/><path d="M431.77,277.37a28.66,28.66,0,0,0,11.56,10.89,3,3,0,1,0,2.57-5.42,22.84,22.84,0,0,1-8.81-8.25c-.15-3,9.27-14.85,20.32-25.45a3,3,0,0,0-4-4.45l-.13.12c-.25.24-6.21,6-11.87,12.51C430.21,270.21,430.27,274.68,431.77,277.37Z"/><path d="M441.71,312.21a3,3,0,0,0,3,3c1.12,0,27.48-.1,39-8.57a3,3,0,1,0-3.56-4.83c-9.94,7.3-35.19,7.4-35.45,7.4A3,3,0,0,0,441.71,312.21Z"/><path d="M741.48,549.45H640.91c-18.7-66.08-62.91-110-73.7-120,6.89-9.54,11.51-28.54,11.51-34.14,0-6.46-8.12-9.82-16-13.07-3.51-1.45-9.38-3.87-10-5.35s0-3.21,1.41-6.27c1.65-3.72,3.9-8.82,2.9-15.81-.87-6.12-8.76-11.24-24.11-15.66-6.38-1.85-12.71-3.16-16.71-3.92a117.83,117.83,0,0,0,12.28-12.9c2.94,2.62,4.82,3.41,6.15,3.41a3.54,3.54,0,0,0,1.57-.39,3.58,3.58,0,0,0,1.9-3.79c0-1.63,3-8.58,5.69-14v-.08l.74-.29c5.25-2.2,12.32-6.13,16.17-12.32a17.2,17.2,0,0,0,1.5-15.64c2.31-1.85,6-5,7.61-7.57,10.53-16.92,14-39.74,10.63-69.76-3.65-32.48-28.55-50.1-35-54.16-1.24-14.82-23-38.77-25.61-41.51a3,3,0,0,0-5.1,1.23l-3,10.72C496.66,105,456,94.62,450.94,93.36a3,3,0,0,0-3.59,3.78L451,109.21c-13.88-.64-40.93,7.88-47,9.84a3,3,0,0,0-2,3.76,2.94,2.94,0,0,0,.75,1.24l19.38,19.73c-5,1.6-13.12,5.08-23.42,12.56-20,14.55-31.2,46.19-31.67,47.53a3,3,0,0,0,1.81,3.83,3.13,3.13,0,0,0,.72.17l21.88,2.24-8.32,18.8a3,3,0,0,0,3.41,4.14l13-2.93c-7.25,27.69-10.62,65.46.9,92.91a69.14,69.14,0,0,0,3.91,7.85c-5.39,4.79-6.55,11.54-7.27,15.78-.11.64-.24,1.39-.36,1.93a35.81,35.81,0,0,1-3.75.65,25.66,25.66,0,0,0-12.38,4.53c-8.76,5.83-11.27,19.88-6.33,31.44-6.37,4.15-24.91,17.09-46,39.77a294.1,294.1,0,0,0-28,35.31l-6.54-49.87a3,3,0,0,0-2.79-2.6l-56.55-3.43L228.73,410l2.67.17,56.81,3.45L295.33,468l1.24,9.48,4.89,37.35L306,549.42l.69,5.33.1.74,5.42,41.4-123.4-8.4-96.4-6.56-6.8-24.57L84.38,553l0-.18-.27-.07-4.73,4.66L87,585.19v17a3,3,0,0,0,2.8,3l223.42,15.2a3.51,3.51,0,0,0,.54.55,3,3,0,0,0,1.82.62,3,3,0,0,0,.79-.11l139.72-38a3,3,0,0,0,2.21-2.9V563a1.75,1.75,0,0,0,0-.4,1,1,0,0,0,0-.24,1.22,1.22,0,0,0-.14-.39.75.75,0,0,0-.1-.2,2.55,2.55,0,0,0-.24-.39.76.76,0,0,0-.11-.14,2.18,2.18,0,0,0-.46-.45.21.21,0,0,0-.1-.06,2.05,2.05,0,0,0-.43-.26l-.23-.09a2,2,0,0,1-.37-.12h-.47l-24.79-1.85,6.29-1.68a4.09,4.09,0,0,0,2.34.77h302a4,4,0,0,0,0-8ZM400.33,258.06h0a201.8,201.8,0,0,1,6.29-31,120,120,0,0,1,15-23.11c8.88-10.72,23.38-23.82,42-25.34,39.79-3.25,46.41,30.68,46.68,32.13a3,3,0,0,0,2.54,2.44c.59.08,14.33,2.17,21,17.23,6.55,14.75-3.64,48.22-3.75,48.56a1.42,1.42,0,0,0-.05.22.65.65,0,0,1-.06.33v.75c0,.11,0,.23.07.34l.06.19c0,.11.09.22.14.33a.38.38,0,0,0,.08.17c.08.13.16.25.25.37l.06.08a4.07,4.07,0,0,0,.42.41l.34.23h.06a3.8,3.8,0,0,0,.63.26h.21l.47.06h.58l.29-.06.29-.09.26-.12a1.87,1.87,0,0,0,.28-.16l.24-.16.26-.23s.1-.08.14-.13c.74-.83,1.65-1.82,2.62-2.85,2.53-2.45,6.21-5.27,9.67-5.7a6.27,6.27,0,0,1,1.56-.05,5.47,5.47,0,0,1,1.44.38,7.36,7.36,0,0,1,2.62,1.82,15.46,15.46,0,0,1,2.79,4.14c2.18,4.41,2.11,8.37-.21,12.09-2.62,4.22-7.74,7.51-13.08,9.79-1.46.63-2.93,1.17-4.37,1.64s-2.84.85-4.17,1.16a32.49,32.49,0,0,1-6.06.91h-.59a3,3,0,0,0,0,6,16.5,16.5,0,0,0,2.18-.1,114.28,114.28,0,0,1-21.05,22.87c-.6.49-1.2,1-1.8,1.43a83.42,83.42,0,0,1-21.09,12l-.47.19a3,3,0,0,0-1,.36,74.67,74.67,0,0,1-39.8,2.84c-2.76-.53-5.54-1.19-8.36-2-11.23-3.23-20-10.16-26.24-20.66a62.27,62.27,0,0,1-3.73-7.44C399.38,304.9,397.36,282.66,400.33,258.06Zm88.42,135c-8.17,12.31-19.4,23.16-33,21.13-4.51-.67-9-4.08-13.35-10.11a77.06,77.06,0,0,1-8.79-16.77h.45a3.07,3.07,0,0,0,1.24-.27c8-3.66,11.23-22.77,12.15-29.8a85.75,85.75,0,0,0,11.75.93,79.86,79.86,0,0,0,22.68-3.28C480.36,365.2,478.47,387.28,488.75,393.1ZM384,358.77a19.59,19.59,0,0,1,9.87-3.58,37.14,37.14,0,0,0,5.74-1.14c2.52-.76,3-3.37,3.47-6.38.62-3.6,1.43-8.29,4.7-11.68a49,49,0,0,0,26.6,18.58c2.42.69,4.83,1.27,7.23,1.77-1.25,9.66-4.67,23.52-8.71,25.36a2.9,2.9,0,0,0-1,.74c-2.63-7.9-3.79-14.44-3.53-15.91a3,3,0,1,0-5.78-1.61.94.94,0,0,1,0,.16c-1,4,2.26,14.81,2.92,16.94,1.64,5.27,5.24,15.38,11,24s11.79,13.19,18.47,14.19a30.24,30.24,0,0,0,4.24.31c31.71,0,49.5-54.06,50.27-56.46a3,3,0,0,0-5.71-1.84A147.36,147.36,0,0,1,491.93,388c-7-3.37-5.61-24.11-3.64-35.31a88.86,88.86,0,0,0,22-12.51,3.4,3.4,0,0,0,.69.2c24,3.7,39.57,10.79,40.2,15.25.76,5.28-.87,9-2.45,12.53s-3.09,7-1.48,11c1.55,3.8,7,6,13.24,8.64,4.59,1.89,12.26,5.07,12.26,7.52,0,3.33-1.78,11.49-4.76,19.41-2.35,6.27-4.54,10-6.22,12.08a3,3,0,0,0-1.17.83,3.1,3.1,0,0,0-.49.87,2.83,2.83,0,0,1-.92.5c-29,8.11-90.56.12-105.68-4-7.15-1.94-23.64-9.25-39.21-17.36-17.58-9.16-30.1-17.35-32.67-21.37C375.74,377.07,376.91,363.46,384,358.77ZM312.67,614.36l-219.58-15V588l219.58,15Zm3.4-25.46L312.77,571l2.15.26,48.86,5.86-46.59,11.47Zm136.27-10.69-133.72,36.4V603.44L452.34,567Zm-14.64-13.4L318.28,597.32l-.62-4.75,57.67-14.21a2,2,0,0,0-.24-3.93l-60.76-7.28L312.86,556l25.48,1.9h.22a3.43,3.43,0,0,0,.85-.14,7.8,7.8,0,0,0,1.41,1.72,10.39,10.39,0,0,0,7,2.27,21.42,21.42,0,0,0,3-.24,6.31,6.31,0,0,0,1.88,4.71c1.85,1.8,4.77,2.38,7.77,2.38a39.64,39.64,0,0,0,10.21-1.62l.35-.15c1,1.5,3.1,2.38,7.27,2.38,6.12,0,16.77-1.89,35.29-6.48a2.84,2.84,0,0,0,1.29.41Zm3.12-15.45h0l-3.89,1-.31.08c-3.51,1-7.44,2-11.59,3.11-8.07,2.14-17,4.4-25.09,6.2-17.27,3.81-22.46,3.52-23.92,3.19a5.88,5.88,0,0,1,1-3.55,21.38,21.38,0,0,1,5.12-5.44c6.36-5,16.34-9.36,24.34-11a3,3,0,1,0-1.21-5.88c-11.21,2.31-25.39,9.08-31.79,17a21.86,21.86,0,0,0-1.61,2.29,13.12,13.12,0,0,0-1.76,4.7,3.11,3.11,0,0,0-1.09.1c-5.18,1.5-11,1.84-12.12.71-.1-.1-.11-.56.06-1.22a23.8,23.8,0,0,1,2.9-6.44c6.79-10.8,22.57-20.61,37.82-22.61a3,3,0,0,0-.45-6l-.33.05C378,528.19,359.56,540.51,353,554.34c-.12.27-.25.53-.37.8a2.84,2.84,0,0,0-1,.1c-2,.58-5.51.9-6.75-.21a1.61,1.61,0,0,1-.38-.61,6.22,6.22,0,0,1-.06-2.91c1.75-9.62,25.12-29.85,43.53-28.37a3,3,0,1,0,.49-6c-17.46-1.39-38.68,13.58-46.75,26.06a7.67,7.67,0,0,1,.39-3.62c2.61-8.09,15.6-21.49,30.82-24.94a73.53,73.53,0,0,1,65.63,17.06c3.43,3.18,9.21,11.65,10.78,15.5C447.62,547.55,445,548.21,440.82,549.36Zm14.79,0c.78-6.25-11-20.16-13-22.09a69.56,69.56,0,0,0-7.65-6.15c20.61-.8,46.49,1.68,72.71,7.08,25.54,5.25,48.5,12.62,66.25,21.16Zm131.16,0c-17.2-9.91-39.52-17.91-62.87-23.68.46-21.52-18.48-59.66-19.32-61.34a3,3,0,1,0-5.37,2.68c.2.39,18.4,37.05,18.71,57.24-33.3-7.65-67.88-10.78-92-8.56a79.54,79.54,0,0,0-54.36-7A54,54,0,0,0,349.1,520.5c-6.34,5.45-11,11.69-12.74,17.14s-.23,8.75,1.36,10.55a3,3,0,0,0,1.12.78q-.19.66-.33,1.35c-.09.51-.15,1-.19,1.45l-4.84-.36c3.25-34.15,38.8-100.16,39.16-100.84a3,3,0,0,0-5.27-2.85c-.1.17-9.59,17.75-19.2,39.33-12.36,27.77-19.3,49.24-20.67,63.91l-15.41-1.15-10.56-80.4a286.69,286.69,0,0,1,31.06-40.2c20.11-21.7,38.27-34.53,44.67-38.76,9.55,11.91,61,36.59,74.64,40.31,10.94,3,43.43,7.73,72.67,7.73,13.61,0,26.51-1,36.21-3.74a8.11,8.11,0,0,0,2.22-1.06c9.94,9.17,53,51.63,71.66,115.66Z"/><line class="cls-3" x1="29.91" y1="393.58" x2="290.77" y2="410.9"/><path d="M156.71,474.33a26.77,26.77,0,0,0-15.06,16.93,35.88,35.88,0,0,0,1.3,24.63c5.5,13.28,17.52,21.57,29.5,21.57a24.87,24.87,0,0,0,9.6-1.9,26.77,26.77,0,0,0,15.06-16.93,35.74,35.74,0,0,0-1.3-24.62C188.82,477.13,171.29,468.3,156.71,474.33Zm34.69,42.46c-2,6.26-6.15,11-11.64,13.23-11.55,4.77-25.55-2.6-31.27-16.43a29.92,29.92,0,0,1-1.13-20.49A20.73,20.73,0,0,1,159,479.88a19,19,0,0,1,7.36-1.45c9.59,0,19.37,6.9,23.91,17.87a29.81,29.81,0,0,1,1.13,20.49Z"/><line class="cls-3" x1="83.46" y1="560.34" x2="29.91" y2="393.58"/><circle cx="29.88" cy="393.58" r="3.01"/></svg>