<svg xmlns="http://www.w3.org/2000/svg" width="29" height="29" viewBox="0 0 29 29">
  <g id="グループ_4" data-name="グループ 4" transform="translate(-1064 -16)">
    <rect id="長方形_27" data-name="長方形 27" width="29" height="29" rx="4" transform="translate(1064 16)" fill="#5DAC7D"/>
    <path id="user-alt-solid" d="M6.26,7.042A3.521,3.521,0,1,0,2.739,3.521,3.522,3.522,0,0,0,6.26,7.042Zm3.13.782H8.042a4.257,4.257,0,0,1-3.565,0H3.13A3.13,3.13,0,0,0,0,10.955v.391A1.174,1.174,0,0,0,1.174,12.52H11.346a1.174,1.174,0,0,0,1.174-1.174v-.391A3.13,3.13,0,0,0,9.39,7.825Z" transform="translate(1072.24 24.24)" fill="#fff"/>
  </g>
</svg>
