<svg xmlns="http://www.w3.org/2000/svg" width="84" height="84" viewBox="0 0 84 84">
  <g id="グループ_119" data-name="グループ 119" transform="translate(-108 -174)">
    <g id="楕円形_11" data-name="楕円形 11" transform="translate(108 174)" fill="rgba(255,255,255,0)" stroke="#90d2d8" stroke-width="5">
      <circle cx="42" cy="42" r="42" stroke="none"/>
      <circle cx="42" cy="42" r="39.5" fill="none"/>
    </g>
    <path id="パス_16" data-name="パス 16" d="M18.86-19.8h-10v-7.708a21.048,21.048,0,0,1,.164-3.034H5.945a29.062,29.062,0,0,1,.205,3.157v8.118c0,.7-.041,1.312-.082,2.091.861-.041,1.8-.082,2.542-.082H18.86V-2.255H7.175V-9.84a20.606,20.606,0,0,1,.205-3.485H4.264a22.766,22.766,0,0,1,.2,3.649v9.02a21.551,21.551,0,0,1-.246,3.444H7.175V.328h26.65v2.46h2.952a20.5,20.5,0,0,1-.246-3.444V-9.922a22.766,22.766,0,0,1,.205-3.649H33.62a21.741,21.741,0,0,1,.205,3.526v7.79H21.607V-17.261H32.636c.779,0,1.722.041,2.542.082-.041-.7-.082-1.271-.082-2.091v-8.159a20.222,20.222,0,0,1,.2-3.116H32.226a22.316,22.316,0,0,1,.164,2.993V-19.8H21.607V-30.176a18.6,18.6,0,0,1,.287-3.731H18.573a16.581,16.581,0,0,1,.287,3.731Zm40.3,4.674v3.567H52.4a33.166,33.166,0,0,1-3.9-.164,31.157,31.157,0,0,1,.164,3.567v5a32.4,32.4,0,0,1-.2,4.141h2.911A28.562,28.562,0,0,1,51.209-3.2V-9.307h7.954v8.2a29.668,29.668,0,0,1-.246,4.3h3.034a27.425,27.425,0,0,1-.246-4.3v-8.2h9.266v6.519c0,.9-.328,1.066-1.886,1.066a37.272,37.272,0,0,1-3.895-.246A9.972,9.972,0,0,1,65.805.574c1.148.082,1.8.082,2.747.082,3.936,0,4.92-.574,4.92-2.788V-8.487a23.463,23.463,0,0,1,.164-3.239,30.273,30.273,0,0,1-3.69.164H61.705v-3.567h3.526a26.75,26.75,0,0,1,2.788.123,22.508,22.508,0,0,1-.123-2.378V-21.73h4.633a23.4,23.4,0,0,1,3.854.2V-24.19a22.2,22.2,0,0,1-3.854.2H67.9v-.492a11.2,11.2,0,0,1,.2-2.706H65.272a21.573,21.573,0,0,1,.164,2.706v.492H55.678v-.492a14.3,14.3,0,0,1,.164-2.747H53.013a14.644,14.644,0,0,1,.205,2.747v.492H45.756v-4.387H72.037a25.427,25.427,0,0,1,4.264.2v-2.747a31.991,31.991,0,0,1-4.428.246H60.68v-.943a9.122,9.122,0,0,1,.246-2.665H57.851a12.975,12.975,0,0,1,.246,2.624v.984H47.4c-1.64,0-3.034-.082-4.346-.2.164,1.927.2,3.157.2,6.355,0,7.749-.41,13.817-1.148,17.343A21.907,21.907,0,0,1,39.155.533,7.689,7.689,0,0,1,41.287,2.46a26.376,26.376,0,0,0,3.321-9.143c.656-3.526.943-7.544,1.107-15.047h7.5v4.346a23.7,23.7,0,0,1-.123,2.378,24.52,24.52,0,0,1,2.624-.123Zm-3.485-6.6h9.758v4.469H55.678Z" transform="translate(114.68 239.983) rotate(-14)" fill="#90d2d8"/>
  </g>
</svg>
