<svg xmlns="http://www.w3.org/2000/svg" width="11.689" height="11.689" viewBox="0 0 11.689 11.689">
  <path id="external-link-regular" d="M11.361,0,7.635,0a.329.329,0,0,0-.329.329v.76a.329.329,0,0,0,.335.329L9.322,1.36l.047.047L3,7.774a.274.274,0,0,0,0,.388l.525.525a.274.274,0,0,0,.388,0L10.283,2.32l.047.047-.062,1.681a.329.329,0,0,0,.329.335h.76a.329.329,0,0,0,.329-.329l0-3.726A.329.329,0,0,0,11.361,0Zm-1.5,6.575H9.5a.365.365,0,0,0-.365.365v3.516A.137.137,0,0,1,9,10.594H1.233a.137.137,0,0,1-.137-.137V2.694a.137.137,0,0,1,.137-.137H4.749a.365.365,0,0,0,.365-.365V1.826a.365.365,0,0,0-.365-.365H1.1A1.1,1.1,0,0,0,0,2.557v8.036a1.1,1.1,0,0,0,1.1,1.1H9.132a1.1,1.1,0,0,0,1.1-1.1V6.941A.365.365,0,0,0,9.863,6.575Z" fill="#fff"/>
</svg>
