<svg xmlns="http://www.w3.org/2000/svg" width="122.608" height="15.47" viewBox="0 0 122.608 15.47">
  <g id="レイヤー_2" data-name="レイヤー 2" transform="translate(0.006)">
    <g id="レイヤー_1" data-name="レイヤー 1" transform="translate(-0.006)">
      <path id="パス_1" data-name="パス 1" d="M132.65,21.793V7.42h2.186V19.606h8.593v2.187Z" transform="translate(-113.111 -6.327)" fill="#000"/>
      <rect id="長方形_11" data-name="長方形 11" width="6.639" height="2.031" transform="translate(82.34 7.186)" fill="#000"/>
      <path id="パス_2" data-name="パス 2" d="M530.9,21.263V6.89h10.78V9.077h-8.593v10h8.593v2.187Z" transform="translate(-452.701 -5.875)" fill="#000"/>
      <path id="パス_3" data-name="パス 3" d="M247.949,15.232l-2.012-3.83h-7.153l.789-1.872h5.351l-3.391-6.5a.309.309,0,0,0-.548,0l-6.421,12.2H231.9l7.245-13.513C239.38,1.3,240.088,0,241.261,0a2.688,2.688,0,0,1,2.109,1.563l7.251,13.669Z" transform="translate(-197.742)" fill="#000"/>
      <path id="パス_4" data-name="パス 4" d="M399.737,21.324a1.189,1.189,0,0,1-1.031-.407L387.787,10.433V21.246H385.6V7.773h0a1.019,1.019,0,0,1,.245-.638,1.508,1.508,0,0,1,1.686-.015l.044.041h0c.544.511,7.17,6.857,9.744,9.322l1.326,1.265V6.951h2.186V20.422a1.006,1.006,0,0,1-.243.638A1.156,1.156,0,0,1,399.737,21.324Z" transform="translate(-328.803 -5.858)" fill="#000"/>
      <path id="パス_5" data-name="パス 5" d="M698.8,62.351a.6.6,0,0,1-.524-.208L692.705,56.8v5.51H691.59V55.446h0a.509.509,0,0,1,.124-.326.6.6,0,0,1,.433-.134.61.61,0,0,1,.427.127l.022.022h0c.277.261,3.654,3.5,4.965,4.752l.673.645V55.026h1.115v6.865a.509.509,0,0,1-.124.326A.6.6,0,0,1,698.8,62.351Z" transform="translate(-589.722 -46.885)" fill="#000"/>
      <path id="パス_6" data-name="パス 6" d="M5.473,20.733A5.3,5.3,0,0,1,.811,18.269c-1.09-1.635-1.089-7.807,0-9.444A5.293,5.293,0,0,1,5.473,6.36h8.436V8.391H5.473a2.851,2.851,0,0,0-3,1.768l-.037.075a18.294,18.294,0,0,0,0,6.628l.037.077a2.858,2.858,0,0,0,3,1.768h8.436v2.031Z" transform="translate(0.006 -5.423)" fill="#000"/>
      <path id="パス_7" data-name="パス 7" d="M763.265,62.586a2.7,2.7,0,0,1-2.376-1.256,7.158,7.158,0,0,1,0-4.812,2.7,2.7,0,0,1,2.376-1.256h4.3v1.031h-4.3a1.454,1.454,0,0,0-1.532.9l-.019.038a9.418,9.418,0,0,0,0,3.388l.019.04a1.452,1.452,0,0,0,1.532.9h4.3v1.031Z" transform="translate(-648.459 -47.12)" fill="#000"/>
      <rect id="長方形_12" data-name="長方形 12" width="1.115" height="7.325" transform="translate(98.006 8.141)" fill="#000"/>
      <circle id="楕円形_1" data-name="楕円形 1" cx="0.517" cy="0.517" r="0.517" transform="translate(121.574 14.432)" fill="#000"/>
    </g>
  </g>
</svg>
