<svg id="レイヤー_1" data-name="レイヤー 1" xmlns="http://www.w3.org/2000/svg" xmlns:xlink="http://www.w3.org/1999/xlink" width="79.559" height="13.857" viewBox="0 0 79.559 13.857">
  <defs>
    <linearGradient id="linear-gradient" x1="0.212" y1="1.809" x2="0.788" y2="-0.811" gradientUnits="objectBoundingBox">
      <stop offset="0" stop-color="#0f852c"/>
      <stop offset="1" stop-color="#1e9fed"/>
    </linearGradient>
    <linearGradient id="linear-gradient-2" x1="0.211" y1="1.811" x2="0.787" y2="-0.809" xlink:href="#linear-gradient"/>
    <linearGradient id="linear-gradient-4" x1="0.027" y1="1.01" x2="0.973" y2="-0.01" xlink:href="#linear-gradient"/>
  </defs>
  <path id="パス_53" data-name="パス 53" d="M244.944,15.383h4.375a.55.55,0,0,0,.538-.593v-.747a.55.55,0,0,0-.538-.593h-4.385a.546.546,0,0,0-.538.593V14.8a.538.538,0,0,0,.548.581Z" transform="translate(-211.515 -11.64)" fill="#333"/>
  <path id="パス_54" data-name="パス 54" d="M244.942,43.38h4.375a.538.538,0,0,0,.538-.568v-.771a.55.55,0,0,0-.538-.581h-4.385a.546.546,0,0,0-.538.581v.771a.519.519,0,0,0,.548.568Z" transform="translate(-211.513 -35.882)" fill="#333"/>
  <path id="パス_55" data-name="パス 55" d="M248.479,10.908h-.771a.538.538,0,0,0-.581.568v8.688h-8.651a.561.561,0,0,0-.58.576v.772a.556.556,0,0,0,.593.58h9.863a.673.673,0,0,0,.724-.716V11.488a.561.561,0,0,0-.6-.58Z" transform="translate(-205.89 -9.439)" fill="#333"/>
  <path id="パス_56" data-name="パス 56" d="M346.271,47.029h-1.538V42.534a.634.634,0,0,0-.673-.673h-6a.538.538,0,0,0-.556.569v.745a.538.538,0,0,0,.556.568h4.752v3.283h-5.356a.556.556,0,0,0-.58.581v.745a.556.556,0,0,0,.58.556h8.8a.538.538,0,0,0,.581-.568V47.61a.55.55,0,0,0-.568-.581Z" transform="translate(-291.554 -36.229)" fill="#333"/>
  <path id="パス_57" data-name="パス 57" d="M421.7,8.281H415.48V7.647a.55.55,0,0,0-.581-.593h-.784a.55.55,0,0,0-.58.581v.646h-1.84a.556.556,0,0,0-.569.605v.733a.569.569,0,0,0,.581.607h1.828v8.195a.538.538,0,0,0,.58.569h.784a.55.55,0,0,0,.581-.581V10.226h4.952v6.592h-1.454a.55.55,0,0,0-.593.581v.784a.556.556,0,0,0,.593.58h2.731a.632.632,0,0,0,.682-.686V8.987a.657.657,0,0,0-.7-.706Z" transform="translate(-355.812 -6.104)" fill="#333"/>
  <path id="パス_58" data-name="パス 58" d="M152.9,8.445h-4.4V7.736a.556.556,0,0,0-.581-.58h-.784a.554.554,0,0,0-.58.58v.709h-4.428a.538.538,0,0,0-.58.573v.753a.561.561,0,0,0,.6.581h4.414v8.119a.549.549,0,0,0,.58.568h.784a.55.55,0,0,0,.581-.58V10.353h4.4a.556.556,0,0,0,.581-.593V9.018a.538.538,0,0,0-.587-.573Z" transform="translate(-122.498 -6.193)" fill="#333"/>
  <rect id="長方形_665" data-name="長方形 665" width="2.018" height="6.592" rx="1.009" transform="translate(19.911 6.054)" fill="#333"/>
  <rect id="長方形_666" data-name="長方形 666" width="2.018" height="6.592" rx="1.009" transform="translate(28.253 6.054)" fill="#333"/>
  <path id="パス_59" data-name="パス 59" d="M519.441,10.068h-.8a.574.574,0,0,0-.593.593v8.752H509.5a.556.556,0,0,0-.581.593v.784a.549.549,0,0,0,.581.58h9.788a.661.661,0,0,0,.72-.72V10.661a.562.562,0,0,0-.569-.593Z" transform="translate(-440.452 -8.713)" fill="#333"/>
  <rect id="長方形_667" data-name="長方形 667" width="5.247" height="2.018" rx="1.009" transform="translate(69.286 1.614)" fill="#333"/>
  <path id="パス_60" data-name="パス 60" d="M24.631,44H21.206a.217.217,0,0,0-.207.225v.394a.217.217,0,0,0,.207.226h3.425a.217.217,0,0,0,.2-.226v-.394A.217.217,0,0,0,24.631,44Z" transform="translate(-18.173 -38.08)" fill="url(#linear-gradient)"/>
  <path id="パス_61" data-name="パス 61" d="M24.631,55.72H21.206a.217.217,0,0,0-.207.226v.394a.217.217,0,0,0,.207.225h3.425a.217.217,0,0,0,.207-.225v-.394a.217.217,0,0,0-.207-.226Z" transform="translate(-18.173 -48.224)" fill="url(#linear-gradient-2)"/>
  <path id="パス_62" data-name="パス 62" d="M24.631,67.72H21.206a.217.217,0,0,0-.207.226v.394a.217.217,0,0,0,.207.225h3.425a.217.217,0,0,0,.207-.225v-.394a.217.217,0,0,0-.207-.226Z" transform="translate(-18.173 -58.609)" fill="url(#linear-gradient-2)"/>
  <path id="パス_63" data-name="パス 63" d="M14.611,2.893a.37.37,0,0,0,.323-.4V.471a.451.451,0,0,0-.1-.292A.34.34,0,0,0,14.555,0H.378C.17,0,0,.248,0,.554V13.3c0,.307.17.554.378.554H14.555c.209,0,.378-.248.378-.554V5.6c0-.269-.135-.488-.288-.488H8.312c-.159,0-.288.218-.288.488v6.942H1.076V2.893ZM6.323.807a.673.673,0,1,1-.673.673A.673.673,0,0,1,6.323.807Zm-2.153,0A.673.673,0,1,1,3.5,1.48.673.673,0,0,1,4.171.807Zm-2.153,0a.673.673,0,1,1-.673.673A.673.673,0,0,1,2.018.807Z" transform="translate(0 0)" fill="url(#linear-gradient-4)"/>
</svg>
