<!-- <svg id="レイヤー_1" data-name="レイヤー 1" xmlns="http://www.w3.org/2000/svg" viewBox="0 0 759 90"><defs><style>.cls-1{font-size:60px;fill:#18b298;font-family:Toppan-BunkyuMidashiGoStd-EB-83pv-RKSJ-H, Toppan BunkyuMidashiGoStd;}</style></defs><text class="cls-1" transform="translate(8 67.27)">LINE Marketing Academy</text></svg> -->
<svg xmlns="http://www.w3.org/2000/svg" viewBox="0 0 832.4 105"><defs><style>.cls-1{fill:#242424;}</style></defs><g id="レイヤー_2" data-name="レイヤー 2"><g id="レイヤー_1-2" data-name="レイヤー 1"><polygon class="cls-1" points="132.65 105 132.65 7.42 147.49 7.42 147.49 90.15 205.83 90.15 205.83 105 132.65 105"/><rect class="cls-1" x="559.01" y="48.79" width="45.07" height="13.79"/><polygon class="cls-1" points="530.9 104.47 530.9 6.89 604.09 6.89 604.09 21.74 545.75 21.74 545.75 89.62 604.09 89.62 604.09 104.47 530.9 104.47"/><path class="cls-1" d="M340.86,103.41l-13.66-26H278.64L284,64.7h36.33L297.31,20.56a2.1,2.1,0,0,0-3.72,0L250,103.41h-18.1l49.19-91.74C282.68,8.85,287.49,0,295.45,0s12.79,7.82,14.32,10.61L359,103.41Z"/><path class="cls-1" d="M481.58,105c-3.39,0-4.69-.52-7-2.76L400.45,31.06v73.41H385.6V13h0a6.92,6.92,0,0,1,1.66-4.33c1.17-1.19,3.11-1.8,5.77-1.8s4.5.57,5.68,1.7l.3.28,0,0c3.69,3.47,48.68,46.55,66.15,63.29l9,8.59V7.42H489V98.88a6.83,6.83,0,0,1-1.65,4.33C486.19,104.4,484.25,105,481.58,105Z"/><path class="cls-1" d="M740.51,105a4.06,4.06,0,0,1-3.56-1.41L699.16,67.32v37.41h-7.57V58.12h0a3.46,3.46,0,0,1,.84-2.21,4.06,4.06,0,0,1,2.94-.91,4.14,4.14,0,0,1,2.9.86l.15.15h0c1.88,1.77,24.81,23.73,33.71,32.26l4.57,4.38V55.27h7.57v46.61a3.46,3.46,0,0,1-.84,2.21A4.06,4.06,0,0,1,740.51,105Z"/><path class="cls-1" d="M37.19,103.94c-13.6,0-24.25-5.63-31.65-16.73s-7.39-53,0-64.12S23.59,6.36,37.19,6.36H94.46V20.15H37.19c-14.48,0-18.18,7.49-20.4,12l-.25.51c-2.74,5.47-2.74,39.57,0,45l.25.52c2.22,4.47,5.92,12,20.4,12H94.46v13.79Z"/><path class="cls-1" d="M779.43,105a18.34,18.34,0,0,1-16.13-8.53c-3.77-5.65-3.77-27,0-32.67a18.34,18.34,0,0,1,16.13-8.53h29.19v7H779.43c-7.38,0-9.27,3.81-10.4,6.1l-.13.26c-1.39,2.79-1.39,20.16,0,23l.13.27c1.13,2.28,3,6.09,10.4,6.09h29.19v7Z"/><rect class="cls-1" x="665.37" y="55.27" width="7.57" height="49.73"/><circle class="cls-1" cx="828.89" cy="101.49" r="3.51"/></g></g></svg>
